<svg width="163" height="264" viewBox="0 0 163 264" fill="none" xmlns="http://www.w3.org/2000/svg">
<g clip-path="url(#clip0)">
<path d="M0.648438 15.3526C53.1574 -1.70868 109.719 -1.70868 162.229 15.3526L81.4384 264L0.648438 15.3526Z" fill="#FA441C"/>
<path d="M12.2178 50.9635C57.2068 36.3455 105.669 36.3455 150.658 50.9635L81.4378 263.999L12.2178 50.9635Z" fill="#EAB841"/>
<g filter="url(#filter0_f)">
<path d="M115.975 13.6158C110.504 12.8638 105.459 16.6898 104.707 22.1612C103.955 27.6326 107.781 32.6776 113.253 33.4295C118.724 34.1815 123.769 30.3556 124.521 24.8841C125.273 19.4127 121.447 14.3677 115.975 13.6158Z" fill="white"/>
</g>
<path d="M115.975 13.6167C110.504 12.8648 105.459 16.6907 104.707 22.1622C103.955 27.6336 107.781 32.6786 113.252 33.4305C118.724 34.1824 123.769 30.3565 124.521 24.8851C125.273 19.4137 121.447 14.3687 115.975 13.6167Z" fill="white"/>
<g filter="url(#filter1_ii)">
<path d="M47.9839 13.4936C42.5099 14.2259 38.6658 19.2571 39.3981 24.7312C40.1303 30.2053 45.1616 34.0493 50.6356 33.3171C56.1097 32.5848 59.9538 27.5536 59.2215 22.0795C58.4893 16.6054 53.458 12.7614 47.9839 13.4936Z" fill="#ED4721"/>
</g>
<path d="M75.8322 172.963V176.233H73.4772V172.963H70.2512V170.599H73.4772V167.33H75.8322V170.599H79.0052V172.963H75.8322ZM81.0002 158.391V161.915H74.1972C73.3712 161.915 72.6152 161.898 71.9302 161.863C72.1932 162.08 72.4692 162.349 72.7562 162.671L73.9602 164.13L71.7452 165.932L68.1502 161.52V158.391H81.0002ZM81.0002 144.39V147.862H70.9892V150.999H68.1502V141.261H70.9892V144.39H81.0002ZM81.0002 136.172V139.609H71.0422V136.172H81.0002ZM68.5632 139.697C68.0482 139.697 67.6642 139.553 67.4122 139.266C67.1602 138.979 67.0342 138.516 67.0342 137.877C67.0342 137.239 67.1632 136.773 67.4212 136.48C67.6792 136.187 68.0602 136.04 68.5632 136.04C69.5712 136.04 70.0752 136.653 70.0752 137.877C70.0752 139.09 69.5712 139.697 68.5632 139.697ZM81.1762 129.238C81.1762 130.867 80.7362 132.103 79.8572 132.947C78.9792 133.785 77.7162 134.204 76.0692 134.204C74.4172 134.204 73.1372 133.749 72.2292 132.841C71.3202 131.933 70.8662 130.641 70.8662 128.965C70.8662 127.811 71.1182 126.724 71.6222 125.705L74.1622 126.715C73.9802 127.131 73.8372 127.515 73.7312 127.867C73.6202 128.218 73.5642 128.584 73.5642 128.965C73.5642 129.522 73.7812 129.953 74.2152 130.257C74.6482 130.562 75.2612 130.714 76.0522 130.714C77.6462 130.714 78.4422 130.125 78.4422 128.948C78.4422 127.94 78.1492 126.973 77.5632 126.047H80.2972C80.8832 126.932 81.1762 127.996 81.1762 129.238ZM75.4012 120.739C74.7392 120.323 74.2242 119.968 73.8542 119.675L71.0422 117.443V113.611L75.2782 117.065L81.0002 113.391V117.32L77.4322 119.499L78.2842 120.616H81.0002V124.07H67.3242V120.616H72.7032C73.6232 120.616 74.5222 120.68 75.4012 120.809V120.739ZM81.1762 107.397C81.1762 109.055 80.7362 110.344 79.8572 111.264C78.9732 112.178 77.7162 112.635 76.0872 112.635C74.4052 112.635 73.1162 112.21 72.2202 111.361C71.3172 110.511 70.8662 109.298 70.8662 107.722C70.8662 106.222 71.2592 105.065 72.0442 104.25C72.8232 103.43 73.9482 103.02 75.4192 103.02H76.9482V109.164C77.5052 109.14 77.9412 108.938 78.2582 108.557C78.5742 108.17 78.7322 107.646 78.7322 106.984C78.7322 106.38 78.6772 105.827 78.5652 105.323C78.4482 104.813 78.2522 104.262 77.9772 103.67H80.4462C80.7222 104.209 80.9122 104.766 81.0182 105.34C81.1232 105.915 81.1762 106.6 81.1762 107.397ZM73.2042 107.599C73.2042 108.003 73.3332 108.343 73.5912 108.619C73.8432 108.888 74.2412 109.046 74.7862 109.093V106.14C74.3062 106.152 73.9222 106.29 73.6352 106.553C73.3482 106.811 73.2042 107.16 73.2042 107.599ZM78.4602 96.2001C78.4602 95.7371 78.3462 95.1831 78.1172 94.5391H80.6222C80.8212 95.0011 80.9622 95.4441 81.0442 95.8661C81.1322 96.2821 81.1762 96.7711 81.1762 97.3331C81.1762 98.4881 80.8952 99.3201 80.3322 99.8301C79.7642 100.339 78.8942 100.594 77.7222 100.594H73.6172V101.798H72.2202L71.1392 100.269L69.0472 99.3811V97.1311H71.0422V94.6881H73.6172V97.1311H77.4932C78.1382 97.1311 78.4602 96.8211 78.4602 96.2001ZM99.8852 151.615C98.1862 151.615 96.6532 151.407 95.2882 150.991C93.9232 150.575 92.7572 149.962 91.7902 149.154V146.289C92.8152 147.027 94.0222 147.595 95.4112 147.994C96.8002 148.392 98.2852 148.591 99.8672 148.591C101.396 148.591 102.85 148.398 104.227 148.011C105.598 147.624 106.805 147.056 107.848 146.306V149.154C106.922 149.956 105.785 150.569 104.437 150.991C103.09 151.407 101.572 151.615 99.8852 151.615ZM99.8322 141.894V145.164H97.4772V141.894H94.2512V139.53H97.4772V136.26H99.8322V139.53H103.005V141.894H99.8322ZM105 133.764L95.0422 129.352V134.915H92.1682V125.643H94.2162L105 130.169V133.764ZM99.8852 119.236C101.543 119.236 103.052 119.447 104.411 119.869C105.765 120.285 106.91 120.897 107.848 121.706V124.553C106.84 123.815 105.645 123.249 104.262 122.857C102.873 122.464 101.408 122.268 99.8672 122.268C98.3142 122.268 96.8472 122.461 95.4642 122.848C94.0752 123.235 92.8512 123.809 91.7902 124.571V121.706C92.7632 120.891 93.9402 120.276 95.3232 119.86C96.7062 119.444 98.2272 119.236 99.8852 119.236Z" fill="white"/>
</g>
<defs>
<filter id="filter0_f" x="87.3457" y="-3.74609" width="54.5367" height="54.5367" filterUnits="userSpaceOnUse" color-interpolation-filters="sRGB">
<feFlood flood-opacity="0" result="BackgroundImageFix"/>
<feBlend mode="normal" in="SourceGraphic" in2="BackgroundImageFix" result="shape"/>
<feGaussianBlur stdDeviation="8" result="effect1_foregroundBlur"/>
</filter>
<filter id="filter1_ii" x="38.0723" y="11.168" width="22.4751" height="24.4751" filterUnits="userSpaceOnUse" color-interpolation-filters="sRGB">
<feFlood flood-opacity="0" result="BackgroundImageFix"/>
<feBlend mode="normal" in="SourceGraphic" in2="BackgroundImageFix" result="shape"/>
<feColorMatrix in="SourceAlpha" type="matrix" values="0 0 0 0 0 0 0 0 0 0 0 0 0 0 0 0 0 0 127 0" result="hardAlpha"/>
<feOffset dy="1"/>
<feGaussianBlur stdDeviation="2"/>
<feComposite in2="hardAlpha" operator="arithmetic" k2="-1" k3="1"/>
<feColorMatrix type="matrix" values="0 0 0 0 0 0 0 0 0 0 0 0 0 0 0 0 0 0 0.4 0"/>
<feBlend mode="normal" in2="shape" result="effect1_innerShadow"/>
<feColorMatrix in="SourceAlpha" type="matrix" values="0 0 0 0 0 0 0 0 0 0 0 0 0 0 0 0 0 0 127 0" result="hardAlpha"/>
<feOffset dy="-1"/>
<feGaussianBlur stdDeviation="2"/>
<feComposite in2="hardAlpha" operator="arithmetic" k2="-1" k3="1"/>
<feColorMatrix type="matrix" values="0 0 0 0 1 0 0 0 0 1 0 0 0 0 1 0 0 0 0.4 0"/>
<feBlend mode="normal" in2="effect1_innerShadow" result="effect2_innerShadow"/>
</filter>
<clipPath id="clip0">
<rect width="163" height="264" fill="white"/>
</clipPath>
</defs>
</svg>
