<svg width="163" height="264" viewBox="0 0 163 264" fill="none" xmlns="http://www.w3.org/2000/svg">
<g clip-path="url(#clip0)">
<path d="M0.647949 15.3526C53.1569 -1.70868 109.719 -1.70868 162.229 15.3526L81.4379 264L0.647949 15.3526Z" fill="#FA441C"/>
<path d="M12.2178 50.9635C57.2068 36.3455 105.669 36.3455 150.658 50.9635L81.4378 263.999L12.2178 50.9635Z" fill="#1AC955"/>
<g filter="url(#filter0_f)">
<path d="M115.975 13.6158C110.504 12.8638 105.459 16.6898 104.707 22.1612C103.955 27.6326 107.781 32.6776 113.253 33.4295C118.724 34.1815 123.769 30.3556 124.521 24.8841C125.273 19.4127 121.447 14.3677 115.975 13.6158Z" fill="white"/>
</g>
<path d="M115.975 13.6167C110.504 12.8648 105.459 16.6907 104.707 22.1622C103.955 27.6336 107.781 32.6786 113.252 33.4305C118.724 34.1824 123.769 30.3565 124.521 24.8851C125.273 19.4137 121.447 14.3687 115.975 13.6167Z" fill="white"/>
<g filter="url(#filter1_ii)">
<path d="M47.9839 13.4936C42.5099 14.2259 38.6658 19.2571 39.3981 24.7312C40.1303 30.2053 45.1616 34.0493 50.6356 33.3171C56.1097 32.5848 59.9538 27.5536 59.2215 22.0795C58.4893 16.6054 53.458 12.7614 47.9839 13.4936Z" fill="#ED4721"/>
</g>
<path d="M72.8322 175.885V179.155H70.4772V175.885H67.2512V173.521H70.4772V170.251H72.8322V173.521H76.0052V175.885H72.8322ZM78.0002 161.313V164.837H71.1972C70.3712 164.837 69.6152 164.82 68.9302 164.784C69.1932 165.001 69.4692 165.271 69.7562 165.593L70.9602 167.052L68.7452 168.854L65.1502 164.442V161.313H78.0002ZM78.0002 147.312V150.783H67.9892V153.921H65.1502V144.183H67.9892V147.312H78.0002ZM78.0002 139.094V142.531H68.0422V139.094H78.0002ZM65.5632 142.618C65.0482 142.618 64.6642 142.475 64.4122 142.188C64.1602 141.901 64.0342 141.438 64.0342 140.799C64.0342 140.16 64.1632 139.695 64.4212 139.402C64.6792 139.109 65.0602 138.962 65.5632 138.962C66.5712 138.962 67.0752 139.574 67.0752 140.799C67.0752 142.012 66.5712 142.618 65.5632 142.618ZM78.1762 132.159C78.1762 133.788 77.7362 135.025 76.8572 135.868C75.9792 136.706 74.7162 137.125 73.0692 137.125C71.4172 137.125 70.1372 136.671 69.2292 135.763C68.3202 134.855 67.8662 133.563 67.8662 131.887C67.8662 130.733 68.1182 129.646 68.6222 128.626L71.1622 129.637C70.9802 130.053 70.8372 130.437 70.7312 130.788C70.6202 131.14 70.5642 131.506 70.5642 131.887C70.5642 132.444 70.7812 132.874 71.2152 133.179C71.6482 133.484 72.2612 133.636 73.0522 133.636C74.6462 133.636 75.4422 133.047 75.4422 131.869C75.4422 130.862 75.1492 129.895 74.5632 128.969H77.2972C77.8832 129.854 78.1762 130.917 78.1762 132.159ZM72.4012 123.66C71.7392 123.244 71.2242 122.89 70.8542 122.597L68.0422 120.365V116.532L72.2782 119.987L78.0002 116.313V120.241L74.4322 122.421L75.2842 123.537H78.0002V126.991H64.3242V123.537H69.7032C70.6232 123.537 71.5222 123.602 72.4012 123.731V123.66ZM78.1762 110.319C78.1762 111.977 77.7362 113.266 76.8572 114.186C75.9732 115.1 74.7162 115.557 73.0872 115.557C71.4052 115.557 70.1162 115.132 69.2202 114.282C68.3172 113.433 67.8662 112.22 67.8662 110.644C67.8662 109.144 68.2592 107.987 69.0442 107.172C69.8232 106.352 70.9482 105.942 72.4192 105.942H73.9482V112.085C74.5052 112.062 74.9412 111.86 75.2582 111.479C75.5742 111.092 75.7322 110.568 75.7322 109.906C75.7322 109.302 75.6772 108.748 75.5652 108.244C75.4482 107.735 75.2522 107.184 74.9772 106.592H77.4462C77.7222 107.131 77.9122 107.688 78.0182 108.262C78.1232 108.836 78.1762 109.522 78.1762 110.319ZM70.2042 110.521C70.2042 110.925 70.3332 111.265 70.5912 111.54C70.8432 111.81 71.2412 111.968 71.7862 112.015V109.062C71.3062 109.073 70.9222 109.211 70.6352 109.475C70.3482 109.733 70.2042 110.081 70.2042 110.521ZM75.4602 99.121C75.4602 98.658 75.3462 98.105 75.1172 97.46H77.6222C77.8212 97.923 77.9622 98.365 78.0442 98.787C78.1322 99.203 78.1762 99.693 78.1762 100.255C78.1762 101.409 77.8952 102.241 77.3322 102.751C76.7642 103.261 75.8942 103.516 74.7222 103.516H70.6172V104.72H69.2202L68.1392 103.191L66.0472 102.303V100.053H68.0422V97.61H70.6172V100.053H74.4932C75.1382 100.053 75.4602 99.742 75.4602 99.121ZM96.8852 154.536C95.1862 154.536 93.6532 154.328 92.2882 153.912C90.9232 153.496 89.7572 152.884 88.7902 152.075V149.21C89.8152 149.948 91.0222 150.517 92.4112 150.915C93.8002 151.314 95.2852 151.513 96.8672 151.513C98.3962 151.513 99.8502 151.32 101.227 150.933C102.598 150.546 103.805 149.978 104.848 149.228V152.075C103.922 152.878 102.785 153.49 101.438 153.912C100.09 154.328 98.5722 154.536 96.8852 154.536ZM96.8322 144.816V148.085H94.4772V144.816H91.2512V142.451H94.4772V139.182H96.8322V142.451H100.005V144.816H96.8322ZM102 136.686L92.0422 132.274V137.837H89.1682V128.565H91.2162L102 133.091V136.686ZM96.8852 122.157C98.5432 122.157 100.052 122.368 101.411 122.79C102.765 123.206 103.91 123.819 104.848 124.627V127.475C103.84 126.737 102.645 126.171 101.262 125.779C99.8732 125.386 98.4082 125.19 96.8672 125.19C95.3142 125.19 93.8472 125.383 92.4642 125.77C91.0752 126.157 89.8512 126.731 88.7902 127.492V124.627C89.7632 123.813 90.9402 123.198 92.3232 122.782C93.7062 122.365 95.2272 122.157 96.8852 122.157Z" fill="#333333"/>
</g>
<defs>
<filter id="filter0_f" x="87.3457" y="-3.74609" width="54.5367" height="54.5367" filterUnits="userSpaceOnUse" color-interpolation-filters="sRGB">
<feFlood flood-opacity="0" result="BackgroundImageFix"/>
<feBlend mode="normal" in="SourceGraphic" in2="BackgroundImageFix" result="shape"/>
<feGaussianBlur stdDeviation="8" result="effect1_foregroundBlur"/>
</filter>
<filter id="filter1_ii" x="38.0723" y="11.168" width="22.4751" height="24.4751" filterUnits="userSpaceOnUse" color-interpolation-filters="sRGB">
<feFlood flood-opacity="0" result="BackgroundImageFix"/>
<feBlend mode="normal" in="SourceGraphic" in2="BackgroundImageFix" result="shape"/>
<feColorMatrix in="SourceAlpha" type="matrix" values="0 0 0 0 0 0 0 0 0 0 0 0 0 0 0 0 0 0 127 0" result="hardAlpha"/>
<feOffset dy="1"/>
<feGaussianBlur stdDeviation="2"/>
<feComposite in2="hardAlpha" operator="arithmetic" k2="-1" k3="1"/>
<feColorMatrix type="matrix" values="0 0 0 0 0 0 0 0 0 0 0 0 0 0 0 0 0 0 0.4 0"/>
<feBlend mode="normal" in2="shape" result="effect1_innerShadow"/>
<feColorMatrix in="SourceAlpha" type="matrix" values="0 0 0 0 0 0 0 0 0 0 0 0 0 0 0 0 0 0 127 0" result="hardAlpha"/>
<feOffset dy="-1"/>
<feGaussianBlur stdDeviation="2"/>
<feComposite in2="hardAlpha" operator="arithmetic" k2="-1" k3="1"/>
<feColorMatrix type="matrix" values="0 0 0 0 1 0 0 0 0 1 0 0 0 0 1 0 0 0 0.4 0"/>
<feBlend mode="normal" in2="effect1_innerShadow" result="effect2_innerShadow"/>
</filter>
<clipPath id="clip0">
<rect width="163" height="264" fill="white"/>
</clipPath>
</defs>
</svg>
