<svg width="163" height="264" viewBox="0 0 163 264" fill="none" xmlns="http://www.w3.org/2000/svg">
<g clip-path="url(#clip0)">
<path d="M0.648438 15.3526C53.1574 -1.70868 109.719 -1.70868 162.229 15.3526L81.4384 264L0.648438 15.3526Z" fill="#FA441C"/>
<path d="M12.2178 50.9635C57.2068 36.3455 105.669 36.3455 150.658 50.9635L81.4378 263.999L12.2178 50.9635Z" fill="#81C747"/>
<g filter="url(#filter0_f)">
<path d="M115.975 13.6158C110.504 12.8638 105.459 16.6898 104.707 22.1612C103.955 27.6326 107.781 32.6776 113.253 33.4295C118.724 34.1815 123.769 30.3556 124.521 24.8841C125.273 19.4127 121.447 14.3677 115.975 13.6158Z" fill="white"/>
</g>
<path d="M115.975 13.6167C110.504 12.8648 105.459 16.6907 104.707 22.1622C103.955 27.6336 107.781 32.6786 113.252 33.4305C118.724 34.1824 123.769 30.3565 124.521 24.8851C125.273 19.4137 121.447 14.3687 115.975 13.6167Z" fill="white"/>
<g filter="url(#filter1_ii)">
<path d="M47.9839 13.4936C42.5099 14.2259 38.6658 19.2571 39.3981 24.7312C40.1303 30.2053 45.1616 34.0493 50.6356 33.3171C56.1097 32.5848 59.9538 27.5536 59.2215 22.0795C58.4893 16.6054 53.458 12.7614 47.9839 13.4936Z" fill="#ED4721"/>
</g>
<path d="M79.0002 183.387L76.5922 184.021V188.195L79.0002 188.846V192.66L66.0982 188.467V183.836L79.0002 179.59V183.387ZM73.7442 184.741L71.6352 185.295C71.1662 185.424 70.5602 185.581 69.8152 185.77C69.0712 185.951 68.5382 186.071 68.2162 186.13C68.5152 186.183 69.0072 186.288 69.6922 186.446C70.3782 186.599 71.7292 186.941 73.7442 187.475V184.741ZM79.1762 173.859C79.1762 175.488 78.7362 176.725 77.8572 177.568C76.9792 178.406 75.7162 178.826 74.0692 178.826C72.4172 178.826 71.1372 178.371 70.2292 177.464C69.3202 176.556 68.8662 175.264 68.8662 173.588C68.8662 172.434 69.1182 171.347 69.6222 170.327L72.1622 171.338C71.9802 171.754 71.8372 172.138 71.7312 172.489C71.6202 172.841 71.5642 173.207 71.5642 173.588C71.5642 174.145 71.7812 174.575 72.2152 174.88C72.6482 175.185 73.2612 175.337 74.0522 175.337C75.6462 175.337 76.4422 174.748 76.4422 173.57C76.4422 172.562 76.1492 171.596 75.5632 170.67H78.2972C78.8832 171.555 79.1762 172.618 79.1762 173.859ZM79.1762 164.157C79.1762 165.786 78.7362 167.022 77.8572 167.866C76.9792 168.704 75.7162 169.122 74.0692 169.122C72.4172 169.122 71.1372 168.668 70.2292 167.76C69.3202 166.853 68.8662 165.561 68.8662 163.885C68.8662 162.73 69.1182 161.644 69.6222 160.624L72.1622 161.635C71.9802 162.051 71.8372 162.435 71.7312 162.786C71.6202 163.138 71.5642 163.504 71.5642 163.885C71.5642 164.441 71.7812 164.871 72.2152 165.176C72.6482 165.48 73.2612 165.633 74.0522 165.633C75.6462 165.633 76.4422 165.045 76.4422 163.867C76.4422 162.858 76.1492 161.893 75.5632 160.967H78.2972C78.8832 161.852 79.1762 162.915 79.1762 164.157ZM79.1762 154.182C79.1762 155.84 78.7362 157.129 77.8572 158.049C76.9732 158.963 75.7162 159.42 74.0872 159.42C72.4052 159.42 71.1162 158.995 70.2202 158.146C69.3172 157.296 68.8662 156.082 68.8662 154.507C68.8662 153.007 69.2592 151.85 70.0442 151.035C70.8232 150.215 71.9482 149.805 73.4192 149.805H74.9482V155.948C75.5052 155.925 75.9412 155.723 76.2582 155.342C76.5742 154.955 76.7322 154.431 76.7322 153.769C76.7322 153.165 76.6772 152.611 76.5652 152.107C76.4482 151.598 76.2522 151.047 75.9772 150.454H78.4462C78.7222 150.993 78.9122 151.55 79.0182 152.124C79.1232 152.698 79.1762 153.385 79.1762 154.182ZM71.2042 154.383C71.2042 154.787 71.3332 155.127 71.5912 155.402C71.8432 155.672 72.2412 155.831 72.7862 155.878V152.924C72.3062 152.937 71.9222 153.074 71.6352 153.338C71.3482 153.596 71.2042 153.943 71.2042 154.383ZM75.9412 140.172C77.0082 140.172 77.8132 140.535 78.3582 141.262C78.9032 141.988 79.1762 143.031 79.1762 144.391C79.1762 145.129 79.1352 145.771 79.0532 146.314C78.9772 146.859 78.8332 147.416 78.6222 147.984H75.8712C76.1052 147.451 76.2992 146.869 76.4512 146.236C76.6042 145.598 76.6802 145.029 76.6802 144.531C76.6802 143.787 76.5102 143.415 76.1702 143.415C75.9942 143.415 75.8392 143.521 75.7042 143.73C75.5632 143.937 75.2942 144.54 74.8962 145.542C74.5212 146.456 74.0962 147.095 73.6212 147.458C73.1412 147.821 72.5342 148.003 71.8022 148.003C70.8762 148.003 70.1552 147.645 69.6402 146.93C69.1242 146.215 68.8662 145.205 68.8662 143.898C68.8662 143.242 68.9392 142.627 69.0862 142.053C69.2272 141.473 69.4352 140.872 69.7102 140.251L71.9252 141.183C71.7202 141.64 71.5472 142.123 71.4062 142.633C71.2602 143.143 71.1872 143.559 71.1872 143.881C71.1872 144.443 71.3242 144.725 71.6002 144.725C71.7702 144.725 71.9162 144.628 72.0392 144.435C72.1562 144.235 72.3992 143.667 72.7692 142.73C73.0562 142.032 73.3372 141.514 73.6122 141.174C73.8882 140.828 74.2132 140.576 74.5882 140.418C74.9572 140.254 75.4082 140.172 75.9412 140.172ZM75.9412 130.574C77.0082 130.574 77.8132 130.937 78.3582 131.663C78.9032 132.39 79.1762 133.434 79.1762 134.793C79.1762 135.531 79.1352 136.173 79.0532 136.717C78.9772 137.262 78.8332 137.818 78.6222 138.387H75.8712C76.1052 137.854 76.2992 137.272 76.4512 136.639C76.6042 136 76.6802 135.432 76.6802 134.934C76.6802 134.189 76.5102 133.816 76.1702 133.816C75.9942 133.816 75.8392 133.923 75.7042 134.133C75.5632 134.339 75.2942 134.941 74.8962 135.943C74.5212 136.857 74.0962 137.496 73.6212 137.859C73.1412 138.223 72.5342 138.405 71.8022 138.405C70.8762 138.405 70.1552 138.048 69.6402 137.333C69.1242 136.618 68.8662 135.607 68.8662 134.301C68.8662 133.645 68.9392 133.028 69.0862 132.454C69.2272 131.874 69.4352 131.273 69.7102 130.652L71.9252 131.585C71.7202 132.042 71.5472 132.525 71.4062 133.035C71.2602 133.544 71.1872 133.961 71.1872 134.283C71.1872 134.846 71.3242 135.127 71.6002 135.127C71.7702 135.127 71.9162 135.03 72.0392 134.837C72.1562 134.638 72.3992 134.069 72.7692 133.132C73.0562 132.435 73.3372 131.916 73.6122 131.576C73.8882 131.229 74.2132 130.979 74.5882 130.82C74.9572 130.656 75.4082 130.574 75.9412 130.574ZM73.9992 119.157C75.6282 119.157 76.8992 119.597 77.8132 120.476C78.7222 121.349 79.1762 122.572 79.1762 124.148C79.1762 125.66 78.7102 126.865 77.7782 127.762C76.8472 128.652 75.5872 129.098 73.9992 129.098C72.3762 129.098 71.1162 128.661 70.2202 127.788C69.3172 126.909 68.8662 125.678 68.8662 124.096C68.8662 123.117 69.0742 122.254 69.4902 121.504C69.9062 120.754 70.5042 120.176 71.2832 119.771C72.0572 119.361 72.9622 119.157 73.9992 119.157ZM73.9992 125.607C74.8542 125.607 75.5082 125.494 75.9592 125.266C76.4042 125.037 76.6272 124.653 76.6272 124.114C76.6272 123.581 76.4042 123.206 75.9592 122.989C75.5082 122.767 74.8542 122.655 73.9992 122.655C73.1492 122.655 72.5082 122.767 72.0742 122.989C71.6412 123.212 71.4242 123.592 71.4242 124.132C71.4242 124.659 71.6412 125.037 72.0742 125.266C72.5022 125.494 73.1442 125.607 73.9992 125.607ZM68.8662 111.176C68.8662 110.877 68.8902 110.594 68.9372 110.324L68.9722 110.131L72.2152 110.439C72.1452 110.72 72.1092 111.109 72.1092 111.607C72.1092 112.357 72.2822 112.902 72.6282 113.242C72.9682 113.582 73.4602 113.752 74.1042 113.752H79.0002V117.189H69.0422V114.631L70.6332 114.094V113.928C70.1052 113.641 69.6812 113.242 69.3582 112.732C69.0302 112.217 68.8662 111.697 68.8662 111.176ZM79.0002 105.279V108.715H69.0422V105.279H79.0002ZM66.5632 108.803C66.0482 108.803 65.6642 108.659 65.4122 108.372C65.1602 108.085 65.0342 107.623 65.0342 106.984C65.0342 106.346 65.1632 105.88 65.4212 105.587C65.6792 105.294 66.0602 105.146 66.5632 105.146C67.5712 105.146 68.0752 105.76 68.0752 106.984C68.0752 108.197 67.5712 108.803 66.5632 108.803ZM79.1762 98.0715C79.1762 99.7295 78.7362 101.02 77.8572 101.939C76.9732 102.854 75.7162 103.311 74.0872 103.311C72.4052 103.311 71.1162 102.886 70.2202 102.036C69.3172 101.187 68.8662 99.9735 68.8662 98.3965C68.8662 96.8965 69.2592 95.7395 70.0442 94.9255C70.8232 94.1045 71.9482 93.6945 73.4192 93.6945H74.9482V99.8385C75.5052 99.8145 75.9412 99.6125 76.2582 99.2315C76.5742 98.8455 76.7322 98.3205 76.7322 97.6585C76.7322 97.0555 76.6772 96.5015 76.5652 95.9975C76.4482 95.4875 76.2522 94.9375 75.9772 94.3455H78.4462C78.7222 94.8845 78.9122 95.4405 79.0182 96.0155C79.1232 96.5895 79.1762 97.2745 79.1762 98.0715ZM71.2042 98.2735C71.2042 98.6785 71.3332 99.0185 71.5912 99.2935C71.8432 99.5635 72.2412 99.7215 72.7862 99.7685V96.8145C72.3062 96.8265 71.9222 96.9645 71.6352 97.2285C71.3482 97.4855 71.2042 97.8345 71.2042 98.2735ZM75.9412 84.0625C77.0082 84.0625 77.8132 84.4255 78.3582 85.1515C78.9032 85.8785 79.1762 86.9215 79.1762 88.2805C79.1762 89.0195 79.1352 89.6605 79.0532 90.2055C78.9772 90.7505 78.8332 91.3075 78.6222 91.8755H75.8712C76.1052 91.3425 76.2992 90.7595 76.4512 90.1265C76.6042 89.4875 76.6802 88.9195 76.6802 88.4215C76.6802 87.6775 76.5102 87.3055 76.1702 87.3055C75.9942 87.3055 75.8392 87.4105 75.7042 87.6215C75.5632 87.8265 75.2942 88.4305 74.8962 89.4325C74.5212 90.3465 74.0962 90.9845 73.6212 91.3485C73.1412 91.7115 72.5342 91.8935 71.8022 91.8935C70.8762 91.8935 70.1552 91.5355 69.6402 90.8205C69.1242 90.1055 68.8662 89.0955 68.8662 87.7885C68.8662 87.1325 68.9392 86.5175 69.0862 85.9425C69.2272 85.3625 69.4352 84.7625 69.7102 84.1415L71.9252 85.0725C71.7202 85.5295 71.5472 86.0135 71.4062 86.5225C71.2602 87.0325 71.1872 87.4485 71.1872 87.7715C71.1872 88.3335 71.3242 88.6145 71.6002 88.6145C71.7702 88.6145 71.9162 88.5185 72.0392 88.3245C72.1562 88.1255 72.3992 87.5575 72.7692 86.6195C73.0562 85.9225 73.3372 85.4035 73.6122 85.0635C73.8882 84.7185 74.2132 84.4665 74.5882 84.3085C74.9572 84.1445 75.4082 84.0625 75.9412 84.0625ZM97.8852 159.464C96.1862 159.464 94.6532 159.256 93.2882 158.84C91.9232 158.424 90.7572 157.812 89.7902 157.003V154.137C90.8152 154.875 92.0222 155.443 93.4112 155.842C94.8002 156.241 96.2852 156.439 97.8672 156.439C99.3962 156.439 100.85 156.246 102.227 155.859C103.598 155.473 104.805 154.905 105.848 154.155V157.003C104.922 157.806 103.785 158.418 102.437 158.84C101.09 159.256 99.5722 159.464 97.8852 159.464ZM97.8322 149.743V153.012H95.4772V149.743H92.2512V147.379H95.4772V144.109H97.8322V147.379H101.005V149.743H97.8322ZM103 133.589V142.913H100.715L97.5422 139.775C96.6042 138.879 95.9662 138.294 95.6262 138.019C95.2802 137.743 94.9842 137.553 94.7382 137.447C94.4922 137.336 94.2342 137.28 93.9652 137.28C93.6312 137.28 93.3672 137.389 93.1742 137.605C92.9802 137.822 92.8842 138.126 92.8842 138.52C92.8842 138.924 93.0012 139.333 93.2352 139.749C93.4642 140.159 93.8042 140.625 94.2552 141.146L92.0222 143.055C91.4312 142.393 91.0092 141.836 90.7572 141.385C90.4992 140.934 90.3032 140.444 90.1682 139.917C90.0332 139.384 89.9662 138.786 89.9662 138.124C89.9662 137.292 90.1122 136.551 90.4052 135.9C90.6982 135.244 91.1172 134.736 91.6622 134.38C92.2012 134.017 92.8082 133.835 93.4812 133.835C93.9852 133.835 94.4512 133.898 94.8792 134.027C95.3072 134.15 95.7292 134.344 96.1452 134.607C96.5552 134.871 96.9882 135.224 97.4452 135.663C97.9022 136.097 98.7702 137.025 100.047 138.449H100.135V133.589H103ZM96.5932 122.989C98.8662 122.989 100.533 123.369 101.594 124.132C102.648 124.894 103.176 126.06 103.176 127.63C103.176 129.165 102.625 130.322 101.523 131.102C100.416 131.881 98.7722 132.271 96.5932 132.271C94.3082 132.271 92.6322 131.89 91.5652 131.128C90.4992 130.366 89.9662 129.2 89.9662 127.63C89.9662 126.101 90.5222 124.946 91.6362 124.167C92.7432 123.382 94.3962 122.989 96.5932 122.989ZM96.5932 128.816C98.0462 128.816 99.0452 128.726 99.5902 128.544C100.135 128.362 100.407 128.058 100.407 127.63C100.407 127.196 100.126 126.891 99.5632 126.715C99.0012 126.534 98.0112 126.443 96.5932 126.443C95.1692 126.443 94.1732 126.534 93.6042 126.715C93.0302 126.896 92.7432 127.201 92.7432 127.63C92.7432 128.058 93.0192 128.362 93.5692 128.544C94.1202 128.726 95.1282 128.816 96.5932 128.816ZM97.8852 116.538C99.5432 116.538 101.052 116.749 102.411 117.171C103.765 117.587 104.91 118.199 105.848 119.008V121.855C104.84 121.117 103.645 120.552 102.262 120.159C100.873 119.767 99.4082 119.57 97.8672 119.57C96.3142 119.57 94.8472 119.764 93.4642 120.15C92.0752 120.537 90.8512 121.11 89.7902 121.872V119.008C90.7632 118.193 91.9402 117.577 93.3232 117.161C94.7062 116.745 96.2272 116.538 97.8852 116.538Z" fill="white"/>
</g>
<defs>
<filter id="filter0_f" x="87.3457" y="-3.74609" width="54.5367" height="54.5367" filterUnits="userSpaceOnUse" color-interpolation-filters="sRGB">
<feFlood flood-opacity="0" result="BackgroundImageFix"/>
<feBlend mode="normal" in="SourceGraphic" in2="BackgroundImageFix" result="shape"/>
<feGaussianBlur stdDeviation="8" result="effect1_foregroundBlur"/>
</filter>
<filter id="filter1_ii" x="38.0723" y="11.168" width="22.4751" height="24.4751" filterUnits="userSpaceOnUse" color-interpolation-filters="sRGB">
<feFlood flood-opacity="0" result="BackgroundImageFix"/>
<feBlend mode="normal" in="SourceGraphic" in2="BackgroundImageFix" result="shape"/>
<feColorMatrix in="SourceAlpha" type="matrix" values="0 0 0 0 0 0 0 0 0 0 0 0 0 0 0 0 0 0 127 0" result="hardAlpha"/>
<feOffset dy="1"/>
<feGaussianBlur stdDeviation="2"/>
<feComposite in2="hardAlpha" operator="arithmetic" k2="-1" k3="1"/>
<feColorMatrix type="matrix" values="0 0 0 0 0 0 0 0 0 0 0 0 0 0 0 0 0 0 0.4 0"/>
<feBlend mode="normal" in2="shape" result="effect1_innerShadow"/>
<feColorMatrix in="SourceAlpha" type="matrix" values="0 0 0 0 0 0 0 0 0 0 0 0 0 0 0 0 0 0 127 0" result="hardAlpha"/>
<feOffset dy="-1"/>
<feGaussianBlur stdDeviation="2"/>
<feComposite in2="hardAlpha" operator="arithmetic" k2="-1" k3="1"/>
<feColorMatrix type="matrix" values="0 0 0 0 1 0 0 0 0 1 0 0 0 0 1 0 0 0 0.4 0"/>
<feBlend mode="normal" in2="effect1_innerShadow" result="effect2_innerShadow"/>
</filter>
<clipPath id="clip0">
<rect width="163" height="264" fill="white"/>
</clipPath>
</defs>
</svg>
