<svg width="163" height="264" viewBox="0 0 163 264" fill="none" xmlns="http://www.w3.org/2000/svg">
<g clip-path="url(#clip0)">
<path d="M0.648438 15.3526C53.1574 -1.70868 109.719 -1.70868 162.229 15.3526L81.4384 264L0.648438 15.3526Z" fill="#FA441C"/>
<path d="M12.2178 50.9635C57.2068 36.3455 105.669 36.3455 150.658 50.9635L81.4378 263.999L12.2178 50.9635Z" fill="#D94449"/>
<g filter="url(#filter0_f)">
<path d="M115.976 13.6158C110.504 12.8638 105.459 16.6898 104.707 22.1612C103.955 27.6326 107.781 32.6776 113.253 33.4295C118.724 34.1815 123.769 30.3556 124.521 24.8841C125.273 19.4127 121.447 14.3677 115.976 13.6158Z" fill="white"/>
</g>
<path d="M115.975 13.6167C110.504 12.8648 105.459 16.6907 104.707 22.1622C103.955 27.6336 107.781 32.6786 113.252 33.4305C118.724 34.1824 123.769 30.3565 124.521 24.8851C125.273 19.4137 121.447 14.3687 115.975 13.6167Z" fill="white"/>
<g filter="url(#filter1_ii)">
<path d="M47.9839 13.4936C42.5099 14.2259 38.6658 19.2571 39.3981 24.7312C40.1303 30.2053 45.1616 34.0493 50.6356 33.3171C56.1097 32.5848 59.9538 27.5536 59.2215 22.0795C58.4893 16.6054 53.458 12.7614 47.9839 13.4936Z" fill="#ED4721"/>
</g>
<path d="M75.1502 193.305V188.822C75.1502 187.076 75.4112 185.781 75.9332 184.937C76.4482 184.088 77.2542 183.663 78.3502 183.663C79.0702 183.663 79.6862 183.848 80.1952 184.217C80.7052 184.586 81.0332 185.072 81.1802 185.676H81.2682C81.4792 184.879 81.8302 184.302 82.3222 183.944C82.8142 183.587 83.4532 183.408 84.2382 183.408C85.4042 183.408 86.3242 183.848 86.9982 184.727C87.6662 185.6 88.0002 186.792 88.0002 188.304V193.305H75.1502ZM80.0812 189.833V188.787C80.0812 188.289 79.9792 187.905 79.7732 187.636C79.5682 187.36 79.2642 187.223 78.8592 187.223C78.1392 187.223 77.7782 187.768 77.7782 188.857V189.833H80.0812ZM82.6212 189.833H85.3192V188.611C85.3192 187.527 84.8622 186.985 83.9482 186.985C83.5212 186.985 83.1922 187.132 82.9642 187.425C82.7352 187.712 82.6212 188.131 82.6212 188.682V189.833ZM88.0002 174.883L86.6822 175.542V175.612C87.2562 176.075 87.6482 176.547 87.8592 177.027C88.0702 177.508 88.1762 178.129 88.1762 178.891C88.1762 179.828 87.8952 180.566 87.3322 181.105C86.7702 181.645 85.9792 181.914 84.9592 181.914C83.8982 181.914 83.1102 181.545 82.5952 180.807C82.0732 180.068 81.7802 178.999 81.7162 177.599L81.6632 175.937H81.5222C80.7022 175.937 80.2922 176.342 80.2922 177.15C80.2922 177.877 80.5382 178.8 81.0302 179.919L78.7632 180.912C78.1652 179.752 77.8662 178.287 77.8662 176.518C77.8662 175.24 78.1832 174.253 78.8152 173.556C79.4482 172.853 80.3332 172.501 81.4702 172.501H88.0002V174.883ZM85.7502 177.432C85.7502 177.016 85.6182 176.661 85.3542 176.368C85.0912 176.069 84.7482 175.92 84.3262 175.92H83.5532L83.5882 176.711C83.6292 177.842 84.0452 178.407 84.8362 178.407C85.4452 178.407 85.7502 178.082 85.7502 177.432ZM88.1762 167.069C88.1762 167.778 87.9742 168.399 87.5692 168.933C87.1652 169.46 86.5702 169.87 85.7852 170.163C85.0002 170.45 84.0832 170.594 83.0342 170.594C81.4172 170.594 80.1512 170.269 79.2372 169.618C78.3232 168.968 77.8662 168.074 77.8662 166.937C77.8662 166.381 77.9782 165.895 78.2002 165.479C78.4232 165.057 78.7982 164.673 79.3252 164.327V164.257C78.5462 164.368 77.7672 164.424 76.9872 164.424H74.3242V160.961H88.0002V163.554L86.7432 164.292V164.424C87.6982 165.016 88.1762 165.897 88.1762 167.069ZM85.4602 165.663C85.4602 165.112 85.2872 164.726 84.9412 164.503C84.5962 164.274 84.0632 164.151 83.3422 164.134H83.0692C82.1902 164.134 81.5662 164.26 81.1972 164.512C80.8222 164.764 80.6352 165.159 80.6352 165.698C80.6352 166.149 80.8492 166.501 81.2762 166.753C81.6982 166.999 82.3022 167.122 83.0872 167.122C83.8602 167.122 84.4492 166.996 84.8542 166.744C85.2582 166.492 85.4602 166.132 85.4602 165.663ZM88.0002 153.701H75.1502V150.229H85.1962V145.281H88.0002V153.701ZM88.0002 136.334L86.7612 136.765V136.967C87.2182 137.254 87.5692 137.655 87.8152 138.171C88.0562 138.681 88.1762 139.281 88.1762 139.973C88.1762 141.068 87.8592 141.921 87.2272 142.53C86.5882 143.14 85.6882 143.444 84.5282 143.444H78.0422V140.008H83.4822C84.1332 140.008 84.6252 139.917 84.9592 139.735C85.2932 139.548 85.4602 139.243 85.4602 138.821C85.4602 138.229 85.2292 137.808 84.7662 137.556C84.2972 137.304 83.5092 137.178 82.4012 137.178H78.0422V133.741H88.0002V136.334ZM88.1762 126.833C88.1762 128.462 87.7362 129.698 86.8572 130.542C85.9792 131.38 84.7162 131.799 83.0692 131.799C81.4172 131.799 80.1372 131.345 79.2292 130.437C78.3202 129.528 77.8662 128.236 77.8662 126.561C77.8662 125.406 78.1182 124.319 78.6222 123.3L81.1622 124.311C80.9802 124.727 80.8372 125.11 80.7312 125.462C80.6202 125.813 80.5642 126.18 80.5642 126.561C80.5642 127.117 80.7812 127.548 81.2152 127.853C81.6482 128.157 82.2612 128.31 83.0522 128.31C84.6462 128.31 85.4422 127.721 85.4422 126.543C85.4422 125.535 85.1492 124.568 84.5632 123.643H87.2972C87.8832 124.527 88.1762 125.591 88.1762 126.833ZM82.4012 118.334C81.7392 117.918 81.2242 117.563 80.8542 117.27L78.0422 115.038V111.206L82.2782 114.66L88.0002 110.986V114.915L84.4322 117.095L85.2842 118.211H88.0002V121.665H74.3242V118.211H79.7032C80.6232 118.211 81.5222 118.275 82.4012 118.404V118.334ZM82.8852 110.336C81.1862 110.336 79.6532 110.128 78.2882 109.712C76.9232 109.296 75.7572 108.684 74.7902 107.875V105.01C75.8152 105.748 77.0222 106.316 78.4112 106.715C79.8002 107.113 81.2852 107.312 82.8672 107.312C84.3962 107.312 85.8502 107.119 87.2272 106.732C88.5982 106.346 89.8052 105.777 90.8482 105.027V107.875C89.9222 108.678 88.7852 109.29 87.4382 109.712C86.0902 110.128 84.5722 110.336 82.8852 110.336ZM82.8322 100.615V103.885H80.4772V100.615H77.2512V98.251H80.4772V94.981H82.8322V98.251H86.0052V100.615H82.8322ZM81.5932 84.408C83.8662 84.408 85.5332 84.789 86.5942 85.551C87.6482 86.312 88.1762 87.479 88.1762 89.049C88.1762 90.584 87.6252 91.741 86.5232 92.52C85.4162 93.3 83.7722 93.689 81.5932 93.689C79.3082 93.689 77.6322 93.309 76.5652 92.547C75.4992 91.785 74.9662 90.619 74.9662 89.049C74.9662 87.52 75.5222 86.365 76.6362 85.586C77.7432 84.801 79.3962 84.408 81.5932 84.408ZM81.5932 90.235C83.0462 90.235 84.0452 90.145 84.5902 89.963C85.1352 89.781 85.4072 89.477 85.4072 89.049C85.4072 88.615 85.1262 88.311 84.5632 88.135C84.0012 87.953 83.0112 87.862 81.5932 87.862C80.1692 87.862 79.1732 87.953 78.6042 88.135C78.0302 88.316 77.7432 88.621 77.7432 89.049C77.7432 89.477 78.0192 89.781 78.5692 89.963C79.1202 90.145 80.1282 90.235 81.5932 90.235ZM82.8852 77.957C84.5432 77.957 86.0522 78.168 87.4112 78.59C88.7652 79.006 89.9102 79.618 90.8482 80.427V83.274C89.8402 82.536 88.6452 81.971 87.2622 81.578C85.8732 81.186 84.4082 80.989 82.8672 80.989C81.3142 80.989 79.8472 81.183 78.4642 81.569C77.0752 81.956 75.8512 82.53 74.7902 83.292V80.427C75.7632 79.612 76.9402 78.997 78.3232 78.581C79.7062 78.165 81.2272 77.957 82.8852 77.957Z" fill="white"/>
</g>
<defs>
<filter id="filter0_f" x="87.3457" y="-3.74609" width="54.5367" height="54.5367" filterUnits="userSpaceOnUse" color-interpolation-filters="sRGB">
<feFlood flood-opacity="0" result="BackgroundImageFix"/>
<feBlend mode="normal" in="SourceGraphic" in2="BackgroundImageFix" result="shape"/>
<feGaussianBlur stdDeviation="8" result="effect1_foregroundBlur"/>
</filter>
<filter id="filter1_ii" x="38.0723" y="11.168" width="22.4751" height="24.4751" filterUnits="userSpaceOnUse" color-interpolation-filters="sRGB">
<feFlood flood-opacity="0" result="BackgroundImageFix"/>
<feBlend mode="normal" in="SourceGraphic" in2="BackgroundImageFix" result="shape"/>
<feColorMatrix in="SourceAlpha" type="matrix" values="0 0 0 0 0 0 0 0 0 0 0 0 0 0 0 0 0 0 127 0" result="hardAlpha"/>
<feOffset dy="1"/>
<feGaussianBlur stdDeviation="2"/>
<feComposite in2="hardAlpha" operator="arithmetic" k2="-1" k3="1"/>
<feColorMatrix type="matrix" values="0 0 0 0 0 0 0 0 0 0 0 0 0 0 0 0 0 0 0.4 0"/>
<feBlend mode="normal" in2="shape" result="effect1_innerShadow"/>
<feColorMatrix in="SourceAlpha" type="matrix" values="0 0 0 0 0 0 0 0 0 0 0 0 0 0 0 0 0 0 127 0" result="hardAlpha"/>
<feOffset dy="-1"/>
<feGaussianBlur stdDeviation="2"/>
<feComposite in2="hardAlpha" operator="arithmetic" k2="-1" k3="1"/>
<feColorMatrix type="matrix" values="0 0 0 0 1 0 0 0 0 1 0 0 0 0 1 0 0 0 0.4 0"/>
<feBlend mode="normal" in2="effect1_innerShadow" result="effect2_innerShadow"/>
</filter>
<clipPath id="clip0">
<rect width="163" height="264" fill="white"/>
</clipPath>
</defs>
</svg>
