<svg width="163" height="264" viewBox="0 0 163 264" fill="none" xmlns="http://www.w3.org/2000/svg">
<g clip-path="url(#clip0)">
<path d="M0.648438 15.3526C53.1574 -1.70868 109.719 -1.70868 162.229 15.3526L81.4384 264L0.648438 15.3526Z" fill="#FA441C"/>
<path d="M12.2178 50.9635C57.2068 36.3455 105.669 36.3455 150.658 50.9635L81.4378 263.999L12.2178 50.9635Z" fill="#E37334"/>
<path d="M64.1504 143.272L64.1504 138.79C64.1504 137.044 64.4111 135.749 64.9326 134.905C65.4482 134.056 66.2539 133.631 67.3496 133.631C68.0703 133.631 68.6855 133.815 69.1953 134.185C69.7051 134.554 70.0332 135.04 70.1797 135.644L70.2676 135.644C70.4785 134.847 70.8301 134.27 71.3223 133.912C71.8145 133.555 72.4531 133.376 73.2383 133.376C74.4043 133.376 75.3242 133.815 75.998 134.694C76.666 135.567 77 136.76 77 138.271L77 143.272L64.1504 143.272ZM69.0811 139.801L69.0811 138.755C69.0811 138.257 68.9785 137.873 68.7734 137.604C68.5684 137.328 68.2637 137.19 67.8594 137.19C67.1387 137.19 66.7783 137.735 66.7783 138.825L66.7783 139.801L69.0811 139.801ZM71.6211 139.801L74.3193 139.801L74.3193 138.579C74.3193 137.495 73.8623 136.953 72.9482 136.953C72.5205 136.953 72.1924 137.1 71.9639 137.393C71.7354 137.68 71.6211 138.099 71.6211 138.649L71.6211 139.801Z" fill="#333333"/>
<path d="M71.999 121.836C73.6279 121.836 74.8994 122.275 75.8135 123.154C76.7217 124.027 77.1758 125.252 77.1758 126.828C77.1758 128.34 76.71 129.544 75.7783 130.44C74.8467 131.331 73.5869 131.776 71.999 131.776C70.376 131.776 69.1162 131.34 68.2197 130.467C67.3174 129.588 66.8662 128.357 66.8662 126.775C66.8662 125.797 67.0742 124.933 67.4902 124.183C67.9062 123.433 68.5039 122.855 69.2832 122.451C70.0566 122.041 70.9619 121.836 71.999 121.836ZM71.999 128.287C72.8545 128.287 73.5078 128.173 73.959 127.944C74.4043 127.716 74.627 127.332 74.627 126.793C74.627 126.26 74.4043 125.885 73.959 125.668C73.5078 125.445 72.8545 125.334 71.999 125.334C71.1494 125.334 70.5078 125.445 70.0742 125.668C69.6406 125.891 69.4238 126.271 69.4238 126.811C69.4238 127.338 69.6406 127.716 70.0742 127.944C70.502 128.173 71.1436 128.287 71.999 128.287Z" fill="#333333"/>
<path d="M77 113.583L71.5684 113.583C70.9062 113.583 70.4082 113.68 70.0742 113.873C69.7344 114.061 69.5645 114.365 69.5645 114.787C69.5645 115.367 69.7959 115.786 70.2588 116.044C70.7217 116.302 71.5156 116.431 72.6406 116.431L77 116.431L77 119.867L67.042 119.867L67.042 117.274L68.2725 116.844L68.2725 116.642C67.8037 116.349 67.4521 115.944 67.2178 115.429C66.9834 114.907 66.8662 114.31 66.8662 113.636C66.8662 112.534 67.1855 111.679 67.8242 111.069C68.4629 110.454 69.3623 110.146 70.5225 110.146L77 110.146L77 113.583Z" fill="#333333"/>
<path d="M77 100.716L75.7607 101.146L75.7607 101.349C76.2178 101.636 76.5693 102.037 76.8154 102.553C77.0557 103.063 77.1758 103.663 77.1758 104.354C77.1758 105.45 76.8594 106.303 76.2266 106.912C75.5879 107.521 74.6885 107.826 73.5283 107.826L67.042 107.826L67.042 104.39L72.4824 104.39C73.1328 104.39 73.625 104.299 73.959 104.117C74.293 103.93 74.46 103.625 74.46 103.203C74.46 102.611 74.2285 102.189 73.7656 101.938C73.2969 101.686 72.5088 101.56 71.4014 101.56L67.042 101.56L67.042 98.123L77 98.123L77 100.716Z" fill="#333333"/>
<path d="M73.9414 88.0596C75.0078 88.0596 75.8135 88.4229 76.3584 89.1494C76.9033 89.876 77.1758 90.9189 77.1758 92.2783C77.1758 93.0166 77.1348 93.6582 77.0527 94.2031C76.9766 94.748 76.833 95.3047 76.6221 95.873L73.8711 95.873C74.1055 95.3398 74.2988 94.7568 74.4512 94.124C74.6035 93.4854 74.6797 92.917 74.6797 92.4189C74.6797 91.6748 74.5098 91.3027 74.1699 91.3027C73.9941 91.3027 73.8389 91.4082 73.7041 91.6191C73.5635 91.8242 73.2939 92.4277 72.8955 93.4297C72.5205 94.3438 72.0957 94.9824 71.6211 95.3457C71.1406 95.709 70.5342 95.8906 69.8018 95.8906C68.876 95.8906 68.1553 95.5332 67.6396 94.8184C67.124 94.1035 66.8662 93.0928 66.8662 91.7861C66.8662 91.1299 66.9395 90.5147 67.0859 89.9404C67.2266 89.3604 67.4346 88.7598 67.71 88.1387L69.9248 89.0703C69.7197 89.5273 69.5469 90.0107 69.4062 90.5205C69.2598 91.0303 69.1865 91.4463 69.1865 91.7686C69.1865 92.3311 69.3242 92.6123 69.5996 92.6123C69.7695 92.6123 69.916 92.5156 70.0391 92.3223C70.1562 92.123 70.3994 91.5547 70.7686 90.6172C71.0557 89.9199 71.3369 89.4014 71.6123 89.0615C71.8877 88.7158 72.2129 88.4639 72.5879 88.3057C72.957 88.1416 73.4082 88.0596 73.9414 88.0596Z" fill="#333333"/>
<path d="M95.8848 132.189C94.1855 132.189 92.6533 131.981 91.2881 131.565C89.9228 131.149 88.7568 130.537 87.79 129.729L87.79 126.863C88.8154 127.602 90.0225 128.17 91.4111 128.568C92.7998 128.967 94.2852 129.166 95.8672 129.166C97.3965 129.166 98.8496 128.973 100.227 128.586C101.598 128.199 102.805 127.631 103.848 126.881L103.848 129.729C102.922 130.531 101.785 131.144 100.437 131.565C99.0898 131.981 97.5723 132.189 95.8848 132.189Z" fill="#333333"/>
<path d="M95.832 122.469L95.832 125.738L93.4766 125.738L93.4766 122.469L90.251 122.469L90.251 120.104L93.4766 120.104L93.4766 116.835L95.832 116.835L95.832 120.104L99.0049 120.104L99.0049 122.469L95.832 122.469Z" fill="#333333"/>
<path d="M90.9365 106.745C91.7334 106.745 92.4189 106.988 92.9932 107.475C93.5615 107.961 93.9746 108.664 94.2324 109.584L94.2852 109.584C94.5547 107.439 95.5684 106.367 97.3262 106.367C98.5215 106.367 99.4619 106.842 100.147 107.791C100.833 108.734 101.176 110.047 101.176 111.729C101.176 112.42 101.126 113.062 101.026 113.653C100.927 114.239 100.745 114.875 100.481 115.561L97.5986 115.561C97.8857 114.998 98.0996 114.427 98.2402 113.847C98.375 113.261 98.4424 112.722 98.4424 112.229C98.4424 111.468 98.3369 110.914 98.126 110.568C97.9092 110.217 97.5723 110.041 97.1152 110.041C96.7637 110.041 96.4941 110.132 96.3066 110.313C96.1133 110.495 95.9697 110.788 95.876 111.192C95.7764 111.597 95.7266 112.124 95.7266 112.774L95.7266 113.565L93.1162 113.565L93.1162 112.757C93.1162 110.993 92.665 110.111 91.7627 110.111C91.4228 110.111 91.1709 110.243 91.0068 110.507C90.8428 110.765 90.7607 111.113 90.7607 111.553C90.7607 112.373 91.0361 113.223 91.5869 114.102L89.2666 115.543C88.7978 114.863 88.4639 114.169 88.2646 113.46C88.0654 112.745 87.9658 111.928 87.9658 111.008C87.9658 109.678 88.2295 108.635 88.7568 107.879C89.2842 107.123 90.0107 106.745 90.9365 106.745Z" fill="#333333"/>
<path d="M95.8848 99.8105C97.543 99.8105 99.0518 100.021 100.411 100.443C101.765 100.859 102.91 101.472 103.848 102.28L103.848 105.128C102.84 104.39 101.645 103.824 100.262 103.432C98.873 103.039 97.4082 102.843 95.8672 102.843C94.3144 102.843 92.8467 103.036 91.4639 103.423C90.0752 103.81 88.8506 104.384 87.79 105.146L87.79 102.28C88.7627 101.466 89.9404 100.851 91.3232 100.435C92.7061 100.019 94.2266 99.8105 95.8848 99.8105Z" fill="#333333"/>
<g filter="url(#filter0_f)">
<path d="M115.976 13.6158C110.504 12.8638 105.459 16.6898 104.707 22.1612C103.955 27.6326 107.781 32.6776 113.253 33.4295C118.724 34.1815 123.769 30.3556 124.521 24.8841C125.273 19.4127 121.447 14.3677 115.976 13.6158Z" fill="white"/>
</g>
<path d="M115.975 13.6167C110.504 12.8648 105.459 16.6907 104.707 22.1622C103.955 27.6336 107.781 32.6786 113.252 33.4305C118.724 34.1824 123.769 30.3565 124.521 24.8851C125.273 19.4137 121.447 14.3687 115.975 13.6167Z" fill="white"/>
<g filter="url(#filter1_ii)">
<g filter="url(#filter2_ii)">
<path d="M47.9839 13.4936C42.5099 14.2259 38.6658 19.2571 39.3981 24.7312C40.1303 30.2053 45.1616 34.0493 50.6356 33.3171C56.1097 32.5848 59.9538 27.5536 59.2215 22.0795C58.4893 16.6054 53.458 12.7614 47.9839 13.4936Z" fill="#ED4721"/>
</g>
</g>
</g>
<defs>
<filter id="filter0_f" x="87.3457" y="-3.74609" width="54.5367" height="54.5367" filterUnits="userSpaceOnUse" color-interpolation-filters="sRGB">
<feFlood flood-opacity="0" result="BackgroundImageFix"/>
<feBlend mode="normal" in="SourceGraphic" in2="BackgroundImageFix" result="shape"/>
<feGaussianBlur stdDeviation="8" result="effect1_foregroundBlur"/>
</filter>
<filter id="filter1_ii" x="38.0723" y="11.168" width="22.4751" height="24.4751" filterUnits="userSpaceOnUse" color-interpolation-filters="sRGB">
<feFlood flood-opacity="0" result="BackgroundImageFix"/>
<feBlend mode="normal" in="SourceGraphic" in2="BackgroundImageFix" result="shape"/>
<feColorMatrix in="SourceAlpha" type="matrix" values="0 0 0 0 0 0 0 0 0 0 0 0 0 0 0 0 0 0 127 0" result="hardAlpha"/>
<feOffset dy="1"/>
<feGaussianBlur stdDeviation="2"/>
<feComposite in2="hardAlpha" operator="arithmetic" k2="-1" k3="1"/>
<feColorMatrix type="matrix" values="0 0 0 0 0 0 0 0 0 0 0 0 0 0 0 0 0 0 0.4 0"/>
<feBlend mode="normal" in2="shape" result="effect1_innerShadow"/>
<feColorMatrix in="SourceAlpha" type="matrix" values="0 0 0 0 0 0 0 0 0 0 0 0 0 0 0 0 0 0 127 0" result="hardAlpha"/>
<feOffset dy="-1"/>
<feGaussianBlur stdDeviation="2"/>
<feComposite in2="hardAlpha" operator="arithmetic" k2="-1" k3="1"/>
<feColorMatrix type="matrix" values="0 0 0 0 1 0 0 0 0 1 0 0 0 0 1 0 0 0 0.4 0"/>
<feBlend mode="normal" in2="effect1_innerShadow" result="effect2_innerShadow"/>
</filter>
<filter id="filter2_ii" x="38.0723" y="12.168" width="22.4751" height="22.4751" filterUnits="userSpaceOnUse" color-interpolation-filters="sRGB">
<feFlood flood-opacity="0" result="BackgroundImageFix"/>
<feBlend mode="normal" in="SourceGraphic" in2="BackgroundImageFix" result="shape"/>
<feColorMatrix in="SourceAlpha" type="matrix" values="0 0 0 0 0 0 0 0 0 0 0 0 0 0 0 0 0 0 127 0" result="hardAlpha"/>
<feOffset dy="1"/>
<feComposite in2="hardAlpha" operator="arithmetic" k2="-1" k3="1"/>
<feColorMatrix type="matrix" values="0 0 0 0 0 0 0 0 0 0 0 0 0 0 0 0 0 0 0.4 0"/>
<feBlend mode="normal" in2="shape" result="effect1_innerShadow"/>
<feColorMatrix in="SourceAlpha" type="matrix" values="0 0 0 0 0 0 0 0 0 0 0 0 0 0 0 0 0 0 127 0" result="hardAlpha"/>
<feOffset dy="-1"/>
<feComposite in2="hardAlpha" operator="arithmetic" k2="-1" k3="1"/>
<feColorMatrix type="matrix" values="0 0 0 0 1 0 0 0 0 1 0 0 0 0 1 0 0 0 0.4 0"/>
<feBlend mode="normal" in2="effect1_innerShadow" result="effect2_innerShadow"/>
</filter>
<clipPath id="clip0">
<rect width="163" height="264" fill="white"/>
</clipPath>
</defs>
</svg>
