<svg width="163" height="264" viewBox="0 0 163 264" fill="none" xmlns="http://www.w3.org/2000/svg">
<g clip-path="url(#clip0)">
<path d="M0.648438 15.3526C53.1574 -1.70868 109.719 -1.70868 162.229 15.3526L81.4384 264L0.648438 15.3526Z" fill="#FA441C"/>
<path d="M12.2178 50.9635C57.2068 36.3455 105.669 36.3455 150.658 50.9635L81.4378 263.999L12.2178 50.9635Z" fill="#E37334"/>
<g filter="url(#filter0_f)">
<path d="M115.976 13.6158C110.504 12.8638 105.459 16.6898 104.707 22.1612C103.955 27.6326 107.781 32.6776 113.253 33.4295C118.724 34.1815 123.769 30.3556 124.521 24.8841C125.273 19.4127 121.447 14.3677 115.976 13.6158Z" fill="white"/>
</g>
<path d="M115.975 13.6167C110.504 12.8648 105.459 16.6907 104.707 22.1622C103.955 27.6336 107.781 32.6786 113.252 33.4305C118.724 34.1824 123.769 30.3565 124.521 24.8851C125.273 19.4137 121.447 14.3687 115.975 13.6167Z" fill="white"/>
<g filter="url(#filter1_ii)">
<path d="M47.9839 13.4936C42.5099 14.2259 38.6658 19.2571 39.3981 24.7312C40.1303 30.2053 45.1616 34.0493 50.6356 33.3171C56.1097 32.5848 59.9538 27.5536 59.2215 22.0795C58.4893 16.6054 53.458 12.7614 47.9839 13.4936Z" fill="#ED4721"/>
</g>
<path d="M63.4772 164.607V159.062H70.4022C70.9182 160.567 71.1762 162.223 71.1762 164.027C71.1762 166.008 70.6022 167.54 69.4532 168.624C68.3052 169.702 66.6672 170.241 64.5402 170.241C62.4662 170.241 60.8522 169.649 59.6972 168.466C58.5432 167.282 57.9662 165.624 57.9662 163.491C57.9662 162.683 58.0422 161.921 58.1942 161.206C58.3472 160.485 58.5402 159.858 58.7742 159.325L61.4992 160.424C61.0422 161.35 60.8132 162.366 60.8132 163.474C60.8132 164.487 61.1452 165.272 61.8072 165.829C62.4632 166.38 63.4032 166.655 64.6282 166.655C65.8292 166.655 66.7462 166.406 67.3792 165.908C68.0062 165.404 68.3192 164.681 68.3192 163.737C68.3192 163.222 68.2702 162.747 68.1702 162.313H66.1572V164.607H63.4772ZM65.9992 147.135C67.6282 147.135 68.8992 147.574 69.8132 148.453C70.7222 149.326 71.1762 150.551 71.1762 152.127C71.1762 153.639 70.7102 154.843 69.7782 155.739C68.8472 156.63 67.5872 157.075 65.9992 157.075C64.3762 157.075 63.1162 156.639 62.2202 155.766C61.3172 154.887 60.8662 153.656 60.8662 152.074C60.8662 151.096 61.0742 150.231 61.4902 149.481C61.9062 148.731 62.5042 148.154 63.2832 147.75C64.0572 147.34 64.9622 147.135 65.9992 147.135ZM65.9992 153.586C66.8542 153.586 67.5082 153.472 67.9592 153.243C68.4042 153.015 68.6272 152.631 68.6272 152.092C68.6272 151.559 68.4042 151.184 67.9592 150.967C67.5082 150.744 66.8542 150.633 65.9992 150.633C65.1492 150.633 64.5082 150.744 64.0742 150.967C63.6412 151.189 63.4242 151.57 63.4242 152.109C63.4242 152.637 63.6412 153.015 64.0742 153.243C64.5022 153.472 65.1442 153.586 65.9992 153.586ZM65.9992 135.656C67.6282 135.656 68.8992 136.096 69.8132 136.975C70.7222 137.848 71.1762 139.072 71.1762 140.648C71.1762 142.16 70.7102 143.364 69.7782 144.261C68.8472 145.151 67.5872 145.597 65.9992 145.597C64.3762 145.597 63.1162 145.16 62.2202 144.287C61.3172 143.408 60.8662 142.178 60.8662 140.596C60.8662 139.617 61.0742 138.753 61.4902 138.003C61.9062 137.253 62.5042 136.676 63.2832 136.271C64.0572 135.861 64.9622 135.656 65.9992 135.656ZM65.9992 142.107C66.8542 142.107 67.5082 141.993 67.9592 141.765C68.4042 141.536 68.6272 141.152 68.6272 140.613C68.6272 140.08 68.4042 139.705 67.9592 139.488C67.5082 139.266 66.8542 139.154 65.9992 139.154C65.1492 139.154 64.5082 139.266 64.0742 139.488C63.6412 139.711 63.4242 140.092 63.4242 140.631C63.4242 141.158 63.6412 141.536 64.0742 141.765C64.5022 141.993 65.1442 142.107 65.9992 142.107ZM71.1762 130.594C71.1762 131.303 70.9742 131.924 70.5692 132.457C70.1652 132.984 69.5702 133.395 68.7852 133.688C68.0002 133.975 67.0832 134.118 66.0342 134.118C64.4172 134.118 63.1512 133.793 62.2372 133.143C61.3232 132.492 60.8662 131.599 60.8662 130.462C60.8662 129.905 60.9782 129.419 61.2002 129.003C61.4232 128.581 61.7982 128.197 62.3252 127.852V127.781C61.5462 127.893 60.7672 127.948 59.9872 127.948H57.3242V124.485H71.0002V127.078L69.7432 127.816V127.948C70.6982 128.54 71.1762 129.422 71.1762 130.594ZM68.4602 129.188C68.4602 128.637 68.2872 128.25 67.9412 128.027C67.5962 127.799 67.0622 127.676 66.3422 127.658H66.0692C65.1902 127.658 64.5662 127.784 64.1972 128.036C63.8222 128.288 63.6352 128.684 63.6352 129.223C63.6352 129.674 63.8492 130.025 64.2762 130.277C64.6982 130.523 65.3022 130.646 66.0872 130.646C66.8602 130.646 67.4492 130.521 67.8542 130.269C68.2582 130.017 68.4602 129.656 68.4602 129.188ZM71.0002 118.667V122.104H57.3242V118.667H71.0002ZM71.0002 109.192L69.7612 109.623V109.825C70.2182 110.112 70.5692 110.514 70.8152 111.029C71.0562 111.539 71.1762 112.14 71.1762 112.831C71.1762 113.927 70.8592 114.779 70.2272 115.389C69.5882 115.998 68.6882 116.303 67.5282 116.303H61.0422V112.866H66.4822C67.1332 112.866 67.6252 112.775 67.9592 112.594C68.2932 112.406 68.4602 112.102 68.4602 111.68C68.4602 111.088 68.2292 110.666 67.7662 110.414C67.2972 110.162 66.5092 110.036 65.4012 110.036H61.0422V106.6H71.0002V109.192ZM71.1762 99.6912C71.1762 101.32 70.7362 102.557 69.8572 103.4C68.9792 104.238 67.7162 104.657 66.0692 104.657C64.4172 104.657 63.1372 104.203 62.2292 103.295C61.3202 102.387 60.8662 101.095 60.8662 99.4192C60.8662 98.2652 61.1182 97.1782 61.6222 96.1582L64.1622 97.1692C63.9802 97.5852 63.8372 97.9692 63.7312 98.3202C63.6202 98.6722 63.5642 99.0382 63.5642 99.4192C63.5642 99.9762 63.7812 100.406 64.2152 100.711C64.6482 101.016 65.2612 101.168 66.0522 101.168C67.6462 101.168 68.4422 100.579 68.4422 99.4012C68.4422 98.3942 68.1492 97.4272 67.5632 96.5012H70.2972C70.8832 97.3862 71.1762 98.4492 71.1762 99.6912ZM65.4012 91.1922C64.7392 90.7762 64.2242 90.4222 63.8542 90.1292L61.0422 87.8962V84.0642L65.2782 87.5192L71.0002 83.8452V87.7732L67.4322 89.9532L68.2842 91.0692H71.0002V94.5232H57.3242V91.0692H62.7032C63.6232 91.0692 64.5222 91.1342 65.4012 91.2632V91.1922ZM95.0002 181.078V185.631L85.9472 190.324V190.403C87.3712 190.292 88.4582 190.236 89.2082 190.236H95.0002V193.312H82.1502V188.777L91.0802 184.102V184.049C89.7852 184.131 88.7452 184.172 87.9602 184.172H82.1502V181.078H95.0002ZM95.1762 173.695C95.1762 175.354 94.7362 176.643 93.8572 177.562C92.9732 178.477 91.7162 178.934 90.0872 178.934C88.4052 178.934 87.1162 178.509 86.2202 177.659C85.3172 176.81 84.8662 175.597 84.8662 174.021C84.8662 172.521 85.2592 171.363 86.0442 170.549C86.8232 169.729 87.9482 169.318 89.4192 169.318H90.9482V175.462C91.5052 175.438 91.9412 175.236 92.2582 174.855C92.5742 174.469 92.7322 173.944 92.7322 173.282C92.7322 172.679 92.6772 172.125 92.5652 171.621C92.4482 171.111 92.2522 170.561 91.9772 169.969H94.4462C94.7222 170.508 94.9122 171.064 95.0182 171.639C95.1232 172.213 95.1762 172.898 95.1762 173.695ZM87.2042 173.897C87.2042 174.302 87.3332 174.642 87.5912 174.917C87.8432 175.187 88.2412 175.345 88.7862 175.392V172.438C88.3062 172.45 87.9222 172.588 87.6352 172.852C87.3482 173.109 87.2042 173.458 87.2042 173.897ZM89.9202 165.267L85.0422 168.308V164.405L87.8372 162.894L85.0422 161.347V157.436L89.9202 160.556L95.0002 157.312V161.215L91.9772 162.894L95.0002 164.563V168.475L89.9202 165.267ZM92.4602 151.16C92.4602 150.697 92.3462 150.144 92.1172 149.499H94.6222C94.8212 149.962 94.9622 150.404 95.0442 150.826C95.1322 151.242 95.1762 151.731 95.1762 152.294C95.1762 153.448 94.8952 154.28 94.3322 154.79C93.7642 155.3 92.8942 155.555 91.7222 155.555H87.6172V156.759H86.2202L85.1392 155.229L83.0472 154.342V152.092H85.0422V149.648H87.6172V152.092H91.4932C92.1382 152.092 92.4602 151.781 92.4602 151.16ZM95.0002 137.212V140.684H84.9892V143.821H82.1502V134.083H84.9892V137.212H95.0002ZM95.0002 128.994V132.431H85.0422V128.994H95.0002ZM82.5632 132.519C82.0482 132.519 81.6642 132.375 81.4122 132.088C81.1602 131.801 81.0342 131.338 81.0342 130.699C81.0342 130.061 81.1632 129.595 81.4212 129.302C81.6792 129.009 82.0602 128.862 82.5632 128.862C83.5712 128.862 84.0752 129.475 84.0752 130.699C84.0752 131.912 83.5712 132.519 82.5632 132.519ZM95.0002 114.369H89.5862C88.9122 114.369 88.4082 114.463 88.0742 114.65C87.7342 114.832 87.5642 115.122 87.5642 115.521C87.5642 116.048 87.7902 116.435 88.2412 116.681C88.6922 116.927 89.3982 117.05 90.3592 117.05H95.0002V120.495H89.5862C88.9122 120.495 88.4082 120.583 88.0742 120.759C87.7342 120.935 87.5642 121.219 87.5642 121.611C87.5642 122.15 87.8052 122.543 88.2852 122.789C88.7662 123.035 89.5512 123.158 90.6412 123.158H95.0002V126.595H85.0422V124.002L86.2722 123.571V123.369C85.8152 123.105 85.4672 122.725 85.2272 122.227C84.9862 121.723 84.8662 121.151 84.8662 120.513C84.8662 119.077 85.3032 118.069 86.1762 117.489V117.217C85.7662 116.936 85.4462 116.546 85.2182 116.048C84.9832 115.544 84.8662 114.99 84.8662 114.387C84.8662 113.209 85.1682 112.339 85.7712 111.776C86.3752 111.214 87.2922 110.933 88.5222 110.933H95.0002V114.369ZM95.1762 103.787C95.1762 105.445 94.7362 106.734 93.8572 107.654C92.9732 108.568 91.7162 109.025 90.0872 109.025C88.4052 109.025 87.1162 108.601 86.2202 107.751C85.3172 106.901 84.8662 105.688 84.8662 104.112C84.8662 102.612 85.2592 101.455 86.0442 100.641C86.8232 99.8202 87.9482 99.4102 89.4192 99.4102H90.9482V105.554C91.5052 105.53 91.9412 105.328 92.2582 104.947C92.5742 104.561 92.7322 104.036 92.7322 103.374C92.7322 102.771 92.6772 102.217 92.5652 101.713C92.4482 101.203 92.2522 100.652 91.9772 100.061H94.4462C94.7222 100.6 94.9122 101.156 95.0182 101.73C95.1232 102.305 95.1762 102.99 95.1762 103.787ZM87.2042 103.989C87.2042 104.394 87.3332 104.733 87.5912 105.009C87.8432 105.278 88.2412 105.437 88.7862 105.483V102.53C88.3062 102.542 87.9222 102.68 87.6352 102.943C87.3482 103.201 87.2042 103.55 87.2042 103.989ZM89.8852 93.3282C88.1862 93.3282 86.6532 93.1202 85.2882 92.7042C83.9232 92.2882 82.7572 91.6762 81.7902 90.8672V88.0022C82.8152 88.7402 84.0222 89.3092 85.4112 89.7072C86.8002 90.1052 88.2852 90.3052 89.8672 90.3052C91.3962 90.3052 92.8502 90.1112 94.2272 89.7252C95.5982 89.3382 96.8052 88.7702 97.8482 88.0202V90.8672C96.9222 91.6702 95.7852 92.2822 94.4382 92.7042C93.0902 93.1202 91.5722 93.3282 89.8852 93.3282ZM89.8322 83.6072V86.8772H87.4772V83.6072H84.2512V81.2432H87.4772V77.9742H89.8322V81.2432H93.0052V83.6072H89.8322ZM84.9372 67.8842C85.7332 67.8842 86.4192 68.1272 86.9932 68.6132C87.5622 69.1002 87.9752 69.8032 88.2322 70.7232H88.2852C88.5552 68.5782 89.5682 67.5062 91.3262 67.5062C92.5212 67.5062 93.4622 67.9802 94.1472 68.9302C94.8332 69.8732 95.1762 71.1862 95.1762 72.8672C95.1762 73.5592 95.1262 74.2002 95.0262 74.7922C94.9272 75.3782 94.7452 76.0142 94.4812 76.6992H91.5992C91.8862 76.1372 92.1002 75.5652 92.2402 74.9852C92.3752 74.3992 92.4422 73.8602 92.4422 73.3682C92.4422 72.6062 92.3372 72.0532 92.1262 71.7072C91.9092 71.3552 91.5722 71.1802 91.1152 71.1802C90.7642 71.1802 90.4942 71.2712 90.3072 71.4522C90.1132 71.6342 89.9702 71.9272 89.8762 72.3312C89.7762 72.7352 89.7272 73.2632 89.7272 73.9132V74.7042H87.1162V73.8962C87.1162 72.1322 86.6652 71.2502 85.7632 71.2502C85.4232 71.2502 85.1712 71.3822 85.0072 71.6462C84.8432 71.9032 84.7612 72.2522 84.7612 72.6912C84.7612 73.5122 85.0362 74.3612 85.5872 75.2402L83.2672 76.6822C82.7982 76.0022 82.4642 75.3082 82.2652 74.5992C82.0652 73.8842 81.9662 73.0662 81.9662 72.1462C81.9662 70.8162 82.2292 69.7732 82.7572 69.0182C83.2842 68.2622 84.0112 67.8842 84.9372 67.8842ZM89.8852 60.9492C91.5432 60.9492 93.0522 61.1602 94.4112 61.5822C95.7652 61.9982 96.9102 62.6102 97.8482 63.4192V66.2672C96.8402 65.5282 95.6452 64.9632 94.2622 64.5702C92.8732 64.1782 91.4082 63.9812 89.8672 63.9812C88.3142 63.9812 86.8472 64.1752 85.4642 64.5622C84.0752 64.9482 82.8512 65.5222 81.7902 66.2842V63.4192C82.7632 62.6042 83.9402 61.9892 85.3232 61.5732C86.7062 61.1572 88.2272 60.9492 89.8852 60.9492Z" fill="#333333"/>
</g>
<defs>
<filter id="filter0_f" x="87.3457" y="-3.74609" width="54.5367" height="54.5367" filterUnits="userSpaceOnUse" color-interpolation-filters="sRGB">
<feFlood flood-opacity="0" result="BackgroundImageFix"/>
<feBlend mode="normal" in="SourceGraphic" in2="BackgroundImageFix" result="shape"/>
<feGaussianBlur stdDeviation="8" result="effect1_foregroundBlur"/>
</filter>
<filter id="filter1_ii" x="38.0723" y="11.168" width="22.4751" height="24.4751" filterUnits="userSpaceOnUse" color-interpolation-filters="sRGB">
<feFlood flood-opacity="0" result="BackgroundImageFix"/>
<feBlend mode="normal" in="SourceGraphic" in2="BackgroundImageFix" result="shape"/>
<feColorMatrix in="SourceAlpha" type="matrix" values="0 0 0 0 0 0 0 0 0 0 0 0 0 0 0 0 0 0 127 0" result="hardAlpha"/>
<feOffset dy="1"/>
<feGaussianBlur stdDeviation="2"/>
<feComposite in2="hardAlpha" operator="arithmetic" k2="-1" k3="1"/>
<feColorMatrix type="matrix" values="0 0 0 0 0 0 0 0 0 0 0 0 0 0 0 0 0 0 0.4 0"/>
<feBlend mode="normal" in2="shape" result="effect1_innerShadow"/>
<feColorMatrix in="SourceAlpha" type="matrix" values="0 0 0 0 0 0 0 0 0 0 0 0 0 0 0 0 0 0 127 0" result="hardAlpha"/>
<feOffset dy="-1"/>
<feGaussianBlur stdDeviation="2"/>
<feComposite in2="hardAlpha" operator="arithmetic" k2="-1" k3="1"/>
<feColorMatrix type="matrix" values="0 0 0 0 1 0 0 0 0 1 0 0 0 0 1 0 0 0 0.4 0"/>
<feBlend mode="normal" in2="effect1_innerShadow" result="effect2_innerShadow"/>
</filter>
<clipPath id="clip0">
<rect width="163" height="264" fill="white"/>
</clipPath>
</defs>
</svg>
