<svg width="163" height="264" viewBox="0 0 163 264" fill="none" xmlns="http://www.w3.org/2000/svg">
<g clip-path="url(#clip0)">
<path d="M0.648438 15.3526C53.1574 -1.70868 109.719 -1.70868 162.229 15.3526L81.4384 264L0.648438 15.3526Z" fill="#FA441C"/>
<path d="M12.2178 50.9635C57.2068 36.3455 105.669 36.3455 150.658 50.9635L81.4378 263.999L12.2178 50.9635Z" fill="#F4DF1E"/>
<g filter="url(#filter0_f)">
<path d="M115.976 13.6158C110.504 12.8638 105.459 16.6898 104.707 22.1612C103.955 27.6326 107.781 32.6776 113.253 33.4295C118.724 34.1815 123.769 30.3556 124.521 24.8841C125.273 19.4127 121.447 14.3677 115.976 13.6158Z" fill="white"/>
</g>
<path d="M115.975 13.6167C110.504 12.8648 105.459 16.6907 104.707 22.1622C103.955 27.6336 107.781 32.6786 113.252 33.4305C118.724 34.1824 123.769 30.3565 124.521 24.8851C125.273 19.4137 121.447 14.3687 115.975 13.6167Z" fill="white"/>
<g filter="url(#filter1_ii)">
<path d="M47.9839 13.4936C42.5099 14.2259 38.6658 19.2571 39.3981 24.7312C40.1303 30.2053 45.1616 34.0493 50.6356 33.3171C56.1097 32.5848 59.9538 27.5536 59.2215 22.0795C58.4893 16.6054 53.458 12.7614 47.9839 13.4936Z" fill="#ED4721"/>
</g>
<path d="M81.0002 187.222V190.711H75.7622V194.745H81.0002V198.234H68.1502V194.745H72.9142V190.711H68.1502V187.222H81.0002ZM75.9992 175.128C77.6282 175.128 78.8992 175.567 79.8132 176.446C80.7222 177.319 81.1762 178.544 81.1762 180.12C81.1762 181.632 80.7102 182.836 79.7782 183.732C78.8472 184.623 77.5872 185.068 75.9992 185.068C74.3762 185.068 73.1162 184.632 72.2202 183.759C71.3172 182.88 70.8662 181.649 70.8662 180.067C70.8662 179.089 71.0742 178.225 71.4902 177.475C71.9062 176.725 72.5042 176.147 73.2832 175.743C74.0572 175.333 74.9622 175.128 75.9992 175.128ZM75.9992 181.579C76.8542 181.579 77.5082 181.465 77.9592 181.236C78.4042 181.008 78.6272 180.624 78.6272 180.085C78.6272 179.552 78.4042 179.177 77.9592 178.96C77.5082 178.737 76.8542 178.626 75.9992 178.626C75.1492 178.626 74.5082 178.737 74.0742 178.96C73.6412 179.183 73.4242 179.564 73.4242 180.103C73.4242 180.63 73.6412 181.008 74.0742 181.236C74.5022 181.465 75.1442 181.579 75.9992 181.579ZM78.4602 168.281C78.4602 167.818 78.3462 167.265 78.1172 166.62H80.6222C80.8212 167.083 80.9622 167.525 81.0442 167.947C81.1322 168.363 81.1762 168.853 81.1762 169.415C81.1762 170.569 80.8952 171.401 80.3322 171.911C79.7642 172.421 78.8942 172.676 77.7222 172.676H73.6172V173.88H72.2202L71.1392 172.351L69.0472 171.463V169.213H71.0422V166.77H73.6172V169.213H77.4932C78.1382 169.213 78.4602 168.902 78.4602 168.281ZM74.3032 149.095C76.4472 149.095 78.1002 149.687 79.2602 150.87C80.4202 152.048 81.0002 153.706 81.0002 155.845V160.002H68.1502V155.555C68.1502 153.492 68.6782 151.901 69.7322 150.782C70.7872 149.657 72.3112 149.095 74.3032 149.095ZM74.4262 152.698C73.2482 152.698 72.3752 152.933 71.8072 153.401C71.2382 153.864 70.9542 154.57 70.9542 155.52V156.53H78.1522V155.757C78.1522 154.702 77.8482 153.929 77.2382 153.437C76.6232 152.944 75.6862 152.698 74.4262 152.698ZM81.1762 142.178C81.1762 143.836 80.7362 145.125 79.8572 146.045C78.9732 146.959 77.7162 147.416 76.0872 147.416C74.4052 147.416 73.1162 146.991 72.2202 146.142C71.3172 145.292 70.8662 144.079 70.8662 142.503C70.8662 141.003 71.2592 139.846 72.0442 139.031C72.8232 138.211 73.9482 137.801 75.4192 137.801H76.9482V143.944C77.5052 143.921 77.9412 143.719 78.2582 143.338C78.5742 142.951 78.7322 142.427 78.7322 141.765C78.7322 141.161 78.6772 140.607 78.5652 140.104C78.4482 139.594 78.2522 139.043 77.9772 138.451H80.4462C80.7222 138.99 80.9122 139.547 81.0182 140.121C81.1232 140.695 81.1762 141.381 81.1762 142.178ZM73.2042 142.38C73.2042 142.784 73.3332 143.124 73.5912 143.399C73.8432 143.669 74.2412 143.827 74.7862 143.874V140.921C74.3062 140.933 73.9222 141.07 73.6352 141.334C73.3482 141.592 73.2042 141.94 73.2042 142.38ZM81.0002 129.363L79.6822 130.022V130.093C80.2562 130.556 80.6482 131.027 80.8592 131.508C81.0702 131.988 81.1762 132.609 81.1762 133.371C81.1762 134.309 80.8952 135.047 80.3322 135.586C79.7702 136.125 78.9792 136.395 77.9592 136.395C76.8982 136.395 76.1102 136.025 75.5952 135.287C75.0732 134.549 74.7802 133.48 74.7162 132.079L74.6632 130.418H74.5222C73.7022 130.418 73.2922 130.822 73.2922 131.631C73.2922 132.357 73.5382 133.28 74.0302 134.399L71.7632 135.393C71.1652 134.232 70.8662 132.768 70.8662 130.998C70.8662 129.721 71.1832 128.733 71.8152 128.036C72.4482 127.333 73.3332 126.981 74.4702 126.981H81.0002V129.363ZM78.7502 131.912C78.7502 131.496 78.6182 131.142 78.3542 130.849C78.0912 130.55 77.7482 130.4 77.3262 130.4H76.5532L76.5882 131.191C76.6292 132.322 77.0452 132.888 77.8362 132.888C78.4452 132.888 78.7502 132.563 78.7502 131.912ZM81.0002 121.207V124.644H67.3242V121.207H81.0002ZM70.8132 108.226C70.8132 109.052 71.1532 109.696 71.8332 110.159C72.5072 110.622 73.4382 110.854 74.6282 110.854C77.1012 110.854 78.3372 109.913 78.3372 108.032C78.3372 107.464 78.2582 106.913 78.1002 106.38C77.9412 105.847 77.7512 105.311 77.5282 104.772H80.4642C80.9382 105.844 81.1762 107.057 81.1762 108.41C81.1762 110.35 80.6132 111.838 79.4882 112.875C78.3632 113.906 76.7372 114.422 74.6102 114.422C73.2802 114.422 72.1112 114.173 71.1042 113.675C70.0962 113.171 69.3222 112.45 68.7832 111.513C68.2382 110.569 67.9662 109.462 67.9662 108.19C67.9662 106.802 68.2682 105.475 68.8712 104.209L71.6042 105.272C71.3822 105.747 71.1942 106.222 71.0422 106.696C70.8902 107.171 70.8132 107.681 70.8132 108.226ZM81.0002 95.9646L79.6822 96.6236V96.6936C80.2562 97.1566 80.6482 97.6286 80.8592 98.1086C81.0702 98.5896 81.1762 99.2106 81.1762 99.9726C81.1762 100.91 80.8952 101.648 80.3322 102.188C79.7702 102.727 78.9792 102.996 77.9592 102.996C76.8982 102.996 76.1102 102.627 75.5952 101.889C75.0732 101.15 74.7802 100.081 74.7162 98.6806L74.6632 97.0196H74.5222C73.7022 97.0196 73.2922 97.4236 73.2922 98.2316C73.2922 98.9586 73.5382 99.8816 74.0302 101.001L71.7632 101.994C71.1652 100.834 70.8662 99.3686 70.8662 97.5996C70.8662 96.3216 71.1832 95.3346 71.8152 94.6376C72.4482 93.9346 73.3332 93.5826 74.4702 93.5826H81.0002V95.9646ZM78.7502 98.5136C78.7502 98.0976 78.6182 97.7426 78.3542 97.4496C78.0912 97.1506 77.7482 97.0016 77.3262 97.0016H76.5532L76.5882 97.7926C76.6292 98.9236 77.0452 99.4886 77.8362 99.4886C78.4452 99.4886 78.7502 99.1636 78.7502 98.5136ZM70.8662 85.2326C70.8662 84.9346 70.8902 84.6496 70.9372 84.3806L70.9722 84.1876L74.2152 84.4946C74.1452 84.7756 74.1092 85.1656 74.1092 85.6636C74.1092 86.4136 74.2822 86.9586 74.6282 87.2986C74.9682 87.6386 75.4602 87.8086 76.1042 87.8086H81.0002V91.2446H71.0422V88.6876L72.6332 88.1506V87.9836C72.1052 87.6966 71.6812 87.2986 71.3582 86.7886C71.0302 86.2726 70.8662 85.7546 70.8662 85.2326ZM77.9412 75.0996C79.0082 75.0996 79.8132 75.4626 80.3582 76.1886C80.9032 76.9156 81.1762 77.9586 81.1762 79.3176C81.1762 80.0566 81.1352 80.6976 81.0532 81.2426C80.9772 81.7876 80.8332 82.3446 80.6222 82.9126H77.8712C78.1052 82.3796 78.2992 81.7966 78.4512 81.1636C78.6042 80.5246 78.6802 79.9566 78.6802 79.4586C78.6802 78.7146 78.5102 78.3426 78.1702 78.3426C77.9942 78.3426 77.8392 78.4476 77.7042 78.6586C77.5632 78.8636 77.2942 79.4676 76.8962 80.4696C76.5212 81.3836 76.0962 82.0216 75.6212 82.3856C75.1412 82.7486 74.5342 82.9306 73.8022 82.9306C72.8762 82.9306 72.1552 82.5726 71.6402 81.8576C71.1242 81.1436 70.8662 80.1326 70.8662 78.8256C70.8662 78.1696 70.9392 77.5546 71.0862 76.9796C71.2272 76.3996 71.4352 75.7996 71.7102 75.1786L73.9252 76.1096C73.7202 76.5666 73.5472 77.0506 73.4062 77.5606C73.2602 78.0696 73.1872 78.4856 73.1872 78.8086C73.1872 79.3706 73.3242 79.6516 73.6002 79.6516C73.7702 79.6516 73.9162 79.5556 74.0392 79.3616C74.1562 79.1626 74.3992 78.5946 74.7692 77.6566C75.0562 76.9596 75.3372 76.4406 75.6122 76.1016C75.8882 75.7556 76.2132 75.5036 76.5882 75.3456C76.9572 75.1816 77.4082 75.0996 77.9412 75.0996ZM99.8852 158.464C98.1862 158.464 96.6532 158.256 95.2882 157.84C93.9232 157.424 92.7572 156.812 91.7902 156.003V153.138C92.8152 153.876 94.0222 154.444 95.4112 154.843C96.8002 155.241 98.2852 155.44 99.8672 155.44C101.396 155.44 102.85 155.247 104.227 154.86C105.598 154.474 106.805 153.905 107.848 153.155V156.003C106.922 156.806 105.785 157.418 104.437 157.84C103.09 158.256 101.572 158.464 99.8852 158.464ZM99.8322 148.743V152.013H97.4772V148.743H94.2512V146.379H97.4772V143.109H99.8322V146.379H103.005V148.743H99.8322ZM94.9372 133.02C95.7332 133.02 96.4192 133.263 96.9932 133.749C97.5622 134.235 97.9752 134.939 98.2322 135.858H98.2852C98.5552 133.714 99.5682 132.642 101.326 132.642C102.521 132.642 103.462 133.116 104.147 134.065C104.833 135.009 105.176 136.321 105.176 138.003C105.176 138.694 105.126 139.336 105.026 139.928C104.927 140.514 104.745 141.149 104.481 141.835H101.599C101.886 141.272 102.1 140.701 102.24 140.121C102.375 139.535 102.442 138.996 102.442 138.504C102.442 137.742 102.337 137.189 102.126 136.843C101.909 136.491 101.572 136.315 101.115 136.315C100.764 136.315 100.494 136.406 100.307 136.588C100.113 136.77 99.9702 137.063 99.8762 137.467C99.7762 137.871 99.7272 138.398 99.7272 139.049V139.84H97.1162V139.031C97.1162 137.268 96.6652 136.386 95.7632 136.386C95.4232 136.386 95.1712 136.518 95.0072 136.781C94.8432 137.039 94.7612 137.388 94.7612 137.827C94.7612 138.647 95.0362 139.497 95.5872 140.376L93.2672 141.817C92.7982 141.138 92.4642 140.443 92.2652 139.734C92.0652 139.02 91.9662 138.202 91.9662 137.282C91.9662 135.952 92.2292 134.909 92.7572 134.153C93.2842 133.397 94.0112 133.02 94.9372 133.02ZM98.5932 121.989C100.866 121.989 102.533 122.37 103.594 123.132C104.648 123.894 105.176 125.06 105.176 126.63C105.176 128.165 104.625 129.322 103.523 130.102C102.416 130.881 100.772 131.271 98.5932 131.271C96.3082 131.271 94.6322 130.89 93.5652 130.128C92.4992 129.366 91.9662 128.2 91.9662 126.63C91.9662 125.101 92.5222 123.946 93.6362 123.167C94.7432 122.382 96.3962 121.989 98.5932 121.989ZM98.5932 127.816C100.046 127.816 101.045 127.726 101.59 127.544C102.135 127.362 102.407 127.058 102.407 126.63C102.407 126.196 102.126 125.892 101.563 125.716C101.001 125.534 100.011 125.443 98.5932 125.443C97.1692 125.443 96.1732 125.534 95.6042 125.716C95.0302 125.897 94.7432 126.202 94.7432 126.63C94.7432 127.058 95.0192 127.362 95.5692 127.544C96.1202 127.726 97.1282 127.816 98.5932 127.816ZM99.8852 115.538C101.543 115.538 103.052 115.749 104.411 116.171C105.765 116.587 106.91 117.199 107.848 118.008V120.855C106.84 120.117 105.645 119.552 104.262 119.159C102.873 118.767 101.408 118.57 99.8672 118.57C98.3142 118.57 96.8472 118.764 95.4642 119.15C94.0752 119.537 92.8512 120.111 91.7902 120.873V118.008C92.7632 117.193 93.9402 116.578 95.3232 116.162C96.7062 115.746 98.2272 115.538 99.8852 115.538Z" fill="#333333"/>
</g>
<defs>
<filter id="filter0_f" x="87.3457" y="-3.74609" width="54.5367" height="54.5367" filterUnits="userSpaceOnUse" color-interpolation-filters="sRGB">
<feFlood flood-opacity="0" result="BackgroundImageFix"/>
<feBlend mode="normal" in="SourceGraphic" in2="BackgroundImageFix" result="shape"/>
<feGaussianBlur stdDeviation="8" result="effect1_foregroundBlur"/>
</filter>
<filter id="filter1_ii" x="38.0723" y="11.168" width="22.4751" height="24.4751" filterUnits="userSpaceOnUse" color-interpolation-filters="sRGB">
<feFlood flood-opacity="0" result="BackgroundImageFix"/>
<feBlend mode="normal" in="SourceGraphic" in2="BackgroundImageFix" result="shape"/>
<feColorMatrix in="SourceAlpha" type="matrix" values="0 0 0 0 0 0 0 0 0 0 0 0 0 0 0 0 0 0 127 0" result="hardAlpha"/>
<feOffset dy="1"/>
<feGaussianBlur stdDeviation="2"/>
<feComposite in2="hardAlpha" operator="arithmetic" k2="-1" k3="1"/>
<feColorMatrix type="matrix" values="0 0 0 0 0 0 0 0 0 0 0 0 0 0 0 0 0 0 0.4 0"/>
<feBlend mode="normal" in2="shape" result="effect1_innerShadow"/>
<feColorMatrix in="SourceAlpha" type="matrix" values="0 0 0 0 0 0 0 0 0 0 0 0 0 0 0 0 0 0 127 0" result="hardAlpha"/>
<feOffset dy="-1"/>
<feGaussianBlur stdDeviation="2"/>
<feComposite in2="hardAlpha" operator="arithmetic" k2="-1" k3="1"/>
<feColorMatrix type="matrix" values="0 0 0 0 1 0 0 0 0 1 0 0 0 0 1 0 0 0 0.4 0"/>
<feBlend mode="normal" in2="effect1_innerShadow" result="effect2_innerShadow"/>
</filter>
<clipPath id="clip0">
<rect width="163" height="264" fill="white"/>
</clipPath>
</defs>
</svg>
