<svg width="163" height="264" viewBox="0 0 163 264" fill="none" xmlns="http://www.w3.org/2000/svg">
<g clip-path="url(#clip0)">
<path d="M0.647949 15.3526C53.1569 -1.70868 109.719 -1.70868 162.229 15.3526L81.4379 264L0.647949 15.3526Z" fill="#FA441C"/>
<path d="M12.2178 50.9635C57.2068 36.3455 105.669 36.3455 150.658 50.9635L81.4378 263.999L12.2178 50.9635Z" fill="#E8C27B"/>
<g filter="url(#filter0_f)">
<path d="M115.975 13.6158C110.504 12.8638 105.459 16.6898 104.707 22.1612C103.955 27.6326 107.781 32.6776 113.253 33.4295C118.724 34.1815 123.769 30.3556 124.521 24.8841C125.273 19.4127 121.447 14.3677 115.975 13.6158Z" fill="white"/>
</g>
<path d="M115.975 13.6167C110.504 12.8648 105.459 16.6907 104.707 22.1622C103.955 27.6336 107.781 32.6786 113.252 33.4305C118.724 34.1824 123.769 30.3565 124.521 24.8851C125.273 19.4137 121.447 14.3687 115.975 13.6167Z" fill="white"/>
<g filter="url(#filter1_ii)">
<path d="M47.9839 13.4936C42.5099 14.2259 38.6658 19.2571 39.3981 24.7312C40.1303 30.2053 45.1616 34.0493 50.6356 33.3171C56.1097 32.5848 59.9538 27.5536 59.2215 22.0795C58.4893 16.6054 53.458 12.7614 47.9839 13.4936Z" fill="#ED4721"/>
</g>
<path d="M71.2372 192.817C72.6732 192.817 73.7832 193.242 74.5682 194.092C75.3482 194.936 75.7372 196.138 75.7372 197.696V198.671H80.0002V202.144H67.1502V197.696C67.1502 196.073 67.5052 194.854 68.2142 194.04C68.9232 193.226 69.9312 192.817 71.2372 192.817ZM72.9072 198.671V198.038C72.9072 197.517 72.7612 197.103 72.4682 196.799C72.1752 196.488 71.7712 196.334 71.2552 196.334C70.3882 196.334 69.9542 196.813 69.9542 197.774V198.671H72.9072ZM69.8662 184.96C69.8662 184.661 69.8902 184.377 69.9372 184.107L69.9722 183.914L73.2152 184.223C73.1452 184.504 73.1092 184.893 73.1092 185.391C73.1092 186.141 73.2822 186.687 73.6282 187.025C73.9682 187.365 74.4602 187.535 75.1042 187.535H80.0002V190.972H70.0422V188.414L71.6332 187.878V187.712C71.1052 187.424 70.6812 187.025 70.3582 186.516C70.0302 186 69.8662 185.481 69.8662 184.96ZM80.1762 177.71C80.1762 179.368 79.7362 180.656 78.8572 181.576C77.9732 182.49 76.7162 182.947 75.0872 182.947C73.4052 182.947 72.1162 182.522 71.2202 181.673C70.3172 180.823 69.8662 179.61 69.8662 178.035C69.8662 176.535 70.2592 175.378 71.0442 174.562C71.8232 173.743 72.9482 173.332 74.4192 173.332H75.9482V179.477C76.5052 179.452 76.9412 179.25 77.2582 178.869C77.5742 178.482 77.7322 177.958 77.7322 177.296C77.7322 176.692 77.6772 176.139 77.5652 175.635C77.4482 175.125 77.2522 174.575 76.9772 173.982H79.4462C79.7222 174.521 79.9122 175.078 80.0182 175.652C80.1232 176.227 80.1762 176.913 80.1762 177.71ZM72.2042 177.911C72.2042 178.315 72.3332 178.656 72.5912 178.932C72.8432 179.201 73.2412 179.359 73.7862 179.406V176.452C73.3062 176.465 72.9222 176.602 72.6352 176.865C72.3482 177.123 72.2042 177.472 72.2042 177.911ZM80.0002 159.164H74.5862C73.9122 159.164 73.4082 159.258 73.0742 159.445C72.7342 159.627 72.5642 159.917 72.5642 160.315C72.5642 160.843 72.7902 161.229 73.2412 161.477C73.6922 161.723 74.3982 161.845 75.3592 161.845H80.0002V165.29H74.5862C73.9122 165.29 73.4082 165.378 73.0742 165.554C72.7342 165.729 72.5642 166.014 72.5642 166.406C72.5642 166.945 72.8052 167.339 73.2852 167.585C73.7662 167.831 74.5512 167.953 75.6412 167.953H80.0002V171.391H70.0422V168.798L71.2722 168.367V168.164C70.8152 167.9 70.4672 167.521 70.2272 167.021C69.9862 166.519 69.8662 165.947 69.8662 165.309C69.8662 163.873 70.3032 162.865 71.1762 162.285V162.012C70.7662 161.73 70.4462 161.341 70.2182 160.843C69.9832 160.339 69.8662 159.785 69.8662 159.182C69.8662 158.004 70.1682 157.135 70.7712 156.572C71.3752 156.01 72.2922 155.729 73.5222 155.729H80.0002V159.164ZM80.0002 149.936V153.372H70.0422V149.936H80.0002ZM67.5632 153.46C67.0482 153.46 66.6642 153.316 66.4122 153.029C66.1602 152.742 66.0342 152.279 66.0342 151.641C66.0342 151.002 66.1632 150.536 66.4212 150.243C66.6792 149.951 67.0602 149.804 67.5632 149.804C68.5712 149.804 69.0752 150.416 69.0752 151.641C69.0752 152.853 68.5712 153.46 67.5632 153.46ZM80.0002 140.443L78.7612 140.874V141.076C79.2182 141.363 79.5692 141.766 79.8152 142.281C80.0562 142.791 80.1762 143.391 80.1762 144.082C80.1762 145.178 79.8592 146.031 79.2272 146.641C78.5882 147.25 77.6882 147.554 76.5282 147.554H70.0422V144.117H75.4822C76.1332 144.117 76.6252 144.026 76.9592 143.845C77.2932 143.657 77.4602 143.354 77.4602 142.932C77.4602 142.34 77.2292 141.917 76.7662 141.665C76.2972 141.413 75.5092 141.287 74.4012 141.287H70.0422V137.852H80.0002V140.443ZM80.0002 123.253H74.5862C73.9122 123.253 73.4082 123.346 73.0742 123.533C72.7342 123.715 72.5642 124.006 72.5642 124.404C72.5642 124.932 72.7902 125.317 73.2412 125.563C73.6922 125.81 74.3982 125.934 75.3592 125.934H80.0002V129.378H74.5862C73.9122 129.378 73.4082 129.467 73.0742 129.643C72.7342 129.818 72.5642 130.102 72.5642 130.494C72.5642 131.033 72.8052 131.427 73.2852 131.673C73.7662 131.918 74.5512 132.042 75.6412 132.042H80.0002V135.479H70.0422V132.885L71.2722 132.454V132.253C70.8152 131.989 70.4672 131.607 70.2272 131.109C69.9862 130.605 69.8662 130.034 69.8662 129.395C69.8662 127.96 70.3032 126.952 71.1762 126.372V126.1C70.7662 125.818 70.4462 125.43 70.2182 124.932C69.9832 124.428 69.8662 123.873 69.8662 123.27C69.8662 122.092 70.1682 121.222 70.7712 120.66C71.3752 120.097 72.2922 119.815 73.5222 119.815H80.0002V123.253ZM80.0002 100.365V104.919L70.9472 109.611V109.69C72.3712 109.579 73.4582 109.523 74.2082 109.523H80.0002V112.6H67.1502V108.064L76.0802 103.389V103.337C74.7852 103.419 73.7452 103.46 72.9602 103.46H67.1502V100.365H80.0002ZM80.1762 92.9825C80.1762 94.6415 79.7362 95.9305 78.8572 96.8505C77.9732 97.7645 76.7162 98.2215 75.0872 98.2215C73.4052 98.2215 72.1162 97.7965 71.2202 96.9465C70.3172 96.0975 69.8662 94.8845 69.8662 93.3085C69.8662 91.8085 70.2592 90.6505 71.0442 89.8365C71.8232 89.0165 72.9482 88.6055 74.4192 88.6055H75.9482V94.7495C76.5052 94.7265 76.9412 94.5235 77.2582 94.1435C77.5742 93.7565 77.7322 93.2315 77.7322 92.5695C77.7322 91.9665 77.6772 91.4125 77.5652 90.9085C77.4482 90.3985 77.2522 89.8485 76.9772 89.2565H79.4462C79.7222 89.7955 79.9122 90.3525 80.0182 90.9265C80.1232 91.5005 80.1762 92.1865 80.1762 92.9825ZM72.2042 93.1855C72.2042 93.5895 72.3332 93.9295 72.5912 94.2045C72.8432 94.4745 73.2412 94.6325 73.7862 94.6795V91.7265C73.3062 91.7375 72.9222 91.8755 72.6352 92.1395C72.3482 92.3965 72.2042 92.7455 72.2042 93.1855ZM80.0002 78.0945L75.2542 79.2195L73.8212 79.4825L72.6702 79.6585V79.7115C74.3112 79.9985 75.3452 80.1915 75.7722 80.2915L80.0002 81.3025V84.9145L70.0422 87.6305V84.2465L73.8652 83.4375C75.1782 83.1805 76.2682 83.0305 77.1352 82.9895V82.9375C76.5962 82.9195 75.5702 82.7585 74.0592 82.4535L70.0422 81.5305V77.7335L74.1112 76.8905C75.4062 76.6205 76.4142 76.4505 77.1352 76.3805V76.3275C76.6892 76.2925 76.1362 76.2335 75.4742 76.1515C74.8062 76.0695 74.2702 75.9795 73.8652 75.8795L70.0422 75.0005V71.6875L80.0002 74.4205V78.0945ZM93.8132 175.318C93.8132 176.146 94.1532 176.79 94.8332 177.253C95.5072 177.715 96.4382 177.947 97.6282 177.947C100.101 177.947 101.337 177.007 101.337 175.126C101.337 174.558 101.258 174.006 101.1 173.473C100.941 172.939 100.751 172.404 100.528 171.865H103.464C103.938 172.938 104.176 174.149 104.176 175.503C104.176 177.442 103.613 178.931 102.488 179.968C101.363 180.999 99.7372 181.516 97.6102 181.516C96.2802 181.516 95.1112 181.266 94.1042 180.768C93.0962 180.264 92.3222 179.544 91.7832 178.605C91.2382 177.662 90.9662 176.555 90.9662 175.283C90.9662 173.895 91.2682 172.567 91.8712 171.302L94.6042 172.365C94.3822 172.84 94.1942 173.314 94.0422 173.789C93.8902 174.264 93.8132 174.773 93.8132 175.318ZM104 163.059L102.682 163.717V163.787C103.256 164.25 103.648 164.722 103.859 165.202C104.07 165.684 104.176 166.304 104.176 167.065C104.176 168.003 103.895 168.742 103.332 169.281C102.77 169.82 101.979 170.089 100.959 170.089C99.8982 170.089 99.1102 169.72 98.5952 168.981C98.0732 168.243 97.7802 167.174 97.7162 165.773L97.6632 164.113H97.5222C96.7022 164.113 96.2922 164.518 96.2922 165.326C96.2922 166.052 96.5382 166.975 97.0302 168.094L94.7632 169.087C94.1652 167.927 93.8662 166.462 93.8662 164.692C93.8662 163.415 94.1832 162.428 94.8152 161.73C95.4482 161.027 96.3332 160.676 97.4702 160.676H104V163.059ZM101.75 165.606C101.75 165.19 101.618 164.837 101.354 164.544C101.091 164.244 100.748 164.095 100.326 164.095H99.5532L99.5882 164.886C99.6292 166.017 100.045 166.582 100.836 166.582C101.445 166.582 101.75 166.257 101.75 165.606ZM93.8662 152.326C93.8662 152.027 93.8902 151.743 93.9372 151.475L93.9722 151.281L97.2152 151.589C97.1452 151.869 97.1092 152.259 97.1092 152.757C97.1092 153.507 97.2822 154.053 97.6282 154.393C97.9682 154.731 98.4602 154.901 99.1042 154.901H104V158.339H94.0422V155.781L95.6332 155.244V155.077C95.1052 154.79 94.6812 154.392 94.3582 153.882C94.0302 153.366 93.8662 152.848 93.8662 152.326ZM100.941 142.192C102.008 142.192 102.813 142.557 103.358 143.283C103.903 144.009 104.176 145.052 104.176 146.411C104.176 147.149 104.135 147.792 104.053 148.337C103.977 148.882 103.833 149.438 103.622 150.007H100.871C101.105 149.474 101.299 148.89 101.451 148.257C101.604 147.618 101.68 147.05 101.68 146.552C101.68 145.808 101.51 145.436 101.17 145.436C100.994 145.436 100.839 145.542 100.704 145.753C100.563 145.958 100.294 146.562 99.8962 147.562C99.5212 148.478 99.0962 149.116 98.6212 149.479C98.1412 149.842 97.5342 150.023 96.8022 150.023C95.8762 150.023 95.1552 149.666 94.6402 148.951C94.1242 148.236 93.8662 147.226 93.8662 145.919C93.8662 145.263 93.9392 144.647 94.0862 144.074C94.2272 143.493 94.4352 142.894 94.7102 142.271L96.9252 143.203C96.7202 143.66 96.5472 144.145 96.4062 144.654C96.2602 145.164 96.1872 145.579 96.1872 145.901C96.1872 146.464 96.3242 146.745 96.6002 146.745C96.7702 146.745 96.9162 146.648 97.0392 146.455C97.1562 146.256 97.3992 145.688 97.7692 144.751C98.0562 144.054 98.3372 143.535 98.6122 143.195C98.8882 142.85 99.2132 142.597 99.5882 142.438C99.9572 142.274 100.408 142.192 100.941 142.192ZM98.8852 136.145C97.1862 136.145 95.6532 135.938 94.2882 135.521C92.9232 135.105 91.7572 134.493 90.7902 133.686V130.82C91.8152 131.559 93.0222 132.126 94.4112 132.524C95.8002 132.923 97.2852 133.122 98.8672 133.122C100.396 133.122 101.85 132.929 103.227 132.542C104.598 132.155 105.805 131.587 106.848 130.837V133.686C105.922 134.487 104.785 135.1 103.437 135.521C102.09 135.938 100.572 136.145 98.8852 136.145ZM98.8322 126.425V129.695H96.4772V126.425H93.2512V124.061H96.4772V120.792H98.8322V124.061H102.005V126.425H98.8322ZM104 111.854V115.378H97.1972C96.3712 115.378 95.6152 115.359 94.9302 115.324C95.1932 115.541 95.4692 115.812 95.7562 116.133L96.9602 117.592L94.7452 119.395L91.1502 114.981V111.854H104ZM95.5802 103.749C95.5802 103.011 95.7532 102.347 96.0992 101.755C96.4382 101.157 96.9222 100.693 97.5492 100.365C98.1762 100.031 98.8992 99.8645 99.7202 99.8645C101.155 99.8645 102.257 100.298 103.024 101.165C103.792 102.026 104.176 103.333 104.176 105.085C104.176 106.585 103.944 107.81 103.481 108.759H100.634C100.868 108.249 101.062 107.675 101.214 107.036C101.366 106.392 101.442 105.839 101.442 105.376C101.442 104.731 101.308 104.236 101.038 103.891C100.763 103.545 100.358 103.371 99.8252 103.371C99.3332 103.371 98.9492 103.547 98.6742 103.898C98.3982 104.25 98.2612 104.783 98.2612 105.498C98.2612 106.043 98.3632 106.633 98.5682 107.266L97.9362 108.539L91.1502 108.057V100.727H94.0422V105.104L95.7382 105.261C95.6502 104.804 95.6042 104.479 95.5982 104.285C95.5862 104.092 95.5802 103.913 95.5802 103.749ZM98.8852 93.2205C100.543 93.2205 102.052 93.4315 103.411 93.8535C104.765 94.2695 105.91 94.8815 106.848 95.6895V98.5375C105.84 97.7995 104.645 97.2335 103.262 96.8415C101.873 96.4485 100.408 96.2525 98.8672 96.2525C97.3142 96.2525 95.8472 96.4455 94.4642 96.8325C93.0752 97.2195 91.8512 97.7935 90.7902 98.5555V95.6895C91.7632 94.8755 92.9402 94.2605 94.3232 93.8445C95.7062 93.4285 97.2272 93.2205 98.8852 93.2205Z" fill="white"/>
</g>
<defs>
<filter id="filter0_f" x="87.3457" y="-3.74609" width="54.5367" height="54.5367" filterUnits="userSpaceOnUse" color-interpolation-filters="sRGB">
<feFlood flood-opacity="0" result="BackgroundImageFix"/>
<feBlend mode="normal" in="SourceGraphic" in2="BackgroundImageFix" result="shape"/>
<feGaussianBlur stdDeviation="8" result="effect1_foregroundBlur"/>
</filter>
<filter id="filter1_ii" x="38.0723" y="11.168" width="22.4751" height="24.4751" filterUnits="userSpaceOnUse" color-interpolation-filters="sRGB">
<feFlood flood-opacity="0" result="BackgroundImageFix"/>
<feBlend mode="normal" in="SourceGraphic" in2="BackgroundImageFix" result="shape"/>
<feColorMatrix in="SourceAlpha" type="matrix" values="0 0 0 0 0 0 0 0 0 0 0 0 0 0 0 0 0 0 127 0" result="hardAlpha"/>
<feOffset dy="1"/>
<feGaussianBlur stdDeviation="2"/>
<feComposite in2="hardAlpha" operator="arithmetic" k2="-1" k3="1"/>
<feColorMatrix type="matrix" values="0 0 0 0 0 0 0 0 0 0 0 0 0 0 0 0 0 0 0.4 0"/>
<feBlend mode="normal" in2="shape" result="effect1_innerShadow"/>
<feColorMatrix in="SourceAlpha" type="matrix" values="0 0 0 0 0 0 0 0 0 0 0 0 0 0 0 0 0 0 127 0" result="hardAlpha"/>
<feOffset dy="-1"/>
<feGaussianBlur stdDeviation="2"/>
<feComposite in2="hardAlpha" operator="arithmetic" k2="-1" k3="1"/>
<feColorMatrix type="matrix" values="0 0 0 0 1 0 0 0 0 1 0 0 0 0 1 0 0 0 0.4 0"/>
<feBlend mode="normal" in2="effect1_innerShadow" result="effect2_innerShadow"/>
</filter>
<clipPath id="clip0">
<rect width="163" height="264" fill="white"/>
</clipPath>
</defs>
</svg>
