<svg width="163" height="264" viewBox="0 0 163 264" fill="none" xmlns="http://www.w3.org/2000/svg">
<g clip-path="url(#clip0)">
<path d="M0.648438 15.3526C53.1574 -1.70868 109.719 -1.70868 162.229 15.3526L81.4384 264L0.648438 15.3526Z" fill="#FA441C"/>
<path d="M12.2178 50.9635C57.2068 36.3455 105.669 36.3455 150.658 50.9635L81.4378 263.999L12.2178 50.9635Z" fill="#EF1A40"/>
<g filter="url(#filter0_f)">
<path d="M115.975 13.6158C110.504 12.8638 105.459 16.6898 104.707 22.1612C103.955 27.6326 107.781 32.6776 113.253 33.4295C118.724 34.1815 123.769 30.3556 124.521 24.8841C125.273 19.4127 121.447 14.3677 115.975 13.6158Z" fill="white"/>
</g>
<path d="M115.975 13.6167C110.504 12.8648 105.459 16.6907 104.707 22.1622C103.955 27.6336 107.781 32.6786 113.252 33.4305C118.724 34.1824 123.769 30.3565 124.521 24.8851C125.273 19.4137 121.447 14.3687 115.975 13.6167Z" fill="white"/>
<g filter="url(#filter1_ii)">
<path d="M47.9839 13.4936C42.5099 14.2259 38.6658 19.2571 39.3981 24.7312C40.1303 30.2053 45.1616 34.0493 50.6356 33.3171C56.1097 32.5848 59.9538 27.5536 59.2215 22.0795C58.4893 16.6054 53.458 12.7614 47.9839 13.4936Z" fill="#ED4721"/>
</g>
<path d="M71.2372 196.523C72.6732 196.523 73.7832 196.948 74.5682 197.798C75.3482 198.642 75.7372 199.843 75.7372 201.401V202.377H80.0002V205.849H67.1502V201.401C67.1502 199.778 67.5052 198.56 68.2142 197.745C68.9232 196.931 69.9312 196.523 71.2372 196.523ZM72.9072 202.377V201.744C72.9072 201.223 72.7612 200.81 72.4682 200.505C72.1752 200.194 71.7712 200.039 71.2552 200.039C70.3882 200.039 69.9542 200.52 69.9542 201.48V202.377H72.9072ZM69.8662 188.666C69.8662 188.367 69.8902 188.083 69.9372 187.813L69.9722 187.62L73.2152 187.928C73.1452 188.209 73.1092 188.599 73.1092 189.097C73.1092 189.847 73.2822 190.392 73.6282 190.731C73.9682 191.071 74.4602 191.241 75.1042 191.241H80.0002V194.678H70.0422V192.12L71.6332 191.584V191.417C71.1052 191.13 70.6812 190.731 70.3582 190.222C70.0302 189.706 69.8662 189.187 69.8662 188.666ZM80.1762 181.415C80.1762 183.073 79.7362 184.362 78.8572 185.282C77.9732 186.196 76.7162 186.653 75.0872 186.653C73.4052 186.653 72.1162 186.229 71.2202 185.379C70.3172 184.529 69.8662 183.316 69.8662 181.74C69.8662 180.24 70.2592 179.083 71.0442 178.269C71.8232 177.448 72.9482 177.038 74.4192 177.038H75.9482V183.182C76.5052 183.158 76.9412 182.956 77.2582 182.575C77.5742 182.188 77.7322 181.664 77.7322 181.002C77.7322 180.398 77.6772 179.845 77.5652 179.341C77.4482 178.831 77.2522 178.28 76.9772 177.688H79.4462C79.7222 178.228 79.9122 178.784 80.0182 179.358C80.1232 179.933 80.1762 180.618 80.1762 181.415ZM72.2042 181.617C72.2042 182.021 72.3332 182.361 72.5912 182.637C72.8432 182.906 73.2412 183.064 73.7862 183.111V180.158C73.3062 180.17 72.9222 180.308 72.6352 180.571C72.3482 180.829 72.2042 181.178 72.2042 181.617ZM80.0002 162.87H74.5862C73.9122 162.87 73.4082 162.964 73.0742 163.151C72.7342 163.333 72.5642 163.623 72.5642 164.021C72.5642 164.549 72.7902 164.936 73.2412 165.182C73.6922 165.428 74.3982 165.551 75.3592 165.551H80.0002V168.996H74.5862C73.9122 168.996 73.4082 169.084 73.0742 169.26C72.7342 169.436 72.5642 169.72 72.5642 170.112C72.5642 170.651 72.8052 171.044 73.2852 171.29C73.7662 171.536 74.5512 171.659 75.6412 171.659H80.0002V175.096H70.0422V172.503L71.2722 172.072V171.87C70.8152 171.606 70.4672 171.226 70.2272 170.728C69.9862 170.224 69.8662 169.652 69.8662 169.014C69.8662 167.578 70.3032 166.57 71.1762 165.99V165.718C70.7662 165.437 70.4462 165.047 70.2182 164.549C69.9832 164.045 69.8662 163.491 69.8662 162.888C69.8662 161.71 70.1682 160.84 70.7712 160.277C71.3752 159.715 72.2922 159.434 73.5222 159.434H80.0002V162.87ZM80.0002 153.642V157.078H70.0422V153.642H80.0002ZM67.5632 157.166C67.0482 157.166 66.6642 157.022 66.4122 156.735C66.1602 156.448 66.0342 155.985 66.0342 155.347C66.0342 154.708 66.1632 154.242 66.4212 153.949C66.6792 153.656 67.0602 153.51 67.5632 153.51C68.5712 153.51 69.0752 154.122 69.0752 155.347C69.0752 156.56 68.5712 157.166 67.5632 157.166ZM80.0002 144.149L78.7612 144.58V144.782C79.2182 145.069 79.5692 145.471 79.8152 145.986C80.0562 146.496 80.1762 147.097 80.1762 147.788C80.1762 148.884 79.8592 149.736 79.2272 150.346C78.5882 150.955 77.6882 151.26 76.5282 151.26H70.0422V147.823H75.4822C76.1332 147.823 76.6252 147.732 76.9592 147.551C77.2932 147.363 77.4602 147.059 77.4602 146.637C77.4602 146.045 77.2292 145.623 76.7662 145.371C76.2972 145.119 75.5092 144.993 74.4012 144.993H70.0422V141.557H80.0002V144.149ZM80.0002 126.958H74.5862C73.9122 126.958 73.4082 127.052 73.0742 127.239C72.7342 127.421 72.5642 127.711 72.5642 128.109C72.5642 128.637 72.7902 129.023 73.2412 129.27C73.6922 129.516 74.3982 129.639 75.3592 129.639H80.0002V133.084H74.5862C73.9122 133.084 73.4082 133.172 73.0742 133.348C72.7342 133.523 72.5642 133.808 72.5642 134.2C72.5642 134.739 72.8052 135.132 73.2852 135.378C73.7662 135.624 74.5512 135.747 75.6412 135.747H80.0002V139.184H70.0422V136.591L71.2722 136.16V135.958C70.8152 135.694 70.4672 135.313 70.2272 134.815C69.9862 134.312 69.8662 133.74 69.8662 133.102C69.8662 131.666 70.3032 130.658 71.1762 130.078V129.806C70.7662 129.524 70.4462 129.135 70.2182 128.637C69.9832 128.133 69.8662 127.579 69.8662 126.976C69.8662 125.798 70.1682 124.928 70.7712 124.365C71.3752 123.803 72.2922 123.521 73.5222 123.521H80.0002V126.958ZM67.1502 105.381H74.8852C76.5662 105.381 77.8702 105.858 78.7962 106.813C79.7162 107.763 80.1762 109.134 80.1762 110.927C80.1762 112.679 79.7282 114.026 78.8312 114.97C77.9352 115.907 76.6462 116.376 74.9642 116.376H67.1502V112.887H74.6912C75.6002 112.887 76.2592 112.717 76.6692 112.377C77.0792 112.037 77.2842 111.536 77.2842 110.874C77.2842 110.165 77.0822 109.652 76.6782 109.336C76.2682 109.014 75.6002 108.853 74.6742 108.853H67.1502V105.381ZM76.9412 95.194C78.0082 95.194 78.8132 95.558 79.3582 96.284C79.9032 97.011 80.1762 98.054 80.1762 99.413C80.1762 100.151 80.1352 100.793 80.0532 101.338C79.9772 101.883 79.8332 102.439 79.6222 103.008H76.8712C77.1052 102.475 77.2992 101.892 77.4512 101.259C77.6042 100.62 77.6802 100.052 77.6802 99.554C77.6802 98.81 77.5102 98.437 77.1702 98.437C76.9942 98.437 76.8392 98.543 76.7042 98.754C76.5632 98.959 76.2942 99.562 75.8962 100.564C75.5212 101.479 75.0962 102.117 74.6212 102.48C74.1412 102.844 73.5342 103.025 72.8022 103.025C71.8762 103.025 71.1552 102.668 70.6402 101.953C70.1242 101.238 69.8662 100.228 69.8662 98.921C69.8662 98.265 69.9392 97.649 70.0862 97.075C70.2272 96.495 70.4352 95.895 70.7102 95.273L72.9252 96.205C72.7202 96.662 72.5472 97.146 72.4062 97.655C72.2602 98.165 72.1872 98.581 72.1872 98.903C72.1872 99.466 72.3242 99.747 72.6002 99.747C72.7702 99.747 72.9162 99.65 73.0392 99.457C73.1562 99.258 73.3992 98.689 73.7692 97.752C74.0562 97.055 74.3372 96.536 74.6122 96.196C74.8882 95.851 75.2132 95.599 75.5882 95.44C75.9572 95.276 76.4082 95.194 76.9412 95.194ZM80.1762 88.479C80.1762 90.138 79.7362 91.427 78.8572 92.347C77.9732 93.261 76.7162 93.718 75.0872 93.718C73.4052 93.718 72.1162 93.293 71.2202 92.443C70.3172 91.594 69.8662 90.381 69.8662 88.805C69.8662 87.305 70.2592 86.147 71.0442 85.333C71.8232 84.513 72.9482 84.103 74.4192 84.103H75.9482V90.246C76.5052 90.223 76.9412 90.021 77.2582 89.64C77.5742 89.253 77.7322 88.729 77.7322 88.066C77.7322 87.463 77.6772 86.909 77.5652 86.405C77.4482 85.896 77.2522 85.345 76.9772 84.753H79.4462C79.7222 85.292 79.9122 85.849 80.0182 86.423C80.1232 86.997 80.1762 87.683 80.1762 88.479ZM72.2042 88.682C72.2042 89.086 72.3332 89.426 72.5912 89.701C72.8432 89.971 73.2412 90.129 73.7862 90.176V87.223C73.3062 87.234 72.9222 87.372 72.6352 87.636C72.3482 87.894 72.2042 88.242 72.2042 88.682ZM80.1762 79.066C80.1762 79.775 79.9742 80.396 79.5692 80.93C79.1652 81.457 78.5702 81.867 77.7852 82.16C77.0002 82.447 76.0832 82.591 75.0342 82.591C73.4172 82.591 72.1512 82.266 71.2372 81.615C70.3232 80.965 69.8662 80.071 69.8662 78.935C69.8662 78.378 69.9782 77.892 70.2002 77.476C70.4232 77.054 70.7982 76.67 71.3252 76.324V76.254C70.5462 76.365 69.7672 76.421 68.9872 76.421H66.3242V72.958H80.0002V75.551L78.7432 76.289V76.421C79.6982 77.013 80.1762 77.895 80.1762 79.066ZM77.4602 77.66C77.4602 77.109 77.2872 76.723 76.9412 76.5C76.5962 76.271 76.0622 76.148 75.3422 76.131H75.0692C74.1902 76.131 73.5662 76.257 73.1972 76.509C72.8222 76.761 72.6352 77.156 72.6352 77.695C72.6352 78.146 72.8492 78.498 73.2762 78.75C73.6982 78.996 74.3022 79.119 75.0872 79.119C75.8602 79.119 76.4492 78.993 76.8542 78.741C77.2582 78.489 77.4602 78.129 77.4602 77.66ZM93.8132 177.319C93.8132 178.146 94.1532 178.79 94.8332 179.253C95.5072 179.716 96.4382 179.947 97.6282 179.947C100.101 179.947 101.337 179.007 101.337 177.126C101.337 176.558 101.258 176.007 101.1 175.474C100.941 174.94 100.751 174.404 100.528 173.865H103.464C103.938 174.937 104.176 176.15 104.176 177.504C104.176 179.443 103.613 180.932 102.488 181.969C101.363 183 99.7372 183.516 97.6102 183.516C96.2802 183.516 95.1112 183.267 94.1042 182.769C93.0962 182.265 92.3222 181.544 91.7832 180.606C91.2382 179.663 90.9662 178.556 90.9662 177.284C90.9662 175.896 91.2682 174.568 91.8712 173.303L94.6042 174.366C94.3822 174.841 94.1942 175.315 94.0422 175.79C93.8902 176.265 93.8132 176.774 93.8132 177.319ZM104 165.059L102.682 165.718V165.788C103.256 166.251 103.648 166.723 103.859 167.203C104.07 167.684 104.176 168.305 104.176 169.066C104.176 170.004 103.895 170.742 103.332 171.281C102.77 171.82 101.979 172.09 100.959 172.09C99.8982 172.09 99.1102 171.721 98.5952 170.982C98.0732 170.244 97.7802 169.175 97.7162 167.774L97.6632 166.113H97.5222C96.7022 166.113 96.2922 166.518 96.2922 167.326C96.2922 168.053 96.5382 168.976 97.0302 170.095L94.7632 171.088C94.1652 169.928 93.8662 168.463 93.8662 166.693C93.8662 165.416 94.1832 164.429 94.8152 163.731C95.4482 163.028 96.3332 162.677 97.4702 162.677H104V165.059ZM101.75 167.607C101.75 167.191 101.618 166.837 101.354 166.544C101.091 166.245 100.748 166.096 100.326 166.096H99.5532L99.5882 166.887C99.6292 168.018 100.045 168.583 100.836 168.583C101.445 168.583 101.75 168.258 101.75 167.607ZM93.8662 154.327C93.8662 154.028 93.8902 153.744 93.9372 153.475L93.9722 153.281L97.2152 153.589C97.1452 153.87 97.1092 154.26 97.1092 154.758C97.1092 155.508 97.2822 156.053 97.6282 156.393C97.9682 156.732 98.4602 156.902 99.1042 156.902H104V160.339H94.0422V157.781L95.6332 157.245V157.078C95.1052 156.791 94.6812 156.393 94.3582 155.883C94.0302 155.367 93.8662 154.849 93.8662 154.327ZM100.941 144.193C102.008 144.193 102.813 144.557 103.358 145.283C103.903 146.01 104.176 147.053 104.176 148.412C104.176 149.15 104.135 149.792 104.053 150.337C103.977 150.882 103.833 151.438 103.622 152.007H100.871C101.105 151.474 101.299 150.891 101.451 150.258C101.604 149.619 101.68 149.051 101.68 148.553C101.68 147.809 101.51 147.437 101.17 147.437C100.994 147.437 100.839 147.542 100.704 147.753C100.563 147.958 100.294 148.562 99.8962 149.563C99.5212 150.478 99.0962 151.116 98.6212 151.479C98.1412 151.843 97.5342 152.024 96.8022 152.024C95.8762 152.024 95.1552 151.667 94.6402 150.952C94.1242 150.237 93.8662 149.227 93.8662 147.92C93.8662 147.264 93.9392 146.648 94.0862 146.074C94.2272 145.494 94.4352 144.894 94.7102 144.272L96.9252 145.204C96.7202 145.661 96.5472 146.145 96.4062 146.654C96.2602 147.164 96.1872 147.58 96.1872 147.902C96.1872 148.465 96.3242 148.746 96.6002 148.746C96.7702 148.746 96.9162 148.649 97.0392 148.456C97.1562 148.257 97.3992 147.688 97.7692 146.751C98.0562 146.054 98.3372 145.535 98.6122 145.195C98.8882 144.85 99.2132 144.598 99.5882 144.439C99.9572 144.275 100.408 144.193 100.941 144.193ZM98.8852 138.146C97.1862 138.146 95.6532 137.938 94.2882 137.522C92.9232 137.106 91.7572 136.494 90.7902 135.686V132.82C91.8152 133.559 93.0222 134.127 94.4112 134.525C95.8002 134.924 97.2852 135.123 98.8672 135.123C100.396 135.123 101.85 134.93 103.227 134.543C104.598 134.156 105.805 133.588 106.848 132.838V135.686C105.922 136.488 104.785 137.101 103.437 137.522C102.09 137.938 100.572 138.146 98.8852 138.146ZM98.8322 128.426V131.695H96.4772V128.426H93.2512V126.062H96.4772V122.792H98.8322V126.062H102.005V128.426H98.8322ZM104 113.854V117.378H97.1972C96.3712 117.378 95.6152 117.36 94.9302 117.325C95.1932 117.542 95.4692 117.812 95.7562 118.134L96.9602 119.593L94.7452 121.395L91.1502 116.982V113.854H104ZM97.5932 101.672C99.8662 101.672 101.533 102.053 102.594 102.814C103.648 103.576 104.176 104.742 104.176 106.312C104.176 107.848 103.625 109.005 102.523 109.784C101.416 110.563 99.7722 110.953 97.5932 110.953C95.3082 110.953 93.6322 110.572 92.5652 109.811C91.4992 109.049 90.9662 107.883 90.9662 106.312C90.9662 104.783 91.5222 103.629 92.6362 102.85C93.7432 102.064 95.3962 101.672 97.5932 101.672ZM97.5932 107.499C99.0462 107.499 100.045 107.408 100.59 107.227C101.135 107.045 101.407 106.74 101.407 106.312C101.407 105.879 101.126 105.574 100.563 105.398C100.001 105.217 99.0112 105.126 97.5932 105.126C96.1692 105.126 95.1732 105.217 94.6042 105.398C94.0302 105.58 93.7432 105.885 93.7432 106.312C93.7432 106.74 94.0192 107.045 94.5692 107.227C95.1202 107.408 96.1282 107.499 97.5932 107.499ZM98.8852 95.221C100.543 95.221 102.052 95.432 103.411 95.854C104.765 96.27 105.91 96.882 106.848 97.69V100.538C105.84 99.8 104.645 99.234 103.262 98.842C101.873 98.449 100.408 98.253 98.8672 98.253C97.3142 98.253 95.8472 98.446 94.4642 98.833C93.0752 99.22 91.8512 99.794 90.7902 100.556V97.69C91.7632 96.876 92.9402 96.261 94.3232 95.845C95.7062 95.429 97.2272 95.221 98.8852 95.221Z" fill="#333333"/>
</g>
<defs>
<filter id="filter0_f" x="87.3457" y="-3.74609" width="54.5367" height="54.5367" filterUnits="userSpaceOnUse" color-interpolation-filters="sRGB">
<feFlood flood-opacity="0" result="BackgroundImageFix"/>
<feBlend mode="normal" in="SourceGraphic" in2="BackgroundImageFix" result="shape"/>
<feGaussianBlur stdDeviation="8" result="effect1_foregroundBlur"/>
</filter>
<filter id="filter1_ii" x="38.0723" y="11.168" width="22.4751" height="24.4751" filterUnits="userSpaceOnUse" color-interpolation-filters="sRGB">
<feFlood flood-opacity="0" result="BackgroundImageFix"/>
<feBlend mode="normal" in="SourceGraphic" in2="BackgroundImageFix" result="shape"/>
<feColorMatrix in="SourceAlpha" type="matrix" values="0 0 0 0 0 0 0 0 0 0 0 0 0 0 0 0 0 0 127 0" result="hardAlpha"/>
<feOffset dy="1"/>
<feGaussianBlur stdDeviation="2"/>
<feComposite in2="hardAlpha" operator="arithmetic" k2="-1" k3="1"/>
<feColorMatrix type="matrix" values="0 0 0 0 0 0 0 0 0 0 0 0 0 0 0 0 0 0 0.4 0"/>
<feBlend mode="normal" in2="shape" result="effect1_innerShadow"/>
<feColorMatrix in="SourceAlpha" type="matrix" values="0 0 0 0 0 0 0 0 0 0 0 0 0 0 0 0 0 0 127 0" result="hardAlpha"/>
<feOffset dy="-1"/>
<feGaussianBlur stdDeviation="2"/>
<feComposite in2="hardAlpha" operator="arithmetic" k2="-1" k3="1"/>
<feColorMatrix type="matrix" values="0 0 0 0 1 0 0 0 0 1 0 0 0 0 1 0 0 0 0.4 0"/>
<feBlend mode="normal" in2="effect1_innerShadow" result="effect2_innerShadow"/>
</filter>
<clipPath id="clip0">
<rect width="163" height="264" fill="white"/>
</clipPath>
</defs>
</svg>
