<svg width="163" height="264" viewBox="0 0 163 264" fill="none" xmlns="http://www.w3.org/2000/svg">
<g clip-path="url(#clip0)">
<path d="M0.648438 15.3526C53.1574 -1.70868 109.719 -1.70868 162.229 15.3526L81.4384 264L0.648438 15.3526Z" fill="#FA441C"/>
<path d="M12.2178 50.9635C57.2068 36.3455 105.669 36.3455 150.658 50.9635L81.4378 263.999L12.2178 50.9635Z" fill="#D94449"/>
<path d="M74.0977 192.151C74.8945 192.151 75.6035 192.354 76.2246 192.758C76.8398 193.162 77.3203 193.745 77.666 194.507C78.0059 195.269 78.1758 196.162 78.1758 197.187C78.1758 198.043 78.1172 198.761 78 199.341C77.877 199.921 77.666 200.524 77.3672 201.151L74.2734 201.151C74.6133 200.489 74.8799 199.801 75.0732 199.086C75.2607 198.371 75.3545 197.715 75.3545 197.117C75.3545 196.602 75.2666 196.224 75.0908 195.983C74.9092 195.743 74.6777 195.623 74.3965 195.623C74.2207 195.623 74.0684 195.673 73.9395 195.772C73.8047 195.866 73.6699 196.021 73.5352 196.238C73.4004 196.449 73.125 197.018 72.709 197.943C72.3281 198.781 71.959 199.411 71.6016 199.833C71.2441 200.249 70.834 200.56 70.3711 200.765C69.9082 200.964 69.3604 201.063 68.7275 201.063C67.5439 201.063 66.6211 200.633 65.959 199.771C65.2969 198.91 64.9658 197.727 64.9658 196.221C64.9658 194.891 65.2734 193.534 65.8887 192.151L68.5693 193.215C68.0186 194.416 67.7432 195.453 67.7432 196.326C67.7432 196.777 67.8223 197.105 67.9805 197.311C68.1387 197.516 68.335 197.618 68.5693 197.618C68.8213 197.618 69.0469 197.489 69.2461 197.231C69.4453 196.968 69.8086 196.259 70.3359 195.104C70.834 193.997 71.3701 193.229 71.9443 192.802C72.5127 192.368 73.2305 192.151 74.0977 192.151Z" fill="white"/>
<path d="M72.999 180.857C74.6279 180.857 75.8994 181.297 76.8135 182.176C77.7217 183.049 78.1758 184.273 78.1758 185.85C78.1758 187.361 77.71 188.565 76.7783 189.462C75.8467 190.353 74.5869 190.798 72.999 190.798C71.376 190.798 70.1162 190.361 69.2197 189.488C68.3174 188.609 67.8662 187.379 67.8662 185.797C67.8662 184.818 68.0742 183.954 68.4902 183.204C68.9062 182.454 69.5039 181.877 70.2832 181.473C71.0566 181.063 71.9619 180.857 72.999 180.857ZM72.999 187.309C73.8545 187.309 74.5078 187.194 74.959 186.966C75.4043 186.737 75.627 186.354 75.627 185.814C75.627 185.281 75.4043 184.906 74.959 184.689C74.5078 184.467 73.8545 184.355 72.999 184.355C72.1494 184.355 71.5078 184.467 71.0742 184.689C70.6406 184.912 70.4238 185.293 70.4238 185.832C70.4238 186.359 70.6406 186.737 71.0742 186.966C71.502 187.194 72.1436 187.309 72.999 187.309Z" fill="white"/>
<path d="M67.8662 172.877C67.8662 172.578 67.8896 172.294 67.9365 172.024L67.9717 171.831L71.2148 172.139C71.1445 172.42 71.1094 172.81 71.1094 173.308C71.1094 174.058 71.2822 174.603 71.6279 174.942C71.9678 175.282 72.46 175.452 73.1045 175.452L78 175.452L78 178.889L68.042 178.889L68.042 176.331L69.6328 175.795L69.6328 175.628C69.1055 175.341 68.6807 174.942 68.3584 174.433C68.0303 173.917 67.8662 173.398 67.8662 172.877Z" fill="white"/>
<path d="M67.8662 164.422C67.8662 164.123 67.8896 163.839 67.9365 163.569L67.9717 163.376L71.2148 163.684C71.1445 163.965 71.1094 164.354 71.1094 164.853C71.1094 165.603 71.2822 166.147 71.6279 166.487C71.9678 166.827 72.46 166.997 73.1045 166.997L78 166.997L78 170.434L68.042 170.434L68.042 167.876L69.6328 167.34L69.6328 167.173C69.1055 166.886 68.6807 166.487 68.3584 165.978C68.0303 165.462 67.8662 164.943 67.8662 164.422Z" fill="white"/>
<path d="M68.042 163.183L68.042 159.562L73.7549 157.874C74.0537 157.792 74.4141 157.736 74.8359 157.707L74.8359 157.637C74.4316 157.59 74.0771 157.52 73.7725 157.426L68.042 155.694L68.042 152.188L78.6328 156.125C79.9805 156.629 80.9326 157.25 81.4893 157.988C82.0459 158.721 82.3242 159.679 82.3242 160.862C82.3242 161.319 82.2744 161.788 82.1748 162.269L79.4766 162.269C79.5469 161.958 79.582 161.604 79.582 161.205C79.582 160.9 79.5234 160.634 79.4062 160.405C79.2891 160.177 79.1221 159.978 78.9053 159.808C78.6943 159.638 78.3457 159.456 77.8594 159.263L68.042 163.183Z" fill="white"/>
<path d="M75.3721 147.802L75.5742 147.679C77.8066 148.247 79.4502 148.763 80.5049 149.226L80.5049 151.678C79.6963 151.508 78.791 151.338 77.7891 151.168C76.7812 150.992 75.9756 150.872 75.3721 150.808L75.3721 147.802Z" fill="white"/>
<path d="M78 134.873L78 138.345L67.9893 138.345L67.9893 141.482L65.1504 141.482L65.1504 131.744L67.9893 131.744L67.9893 134.873L78 134.873Z" fill="white"/>
<path d="M67.8662 124.098C67.8662 123.799 67.8896 123.515 67.9365 123.245L67.9717 123.052L71.2148 123.359C71.1445 123.641 71.1094 124.03 71.1094 124.528C71.1094 125.278 71.2822 125.823 71.6279 126.163C71.9678 126.503 72.46 126.673 73.1045 126.673L78 126.673L78 130.109L68.042 130.109L68.042 127.552L69.6328 127.016L69.6328 126.849C69.1055 126.562 68.6807 126.163 68.3584 125.653C68.0303 125.138 67.8662 124.619 67.8662 124.098Z" fill="white"/>
<path d="M68.042 122.858L68.042 119.237L73.7549 117.55C74.0537 117.468 74.4141 117.412 74.8359 117.383L74.8359 117.313C74.4316 117.266 74.0771 117.195 73.7725 117.102L68.042 115.37L68.042 111.863L78.6328 115.801C79.9805 116.305 80.9326 116.926 81.4893 117.664C82.0459 118.396 82.3242 119.354 82.3242 120.538C82.3242 120.995 82.2744 121.464 82.1748 121.944L79.4766 121.944C79.5469 121.634 79.582 121.279 79.582 120.881C79.582 120.576 79.5234 120.31 79.4062 120.081C79.2891 119.853 79.1221 119.653 78.9053 119.483C78.6943 119.313 78.3457 119.132 77.8594 118.938L68.042 122.858Z" fill="white"/>
<path d="M78 97.9063L75.5918 98.5391L75.5918 102.714L78 103.364L78 107.179L65.0977 102.986L65.0977 98.3545L78 94.1094L78 97.9063ZM72.7441 99.2598L70.6348 99.8135C70.166 99.9424 69.5596 100.101 68.8154 100.288C68.0713 100.47 67.5381 100.59 67.2158 100.648C67.5146 100.701 68.0068 100.807 68.6924 100.965C69.3779 101.117 70.7285 101.46 72.7441 101.993L72.7441 99.2598Z" fill="white"/>
<path d="M68.042 83.5186L69.7031 83.5186L70.2041 84.8809C70.5439 84.6934 70.9394 84.5996 71.3906 84.5996C72.4629 84.5996 73.2949 84.9775 73.8867 85.7334C74.4785 86.4834 74.7744 87.6055 74.7744 89.0996C74.7744 89.4688 74.751 89.7617 74.7041 89.9785C74.8564 90.0606 75 90.1016 75.1348 90.1016C75.3047 90.1016 75.4365 89.9639 75.5303 89.6885C75.6182 89.4131 75.6621 89.0527 75.6621 88.6074L75.6621 86.9551C75.6621 84.7227 76.6025 83.6065 78.4834 83.6065C79.6963 83.6065 80.6396 84.125 81.3135 85.1621C81.9873 86.1934 82.3242 87.6436 82.3242 89.5127C82.3242 90.9248 82.0869 92.0147 81.6123 92.7822C81.1435 93.544 80.4668 93.9248 79.582 93.9248C78.3926 93.9248 77.625 93.1865 77.2793 91.71C77.1504 92.0147 76.9424 92.2813 76.6553 92.5098C76.3682 92.7324 76.084 92.8438 75.8027 92.8438C75.4922 92.8438 75.2197 92.7588 74.9853 92.5889C74.7451 92.419 74.4609 92.0645 74.1328 91.5254C73.9043 92.041 73.5469 92.4482 73.0605 92.7471C72.5742 93.04 71.9824 93.1865 71.2852 93.1865C70.2012 93.1865 69.3603 92.8174 68.7627 92.0791C68.165 91.3408 67.8662 90.2861 67.8662 88.915C67.8662 88.7334 67.8867 88.4199 67.9277 87.9746C67.9687 87.5293 68.0068 87.2012 68.042 86.9902L68.042 83.5186ZM79.2393 91.0244C79.5205 91.0244 79.7461 90.8721 79.916 90.5674C80.0918 90.2627 80.1797 89.8555 80.1797 89.3457C80.1797 88.5137 80.0742 87.8486 79.8633 87.3506C79.6582 86.8467 79.3916 86.5947 79.0635 86.5947C78.7998 86.5947 78.6123 86.7471 78.501 87.0518C78.3955 87.3565 78.3428 87.793 78.3428 88.3613L78.3428 89.7061C78.3428 90.0752 78.4277 90.3887 78.5977 90.6465C78.7734 90.8984 78.9873 91.0244 79.2393 91.0244ZM71.3027 89.9434C72.3223 89.9434 72.832 89.5889 72.832 88.8799C72.832 88.5518 72.706 88.2998 72.4541 88.124C72.2021 87.9424 71.8242 87.8516 71.3203 87.8516C70.2891 87.8516 69.7734 88.1943 69.7734 88.8799C69.7734 89.5889 70.2832 89.9434 71.3027 89.9434Z" fill="white"/>
<path d="M78 75.5029L76.6816 76.1621L76.6816 76.2324C77.2559 76.6953 77.6484 77.167 77.8594 77.6475C78.0703 78.1279 78.1758 78.749 78.1758 79.5107C78.1758 80.4482 77.8945 81.1865 77.332 81.7256C76.7695 82.2647 75.9785 82.5342 74.959 82.5342C73.8984 82.5342 73.1103 82.165 72.5947 81.4268C72.0732 80.6885 71.7803 79.6191 71.7158 78.2188L71.6631 76.5576L71.5225 76.5576C70.7021 76.5576 70.292 76.9619 70.292 77.7705C70.292 78.4971 70.5381 79.4199 71.0303 80.5391L68.7627 81.5322C68.165 80.3721 67.8662 78.9072 67.8662 77.1377C67.8662 75.8604 68.1826 74.8731 68.8154 74.1758C69.4482 73.4727 70.333 73.1211 71.4697 73.1211L78 73.1211L78 75.5029ZM75.75 78.0518C75.75 77.6357 75.6182 77.2813 75.3545 76.9883C75.0908 76.6895 74.748 76.54 74.3262 76.54L73.5527 76.54L73.5879 77.3311C73.6289 78.4619 74.0449 79.0274 74.8359 79.0274C75.4453 79.0274 75.75 78.7022 75.75 78.0518Z" fill="white"/>
<path d="M78 67.3291L78 70.7656L68.042 70.7656L68.042 67.3291L78 67.3291ZM65.5635 70.8535C65.0478 70.8535 64.6641 70.71 64.4121 70.4229C64.1602 70.1357 64.0342 69.6729 64.0342 69.0342C64.0342 68.3955 64.1631 67.9297 64.4209 67.6367C64.6787 67.3438 65.0596 67.1973 65.5635 67.1973C66.5713 67.1973 67.0752 67.8096 67.0752 69.0342C67.0752 70.2471 66.5713 70.8535 65.5635 70.8535Z" fill="white"/>
<path d="M78 58.6455L72.5684 58.6455C71.9062 58.6455 71.4082 58.7422 71.0742 58.9356C70.7344 59.1231 70.5644 59.4277 70.5644 59.8496C70.5644 60.4297 70.7959 60.8486 71.2588 61.1065C71.7217 61.3643 72.5156 61.4932 73.6406 61.4932L78 61.4932L78 64.9297L68.042 64.9297L68.042 62.3369L69.2725 61.9063L69.2725 61.7041C68.8037 61.4111 68.4521 61.0068 68.2178 60.4912C67.9834 59.9697 67.8662 59.3721 67.8662 58.6983C67.8662 57.5967 68.1855 56.7412 68.8242 56.1318C69.4629 55.5166 70.3623 55.209 71.5225 55.209L78 55.209L78 58.6455Z" fill="white"/>
<path d="M96.8848 144.189C95.1855 144.189 93.6533 143.981 92.2881 143.565C90.9228 143.149 89.7568 142.537 88.79 141.729L88.79 138.863C89.8154 139.602 91.0225 140.17 92.4111 140.568C93.7998 140.967 95.2852 141.166 96.8672 141.166C98.3965 141.166 99.8496 140.973 101.227 140.586C102.598 140.199 103.805 139.631 104.848 138.881L104.848 141.729C103.922 142.531 102.785 143.144 101.437 143.565C100.09 143.981 98.5723 144.189 96.8848 144.189Z" fill="white"/>
<path d="M96.832 134.469L96.832 137.738L94.4766 137.738L94.4766 134.469L91.251 134.469L91.251 132.104L94.4766 132.104L94.4766 128.835L96.832 128.835L96.832 132.104L100.005 132.104L100.005 134.469L96.832 134.469Z" fill="white"/>
<path d="M95.5928 118.262C97.8662 118.262 99.5332 118.643 100.594 119.404C101.648 120.166 102.176 121.332 102.176 122.902C102.176 124.438 101.625 125.595 100.523 126.374C99.416 127.153 97.7725 127.543 95.5928 127.543C93.3076 127.543 91.6318 127.162 90.5654 126.4C89.499 125.639 88.9658 124.473 88.9658 122.902C88.9658 121.373 89.5225 120.219 90.6357 119.439C91.7432 118.654 93.3955 118.262 95.5928 118.262ZM95.5928 124.089C97.0459 124.089 98.0449 123.998 98.5898 123.816C99.1348 123.635 99.4072 123.33 99.4072 122.902C99.4072 122.469 99.126 122.164 98.5635 121.988C98.001 121.807 97.0107 121.716 95.5928 121.716C94.1689 121.716 93.1728 121.807 92.6045 121.988C92.0303 122.17 91.7432 122.475 91.7432 122.902C91.7432 123.33 92.0185 123.635 92.5693 123.816C93.1201 123.998 94.1279 124.089 95.5928 124.089Z" fill="white"/>
<path d="M96.8848 111.811C98.543 111.811 100.052 112.021 101.411 112.443C102.765 112.859 103.91 113.472 104.848 114.28L104.848 117.128C103.84 116.39 102.645 115.824 101.262 115.432C99.873 115.039 98.4082 114.843 96.8672 114.843C95.3144 114.843 93.8467 115.036 92.4639 115.423C91.0752 115.81 89.8506 116.384 88.79 117.146L88.79 114.28C89.7627 113.466 90.9404 112.851 92.3232 112.435C93.706 112.019 95.2266 111.811 96.8848 111.811Z" fill="white"/>
<g filter="url(#filter0_f)">
<path d="M115.976 13.6158C110.504 12.8638 105.459 16.6898 104.707 22.1612C103.955 27.6326 107.781 32.6776 113.253 33.4295C118.724 34.1815 123.769 30.3556 124.521 24.8841C125.273 19.4127 121.447 14.3677 115.976 13.6158Z" fill="white"/>
</g>
<path d="M115.975 13.6167C110.504 12.8648 105.459 16.6907 104.707 22.1622C103.955 27.6336 107.781 32.6786 113.252 33.4305C118.724 34.1824 123.769 30.3565 124.521 24.8851C125.273 19.4137 121.447 14.3687 115.975 13.6167Z" fill="white"/>
<g filter="url(#filter1_ii)">
<g filter="url(#filter2_ii)">
<path d="M47.9839 13.4936C42.5099 14.2259 38.6658 19.2571 39.3981 24.7312C40.1303 30.2053 45.1616 34.0493 50.6356 33.3171C56.1097 32.5848 59.9538 27.5536 59.2215 22.0795C58.4893 16.6054 53.458 12.7614 47.9839 13.4936Z" fill="#ED4721"/>
</g>
</g>
</g>
<defs>
<filter id="filter0_f" x="87.3457" y="-3.74609" width="54.5367" height="54.5367" filterUnits="userSpaceOnUse" color-interpolation-filters="sRGB">
<feFlood flood-opacity="0" result="BackgroundImageFix"/>
<feBlend mode="normal" in="SourceGraphic" in2="BackgroundImageFix" result="shape"/>
<feGaussianBlur stdDeviation="8" result="effect1_foregroundBlur"/>
</filter>
<filter id="filter1_ii" x="38.0723" y="11.168" width="22.4751" height="24.4751" filterUnits="userSpaceOnUse" color-interpolation-filters="sRGB">
<feFlood flood-opacity="0" result="BackgroundImageFix"/>
<feBlend mode="normal" in="SourceGraphic" in2="BackgroundImageFix" result="shape"/>
<feColorMatrix in="SourceAlpha" type="matrix" values="0 0 0 0 0 0 0 0 0 0 0 0 0 0 0 0 0 0 127 0" result="hardAlpha"/>
<feOffset dy="1"/>
<feGaussianBlur stdDeviation="2"/>
<feComposite in2="hardAlpha" operator="arithmetic" k2="-1" k3="1"/>
<feColorMatrix type="matrix" values="0 0 0 0 0 0 0 0 0 0 0 0 0 0 0 0 0 0 0.4 0"/>
<feBlend mode="normal" in2="shape" result="effect1_innerShadow"/>
<feColorMatrix in="SourceAlpha" type="matrix" values="0 0 0 0 0 0 0 0 0 0 0 0 0 0 0 0 0 0 127 0" result="hardAlpha"/>
<feOffset dy="-1"/>
<feGaussianBlur stdDeviation="2"/>
<feComposite in2="hardAlpha" operator="arithmetic" k2="-1" k3="1"/>
<feColorMatrix type="matrix" values="0 0 0 0 1 0 0 0 0 1 0 0 0 0 1 0 0 0 0.4 0"/>
<feBlend mode="normal" in2="effect1_innerShadow" result="effect2_innerShadow"/>
</filter>
<filter id="filter2_ii" x="38.0723" y="12.168" width="22.4751" height="22.4751" filterUnits="userSpaceOnUse" color-interpolation-filters="sRGB">
<feFlood flood-opacity="0" result="BackgroundImageFix"/>
<feBlend mode="normal" in="SourceGraphic" in2="BackgroundImageFix" result="shape"/>
<feColorMatrix in="SourceAlpha" type="matrix" values="0 0 0 0 0 0 0 0 0 0 0 0 0 0 0 0 0 0 127 0" result="hardAlpha"/>
<feOffset dy="1"/>
<feComposite in2="hardAlpha" operator="arithmetic" k2="-1" k3="1"/>
<feColorMatrix type="matrix" values="0 0 0 0 0 0 0 0 0 0 0 0 0 0 0 0 0 0 0.4 0"/>
<feBlend mode="normal" in2="shape" result="effect1_innerShadow"/>
<feColorMatrix in="SourceAlpha" type="matrix" values="0 0 0 0 0 0 0 0 0 0 0 0 0 0 0 0 0 0 127 0" result="hardAlpha"/>
<feOffset dy="-1"/>
<feComposite in2="hardAlpha" operator="arithmetic" k2="-1" k3="1"/>
<feColorMatrix type="matrix" values="0 0 0 0 1 0 0 0 0 1 0 0 0 0 1 0 0 0 0.4 0"/>
<feBlend mode="normal" in2="effect1_innerShadow" result="effect2_innerShadow"/>
</filter>
<clipPath id="clip0">
<rect width="163" height="264" fill="white"/>
</clipPath>
</defs>
</svg>
