<svg width="163" height="264" viewBox="0 0 163 264" fill="none" xmlns="http://www.w3.org/2000/svg">
<g clip-path="url(#clip0)">
<path d="M0.648438 15.3526C53.1574 -1.70868 109.719 -1.70868 162.229 15.3526L81.4384 264L0.648438 15.3526Z" fill="#FA441C"/>
<path d="M12.2178 50.9635C57.2068 36.3455 105.669 36.3455 150.658 50.9635L81.4378 263.999L12.2178 50.9635Z" fill="#52A3D0"/>
<g filter="url(#filter0_f)">
<path d="M115.975 13.6158C110.504 12.8638 105.459 16.6898 104.707 22.1612C103.955 27.6326 107.781 32.6776 113.253 33.4295C118.724 34.1815 123.769 30.3556 124.521 24.8841C125.273 19.4127 121.447 14.3677 115.975 13.6158Z" fill="white"/>
</g>
<path d="M115.975 13.6167C110.504 12.8648 105.459 16.6907 104.707 22.1622C103.955 27.6336 107.781 32.6786 113.252 33.4305C118.724 34.1824 123.769 30.3565 124.521 24.8851C125.273 19.4137 121.447 14.3687 115.975 13.6167Z" fill="white"/>
<g filter="url(#filter1_ii)">
<path d="M47.9839 13.4936C42.5099 14.2259 38.6658 19.2571 39.3981 24.7312C40.1303 30.2053 45.1616 34.0493 50.6356 33.3171C56.1097 32.5848 59.9538 27.5536 59.2215 22.0795C58.4893 16.6054 53.458 12.7614 47.9839 13.4936Z" fill="#ED4721"/>
</g>
<path d="M88.0002 187.732V191.749L83.9832 194.254L88.0002 196.732V200.661L81.4262 196.398L75.1502 200.406V196.557L79.1232 194.236L75.1502 192.004V188.04L81.6982 192.109L88.0002 187.732ZM88.0002 177.81V187.135H85.7152L82.5422 183.997C81.6042 183.101 80.9662 182.515 80.6262 182.239C80.2802 181.964 79.9842 181.773 79.7382 181.668C79.4922 181.557 79.2342 181.501 78.9652 181.501C78.6312 181.501 78.3672 181.609 78.1742 181.826C77.9802 182.043 77.8842 182.348 77.8842 182.74C77.8842 183.145 78.0012 183.555 78.2352 183.971C78.4642 184.381 78.8042 184.847 79.2552 185.368L77.0222 187.275C76.4312 186.613 76.0092 186.057 75.7572 185.605C75.4992 185.154 75.3032 184.665 75.1682 184.138C75.0332 183.604 74.9662 183.007 74.9662 182.345C74.9662 181.513 75.1122 180.771 75.4052 180.121C75.6982 179.465 76.1172 178.958 76.6622 178.601C77.2012 178.237 77.8082 178.056 78.4812 178.056C78.9852 178.056 79.4512 178.12 79.8792 178.249C80.3072 178.372 80.7292 178.565 81.1452 178.829C81.5552 179.093 81.9882 179.444 82.4452 179.884C82.9022 180.317 83.7702 181.246 85.0472 182.67H85.1352V177.81H88.0002ZM88.0002 165.391V168.862H77.9892V172H75.1502V162.262H77.9892V165.391H88.0002ZM82.9992 151.117C84.6282 151.117 85.8992 151.557 86.8132 152.436C87.7222 153.309 88.1762 154.533 88.1762 156.109C88.1762 157.621 87.7102 158.825 86.7782 159.722C85.8472 160.612 84.5872 161.058 82.9992 161.058C81.3762 161.058 80.1162 160.621 79.2202 159.748C78.3172 158.869 77.8662 157.639 77.8662 156.057C77.8662 155.078 78.0742 154.214 78.4902 153.464C78.9062 152.714 79.5042 152.137 80.2832 151.732C81.0572 151.322 81.9622 151.117 82.9992 151.117ZM82.9992 157.568C83.8542 157.568 84.5082 157.454 84.9592 157.226C85.4042 156.997 85.6272 156.613 85.6272 156.074C85.6272 155.541 85.4042 155.166 84.9592 154.949C84.5082 154.727 83.8542 154.615 82.9992 154.615C82.1492 154.615 81.5082 154.727 81.0742 154.949C80.6412 155.172 80.4242 155.553 80.4242 156.092C80.4242 156.619 80.6412 156.997 81.0742 157.226C81.5022 157.454 82.1442 157.568 82.9992 157.568ZM85.4602 144.271C85.4602 143.808 85.3462 143.254 85.1172 142.609H87.6222C87.8212 143.072 87.9622 143.515 88.0442 143.937C88.1322 144.353 88.1762 144.842 88.1762 145.404C88.1762 146.559 87.8952 147.391 87.3322 147.9C86.7642 148.41 85.8942 148.665 84.7222 148.665H80.6172V149.869H79.2202L78.1392 148.34L76.0472 147.452V145.202H78.0422V142.759H80.6172V145.202H84.4932C85.1382 145.202 85.4602 144.892 85.4602 144.271ZM88.0002 134.374L86.6822 135.033V135.104C87.2562 135.566 87.6482 136.038 87.8592 136.519C88.0702 136.999 88.1762 137.62 88.1762 138.382C88.1762 139.319 87.8952 140.058 87.3322 140.597C86.7702 141.136 85.9792 141.405 84.9592 141.405C83.8982 141.405 83.1102 141.036 82.5952 140.298C82.0732 139.56 81.7802 138.49 81.7162 137.09L81.6632 135.429H81.5222C80.7022 135.429 80.2922 135.833 80.2922 136.642C80.2922 137.368 80.5382 138.291 81.0302 139.41L78.7632 140.403C78.1652 139.243 77.8662 137.778 77.8662 136.009C77.8662 134.731 78.1832 133.744 78.8152 133.047C79.4482 132.344 80.3332 131.992 81.4702 131.992H88.0002V134.374ZM85.7502 136.923C85.7502 136.507 85.6182 136.152 85.3542 135.859C85.0912 135.561 84.7482 135.411 84.3262 135.411H83.5532L83.5882 136.202C83.6292 137.333 84.0452 137.898 84.8362 137.898C85.4452 137.898 85.7502 137.573 85.7502 136.923ZM88.0002 126.218V129.654H74.3242V126.218H88.0002ZM79.2372 109.633C80.6732 109.633 81.7832 110.058 82.5682 110.907C83.3482 111.751 83.7372 112.952 83.7372 114.511V115.486H88.0002V118.958H75.1502V114.511C75.1502 112.888 75.5052 111.669 76.2142 110.854C76.9232 110.04 77.9312 109.633 79.2372 109.633ZM80.9072 115.486V114.854C80.9072 114.332 80.7612 113.919 80.4682 113.614C80.1752 113.304 79.7712 113.148 79.2552 113.148C78.3882 113.148 77.9542 113.629 77.9542 114.59V115.486H80.9072ZM82.9992 98.2774C84.6282 98.2774 85.8992 98.7174 86.8132 99.5964C87.7222 100.469 88.1762 101.693 88.1762 103.27C88.1762 104.781 87.7102 105.985 86.7782 106.882C85.8472 107.772 84.5872 108.218 82.9992 108.218C81.3762 108.218 80.1162 107.781 79.2202 106.908C78.3172 106.029 77.8662 104.799 77.8662 103.217C77.8662 102.238 78.0742 101.374 78.4902 100.624C78.9062 99.8744 79.5042 99.2974 80.2832 98.8934C81.0572 98.4824 81.9622 98.2774 82.9992 98.2774ZM82.9992 104.729C83.8542 104.729 84.5082 104.614 84.9592 104.386C85.4042 104.157 85.6272 103.773 85.6272 103.234C85.6272 102.701 85.4042 102.326 84.9592 102.109C84.5082 101.887 83.8542 101.775 82.9992 101.775C82.1492 101.775 81.5082 101.887 81.0742 102.109C80.6412 102.332 80.4242 102.713 80.4242 103.252C80.4242 103.779 80.6412 104.157 81.0742 104.386C81.5022 104.614 82.1442 104.729 82.9992 104.729ZM88.0002 92.8544V96.2914H78.0422V92.8544H88.0002ZM75.5632 96.3794C75.0482 96.3794 74.6642 96.2354 74.4122 95.9484C74.1602 95.6614 74.0342 95.1984 74.0342 94.5604C74.0342 93.9214 74.1632 93.4554 74.4212 93.1624C74.6792 92.8694 75.0602 92.7234 75.5632 92.7234C76.5712 92.7234 77.0752 93.3354 77.0752 94.5604C77.0752 95.7724 76.5712 96.3794 75.5632 96.3794ZM88.0002 84.1714H82.5682C81.9062 84.1714 81.4082 84.2684 81.0742 84.4614C80.7342 84.6484 80.5642 84.9534 80.5642 85.3754C80.5642 85.9554 80.7962 86.3744 81.2592 86.6324C81.7222 86.8904 82.5162 87.0194 83.6412 87.0194H88.0002V90.4554H78.0422V87.8624L79.2722 87.4324V87.2294C78.8042 86.9374 78.4522 86.5324 78.2182 86.0174C77.9832 85.4954 77.8662 84.8974 77.8662 84.2244C77.8662 83.1224 78.1862 82.2674 78.8242 81.6574C79.4632 81.0424 80.3622 80.7344 81.5222 80.7344H88.0002V84.1714ZM85.4602 73.5194C85.4602 73.0564 85.3462 72.5024 85.1172 71.8574H87.6222C87.8212 72.3204 87.9622 72.7634 88.0442 73.1854C88.1322 73.6014 88.1762 74.0904 88.1762 74.6524C88.1762 75.8074 87.8952 76.6394 87.3322 77.1484C86.7642 77.6584 85.8942 77.9134 84.7222 77.9134H80.6172V79.1174H79.2202L78.1392 77.5884L76.0472 76.7004V74.4504H78.0422V72.0074H80.6172V74.4504H84.4932C85.1382 74.4504 85.4602 74.1404 85.4602 73.5194Z" fill="#333333"/>
</g>
<defs>
<filter id="filter0_f" x="87.3457" y="-3.74609" width="54.5367" height="54.5367" filterUnits="userSpaceOnUse" color-interpolation-filters="sRGB">
<feFlood flood-opacity="0" result="BackgroundImageFix"/>
<feBlend mode="normal" in="SourceGraphic" in2="BackgroundImageFix" result="shape"/>
<feGaussianBlur stdDeviation="8" result="effect1_foregroundBlur"/>
</filter>
<filter id="filter1_ii" x="38.0723" y="11.168" width="22.4751" height="24.4751" filterUnits="userSpaceOnUse" color-interpolation-filters="sRGB">
<feFlood flood-opacity="0" result="BackgroundImageFix"/>
<feBlend mode="normal" in="SourceGraphic" in2="BackgroundImageFix" result="shape"/>
<feColorMatrix in="SourceAlpha" type="matrix" values="0 0 0 0 0 0 0 0 0 0 0 0 0 0 0 0 0 0 127 0" result="hardAlpha"/>
<feOffset dy="1"/>
<feGaussianBlur stdDeviation="2"/>
<feComposite in2="hardAlpha" operator="arithmetic" k2="-1" k3="1"/>
<feColorMatrix type="matrix" values="0 0 0 0 0 0 0 0 0 0 0 0 0 0 0 0 0 0 0.4 0"/>
<feBlend mode="normal" in2="shape" result="effect1_innerShadow"/>
<feColorMatrix in="SourceAlpha" type="matrix" values="0 0 0 0 0 0 0 0 0 0 0 0 0 0 0 0 0 0 127 0" result="hardAlpha"/>
<feOffset dy="-1"/>
<feGaussianBlur stdDeviation="2"/>
<feComposite in2="hardAlpha" operator="arithmetic" k2="-1" k3="1"/>
<feColorMatrix type="matrix" values="0 0 0 0 1 0 0 0 0 1 0 0 0 0 1 0 0 0 0.4 0"/>
<feBlend mode="normal" in2="effect1_innerShadow" result="effect2_innerShadow"/>
</filter>
<clipPath id="clip0">
<rect width="163" height="264" fill="white"/>
</clipPath>
</defs>
</svg>
