<svg width="163" height="264" viewBox="0 0 163 264" fill="none" xmlns="http://www.w3.org/2000/svg">
<g clip-path="url(#clip0)">
<path d="M0.648438 15.3526C53.1574 -1.70868 109.719 -1.70868 162.229 15.3526L81.4384 264L0.648438 15.3526Z" fill="#FA441C"/>
<path d="M12.2178 50.9635C57.2068 36.3455 105.669 36.3455 150.658 50.9635L81.4378 263.999L12.2178 50.9635Z" fill="#AB3ED7"/>
<g filter="url(#filter0_f)">
<path d="M115.976 13.6158C110.504 12.8638 105.459 16.6898 104.707 22.1612C103.955 27.6326 107.781 32.6776 113.253 33.4295C118.724 34.1815 123.769 30.3556 124.521 24.8841C125.273 19.4127 121.447 14.3677 115.976 13.6158Z" fill="white"/>
</g>
<path d="M115.975 13.6167C110.504 12.8648 105.459 16.6907 104.707 22.1622C103.955 27.6336 107.781 32.6786 113.252 33.4305C118.724 34.1824 123.769 30.3565 124.521 24.8851C125.273 19.4137 121.447 14.3687 115.975 13.6167Z" fill="white"/>
<g filter="url(#filter1_ii)">
<path d="M47.9839 13.4936C42.5099 14.2259 38.6658 19.2571 39.3981 24.7312C40.1303 30.2053 45.1616 34.0493 50.6356 33.3171C56.1097 32.5848 59.9538 27.5536 59.2215 22.0795C58.4893 16.6054 53.458 12.7614 47.9839 13.4936Z" fill="#ED4721"/>
</g>
<path d="M88.0002 197.732V201.749L83.9832 204.254L88.0002 206.732V210.661L81.4262 206.398L75.1502 210.406V206.557L79.1232 204.236L75.1502 202.004V198.04L81.6982 202.109L88.0002 197.732ZM77.9372 188.24C78.7332 188.24 79.4192 188.483 79.9932 188.97C80.5622 189.456 80.9752 190.159 81.2322 191.079H81.2852C81.5552 188.935 82.5682 187.862 84.3262 187.862C85.5212 187.862 86.4622 188.337 87.1472 189.286C87.8332 190.229 88.1762 191.542 88.1762 193.224C88.1762 193.915 88.1262 194.557 88.0262 195.148C87.9272 195.734 87.7452 196.37 87.4812 197.056H84.5992C84.8862 196.493 85.1002 195.922 85.2402 195.342C85.3752 194.756 85.4422 194.217 85.4422 193.725C85.4422 192.963 85.3372 192.409 85.1262 192.063C84.9092 191.712 84.5722 191.536 84.1152 191.536C83.7642 191.536 83.4942 191.627 83.3072 191.809C83.1132 191.99 82.9702 192.283 82.8762 192.688C82.7762 193.092 82.7272 193.619 82.7272 194.27V195.061H80.1162V194.252C80.1162 192.488 79.6652 191.606 78.7632 191.606C78.4232 191.606 78.1712 191.738 78.0072 192.002C77.8432 192.26 77.7612 192.608 77.7612 193.048C77.7612 193.868 78.0362 194.718 78.5872 195.597L76.2672 197.038C75.7982 196.358 75.4642 195.664 75.2652 194.955C75.0652 194.24 74.9662 193.423 74.9662 192.503C74.9662 191.173 75.2292 190.13 75.7572 189.374C76.2842 188.618 77.0112 188.24 77.9372 188.24ZM88.0002 175.391V178.862H77.9892V182H75.1502V172.262H77.9892V175.391H88.0002ZM82.9992 161.117C84.6282 161.117 85.8992 161.557 86.8132 162.436C87.7222 163.309 88.1762 164.533 88.1762 166.109C88.1762 167.621 87.7102 168.825 86.7782 169.722C85.8472 170.612 84.5872 171.058 82.9992 171.058C81.3762 171.058 80.1162 170.621 79.2202 169.748C78.3172 168.869 77.8662 167.639 77.8662 166.057C77.8662 165.078 78.0742 164.214 78.4902 163.464C78.9062 162.714 79.5042 162.137 80.2832 161.732C81.0572 161.322 81.9622 161.117 82.9992 161.117ZM82.9992 167.568C83.8542 167.568 84.5082 167.454 84.9592 167.226C85.4042 166.997 85.6272 166.613 85.6272 166.074C85.6272 165.541 85.4042 165.166 84.9592 164.949C84.5082 164.727 83.8542 164.615 82.9992 164.615C82.1492 164.615 81.5082 164.727 81.0742 164.949C80.6412 165.172 80.4242 165.553 80.4242 166.092C80.4242 166.619 80.6412 166.997 81.0742 167.226C81.5022 167.454 82.1442 167.568 82.9992 167.568ZM85.4602 154.271C85.4602 153.808 85.3462 153.254 85.1172 152.609H87.6222C87.8212 153.072 87.9622 153.515 88.0442 153.937C88.1322 154.353 88.1762 154.842 88.1762 155.404C88.1762 156.559 87.8952 157.391 87.3322 157.9C86.7642 158.41 85.8942 158.665 84.7222 158.665H80.6172V159.869H79.2202L78.1392 158.34L76.0472 157.452V155.202H78.0422V152.759H80.6172V155.202H84.4932C85.1382 155.202 85.4602 154.892 85.4602 154.271ZM88.0002 144.374L86.6822 145.033V145.104C87.2562 145.566 87.6482 146.038 87.8592 146.519C88.0702 146.999 88.1762 147.62 88.1762 148.382C88.1762 149.319 87.8952 150.058 87.3322 150.597C86.7702 151.136 85.9792 151.405 84.9592 151.405C83.8982 151.405 83.1102 151.036 82.5952 150.298C82.0732 149.56 81.7802 148.49 81.7162 147.09L81.6632 145.429H81.5222C80.7022 145.429 80.2922 145.833 80.2922 146.642C80.2922 147.368 80.5382 148.291 81.0302 149.41L78.7632 150.403C78.1652 149.243 77.8662 147.778 77.8662 146.009C77.8662 144.731 78.1832 143.744 78.8152 143.047C79.4482 142.344 80.3332 141.992 81.4702 141.992H88.0002V144.374ZM85.7502 146.923C85.7502 146.507 85.6182 146.152 85.3542 145.859C85.0912 145.561 84.7482 145.411 84.3262 145.411H83.5532L83.5882 146.202C83.6292 147.333 84.0452 147.898 84.8362 147.898C85.4452 147.898 85.7502 147.573 85.7502 146.923ZM88.0002 136.218V139.654H74.3242V136.218H88.0002ZM79.2372 119.633C80.6732 119.633 81.7832 120.058 82.5682 120.907C83.3482 121.751 83.7372 122.952 83.7372 124.511V125.486H88.0002V128.958H75.1502V124.511C75.1502 122.888 75.5052 121.669 76.2142 120.855C76.9232 120.04 77.9312 119.633 79.2372 119.633ZM80.9072 125.486V124.854C80.9072 124.332 80.7612 123.919 80.4682 123.614C80.1752 123.304 79.7712 123.148 79.2552 123.148C78.3882 123.148 77.9542 123.629 77.9542 124.59V125.486H80.9072ZM82.9992 108.277C84.6282 108.277 85.8992 108.717 86.8132 109.596C87.7222 110.469 88.1762 111.693 88.1762 113.27C88.1762 114.781 87.7102 115.985 86.7782 116.882C85.8472 117.772 84.5872 118.218 82.9992 118.218C81.3762 118.218 80.1162 117.781 79.2202 116.908C78.3172 116.029 77.8662 114.799 77.8662 113.217C77.8662 112.238 78.0742 111.374 78.4902 110.624C78.9062 109.874 79.5042 109.297 80.2832 108.893C81.0572 108.482 81.9622 108.277 82.9992 108.277ZM82.9992 114.729C83.8542 114.729 84.5082 114.614 84.9592 114.386C85.4042 114.157 85.6272 113.773 85.6272 113.234C85.6272 112.701 85.4042 112.326 84.9592 112.109C84.5082 111.887 83.8542 111.775 82.9992 111.775C82.1492 111.775 81.5082 111.887 81.0742 112.109C80.6412 112.332 80.4242 112.713 80.4242 113.252C80.4242 113.779 80.6412 114.157 81.0742 114.386C81.5022 114.614 82.1442 114.729 82.9992 114.729ZM88.0002 102.855V106.291H78.0422V102.855H88.0002ZM75.5632 106.379C75.0482 106.379 74.6642 106.235 74.4122 105.948C74.1602 105.661 74.0342 105.198 74.0342 104.56C74.0342 103.921 74.1632 103.455 74.4212 103.162C74.6792 102.869 75.0602 102.723 75.5632 102.723C76.5712 102.723 77.0752 103.335 77.0752 104.56C77.0752 105.772 76.5712 106.379 75.5632 106.379ZM88.0002 94.1714H82.5682C81.9062 94.1714 81.4082 94.2684 81.0742 94.4614C80.7342 94.6484 80.5642 94.9534 80.5642 95.3754C80.5642 95.9554 80.7962 96.3744 81.2592 96.6324C81.7222 96.8904 82.5162 97.0194 83.6412 97.0194H88.0002V100.455H78.0422V97.8624L79.2722 97.4324V97.2304C78.8042 96.9374 78.4522 96.5324 78.2182 96.0174C77.9832 95.4954 77.8662 94.8974 77.8662 94.2244C77.8662 93.1224 78.1862 92.2674 78.8242 91.6574C79.4632 91.0424 80.3622 90.7344 81.5222 90.7344H88.0002V94.1714ZM85.4602 83.5194C85.4602 83.0564 85.3462 82.5024 85.1172 81.8574H87.6222C87.8212 82.3204 87.9622 82.7634 88.0442 83.1854C88.1322 83.6014 88.1762 84.0904 88.1762 84.6524C88.1762 85.8074 87.8952 86.6394 87.3322 87.1484C86.7642 87.6584 85.8942 87.9134 84.7222 87.9134H80.6172V89.1174H79.2202L78.1392 87.5884L76.0472 86.7004V84.4504H78.0422V82.0074H80.6172V84.4504H84.4932C85.1382 84.4504 85.4602 84.1404 85.4602 83.5194Z" fill="white"/>
</g>
<defs>
<filter id="filter0_f" x="87.3457" y="-3.74609" width="54.5367" height="54.5367" filterUnits="userSpaceOnUse" color-interpolation-filters="sRGB">
<feFlood flood-opacity="0" result="BackgroundImageFix"/>
<feBlend mode="normal" in="SourceGraphic" in2="BackgroundImageFix" result="shape"/>
<feGaussianBlur stdDeviation="8" result="effect1_foregroundBlur"/>
</filter>
<filter id="filter1_ii" x="38.0723" y="11.168" width="22.4751" height="24.4751" filterUnits="userSpaceOnUse" color-interpolation-filters="sRGB">
<feFlood flood-opacity="0" result="BackgroundImageFix"/>
<feBlend mode="normal" in="SourceGraphic" in2="BackgroundImageFix" result="shape"/>
<feColorMatrix in="SourceAlpha" type="matrix" values="0 0 0 0 0 0 0 0 0 0 0 0 0 0 0 0 0 0 127 0" result="hardAlpha"/>
<feOffset dy="1"/>
<feGaussianBlur stdDeviation="2"/>
<feComposite in2="hardAlpha" operator="arithmetic" k2="-1" k3="1"/>
<feColorMatrix type="matrix" values="0 0 0 0 0 0 0 0 0 0 0 0 0 0 0 0 0 0 0.4 0"/>
<feBlend mode="normal" in2="shape" result="effect1_innerShadow"/>
<feColorMatrix in="SourceAlpha" type="matrix" values="0 0 0 0 0 0 0 0 0 0 0 0 0 0 0 0 0 0 127 0" result="hardAlpha"/>
<feOffset dy="-1"/>
<feGaussianBlur stdDeviation="2"/>
<feComposite in2="hardAlpha" operator="arithmetic" k2="-1" k3="1"/>
<feColorMatrix type="matrix" values="0 0 0 0 1 0 0 0 0 1 0 0 0 0 1 0 0 0 0.4 0"/>
<feBlend mode="normal" in2="effect1_innerShadow" result="effect2_innerShadow"/>
</filter>
<clipPath id="clip0">
<rect width="163" height="264" fill="white"/>
</clipPath>
</defs>
</svg>
