<svg width="32" height="35" viewBox="0 0 32 35" fill="none" xmlns="http://www.w3.org/2000/svg">
<path d="M16.0001 1.31567C9.41921 1.31567 4.06519 6.66981 4.06519 13.2509C4.06519 17.9012 6.73894 21.9383 10.6295 23.9072V31.0162C10.6295 32.7324 12.0258 34.1285 13.7418 34.1285H18.2584C19.9745 34.1285 21.3708 32.7323 21.3708 31.0162V23.9071C25.2613 21.9384 27.9353 17.9012 27.9353 13.2509C27.9353 6.66981 22.5811 1.31567 16.0001 1.31567ZM16.9284 23.1188C16.6226 23.1473 16.313 23.1626 16.0001 23.1626C15.6869 23.1626 15.3773 23.1473 15.0716 23.1188C15.1407 21.7345 15.1072 19.0892 14.1257 16.7632H17.8744C16.8929 19.0893 16.8594 21.7346 16.9284 23.1188ZM19.3476 28.9508H12.6527V24.7072C13.7152 25.0182 14.8384 25.1858 16.0001 25.1858C17.1619 25.1858 18.2851 25.0183 19.3476 24.7072V28.9508V28.9508ZM19.3476 31.0161C19.3476 31.6168 18.8591 32.1053 18.2584 32.1053H13.7418C13.1412 32.1053 12.6527 31.6167 12.6527 31.0161V30.974H19.3476V31.0161ZM18.9399 22.7176C18.8929 21.1585 19.0228 18.2749 20.4044 16.3394C20.6245 16.031 20.6539 15.6255 20.4804 15.2886C20.307 14.9517 19.9598 14.7401 19.581 14.7401H12.4192C12.0404 14.7401 11.6933 14.9518 11.5199 15.2886C11.3463 15.6255 11.3759 16.031 11.596 16.3394C12.9776 18.2751 13.1073 21.1589 13.0603 22.7176C9.02584 21.4621 6.08837 17.693 6.08837 13.2508C6.08837 7.78535 10.5346 3.3388 16.0001 3.3388C21.4656 3.3388 25.9121 7.78535 25.9121 13.2508C25.9121 17.6931 22.9744 21.4622 18.9399 22.7176Z" fill="white"/>
<path d="M2.92796 4.35945C3.12554 4.55698 3.38435 4.65579 3.64316 4.65579C3.90213 4.65579 4.16094 4.55698 4.35852 4.3594C4.75357 3.96435 4.75357 3.32388 4.35852 2.92884L1.72687 0.297302C1.33177 -0.0977987 0.691246 -0.0977987 0.2962 0.297302C-0.0987335 0.692404 -0.0987335 1.33282 0.2962 1.72786L2.92796 4.35945Z" fill="white"/>
<path d="M28.3567 4.65482C28.6157 4.65482 28.8745 4.556 29.0721 4.35848L31.7035 1.727C32.0987 1.3319 32.0987 0.691483 31.7035 0.296326C31.3083 -0.098831 30.6678 -0.0987195 30.2728 0.296326L27.6414 2.92781C27.2462 3.32291 27.2462 3.96343 27.6414 4.35848C27.839 4.556 28.0978 4.65482 28.3567 4.65482Z" fill="white"/>
<path d="M29.0724 22.1433C28.6773 21.7482 28.0369 21.7481 27.6417 22.1432C27.2465 22.5383 27.2465 23.1787 27.6417 23.5738L30.2732 26.2054C30.4707 26.403 30.7296 26.5017 30.9885 26.5017C31.2473 26.5017 31.5062 26.4029 31.7037 26.2054C32.0989 25.8105 32.0989 25.1699 31.7037 24.7748L29.0724 22.1433Z" fill="white"/>
<path d="M2.92796 22.1432L0.2962 24.7749C-0.0987335 25.1699 -0.0987335 25.8104 0.2962 26.2056C0.493779 26.4031 0.752588 26.5019 1.01156 26.5019C1.27037 26.5019 1.52941 26.4032 1.72676 26.2056L4.35852 23.5739C4.75357 23.1788 4.75357 22.5384 4.35852 22.1432C3.96359 21.7481 3.323 21.7481 2.92796 22.1432Z" fill="white"/>
</svg>
