<svg width="52" height="49" viewBox="0 0 52 49" fill="none" xmlns="http://www.w3.org/2000/svg">
<path d="M34.1273 13.8138L27.7559 2.13099C26.9979 0.741112 25.0021 0.741107 24.2441 2.13099L17.8727 13.8138L4.79287 16.2632C3.23678 16.5546 2.62007 18.4526 3.70769 19.603L12.8498 29.2728L11.1374 42.4694C10.9337 44.0393 12.5483 45.2124 13.9784 44.5335L26 38.827L38.0215 44.5335C39.4517 45.2124 41.0663 44.0393 40.8626 42.4694L39.1502 29.2728L48.2923 19.603C49.3799 18.4526 48.7632 16.5546 47.2071 16.2632L34.1273 13.8138Z" fill="#2070D2" stroke="white" stroke-width="2"/>
<path d="M13.0681 43.6757L25.7754 37.4774C25.9128 37.4103 26 37.2708 26 37.1179V2.6069C26 2.19005 25.4421 2.05118 25.2467 2.41938L18.8835 14.4087C18.8267 14.5156 18.7246 14.5911 18.6057 14.614L4.70461 17.289C4.39696 17.3482 4.27371 17.722 4.48583 17.9526L14.2142 28.5261C14.294 28.6128 14.3315 28.7302 14.3167 28.8471L12.4959 43.2661C12.4561 43.5815 12.7824 43.8151 13.0681 43.6757Z" fill="#1F8FBF"/>
<rect y="15" width="52" height="20" rx="6" fill="#AB8B29"/>
<rect y="15" width="52" height="18" rx="6" fill="#F1C000"/>
</svg>
