<svg width="15" height="15" viewBox="0 0 15 15" fill="none" xmlns="http://www.w3.org/2000/svg">
<path d="M1 3.39C1 2.92333 1.13067 2.56867 1.392 2.326L3.324 0.393999C3.744 0.0486659 4.10333 0.109333 4.402 0.575999L5.984 3.53C6.152 3.894 6.08667 4.22533 5.788 4.524L5.074 5.252C5.02733 5.308 5.004 5.37333 5.004 5.448C5.23733 6.36267 5.85333 7.27267 6.852 8.178L7.79 9.074C8.126 9.39133 8.28467 9.51267 8.266 9.438C8.24733 9.36333 8.43867 9.48 8.84 9.788C9.24133 10.096 9.428 10.1613 9.4 9.984C9.58667 10.04 9.71267 10.0307 9.778 9.956L10.632 9.116C10.996 8.836 11.332 8.78 11.64 8.948L14.482 10.642C14.6873 10.7727 14.804 10.9453 14.832 11.16C14.86 11.3747 14.7993 11.5567 14.65 11.706L12.676 13.652C12.424 13.904 12.0787 14.03 11.64 14.03C10.3333 13.9927 8.84933 13.428 7.188 12.336C4.78 10.6093 3.03 8.71467 1.938 6.652C1.266 5.24267 0.953333 4.15533 1 3.39Z" fill="#7F7F7F"/>
</svg>
