<svg width="28" height="31" viewBox="0 0 28 31" fill="none" xmlns="http://www.w3.org/2000/svg">
<path d="M13.9997 1.45142C8.24141 1.45142 3.55664 6.13629 3.55664 11.8947C3.55664 15.9637 5.89617 19.4962 9.30041 21.219V27.4394C9.30041 28.941 10.5221 30.1627 12.0237 30.1627H15.9757C17.4773 30.1627 18.699 28.9409 18.699 27.4394V21.2189C22.1033 19.4963 24.443 15.9637 24.443 11.8947C24.443 6.13628 19.758 1.45142 13.9997 1.45142ZM14.8119 20.5291C14.5444 20.5541 14.2735 20.5675 13.9997 20.5675C13.7256 20.5675 13.4548 20.5541 13.1872 20.5291C13.2477 19.3179 13.2184 17.0033 12.3596 14.968H15.6397C14.7809 17.0033 14.7516 19.318 14.8119 20.5291ZM16.9288 25.6321H11.0707V21.919C12.0004 22.1912 12.9832 22.3378 13.9997 22.3378C15.0163 22.3378 15.9991 22.1912 16.9288 21.919V25.6321ZM16.9288 27.4393C16.9288 27.9649 16.5013 28.3923 15.9757 28.3923H12.0237C11.4981 28.3923 11.0707 27.9648 11.0707 27.4393V27.4024H16.9288V27.4393ZM16.572 20.1781C16.5309 18.8138 16.6446 16.2907 17.8535 14.5972C18.0461 14.3273 18.0717 13.9725 17.92 13.6777C17.7683 13.3829 17.4644 13.1978 17.133 13.1978H10.8664C10.5349 13.1978 10.2312 13.383 10.0795 13.6777C9.92762 13.9725 9.95349 14.3273 10.1461 14.5972C11.355 16.2909 11.4685 18.8142 11.4274 20.1781C7.89721 19.0795 5.32693 15.7816 5.32693 11.8946C5.32693 7.11238 9.21741 3.22165 13.9997 3.22165C18.782 3.22165 22.6727 7.11238 22.6727 11.8946C22.6727 15.7817 20.1022 19.0796 16.572 20.1781Z" fill="#2070D2"/>
<path d="M2.56196 4.11469C2.73485 4.28753 2.9613 4.37399 3.18776 4.37399C3.41437 4.37399 3.64082 4.28753 3.81371 4.11465C4.15937 3.76898 4.15937 3.20857 3.81371 2.8629L1.51101 0.560311C1.1653 0.214597 0.60484 0.214597 0.259175 0.560311C-0.0863918 0.906024 -0.0863918 1.46639 0.259175 1.81205L2.56196 4.11469Z" fill="#2070D2"/>
<path d="M24.8125 4.37326C25.0391 4.37326 25.2656 4.28679 25.4384 4.11396L27.7409 1.81142C28.0867 1.4657 28.0867 0.90534 27.7409 0.559578C27.3951 0.213816 26.8348 0.213913 26.4891 0.559578L24.1866 2.86212C23.8408 3.20784 23.8408 3.7683 24.1866 4.11396C24.3595 4.28679 24.586 4.37326 24.8125 4.37326Z" fill="#2070D2"/>
<path d="M25.4384 19.6756C25.0927 19.3299 24.5324 19.3298 24.1866 19.6755C23.8408 20.0212 23.8408 20.5816 24.1866 20.9272L26.4891 23.2299C26.662 23.4028 26.8884 23.4892 27.115 23.4892C27.3415 23.4892 27.568 23.4028 27.7408 23.2299C28.0867 22.8844 28.0867 22.3239 27.7408 21.9782L25.4384 19.6756Z" fill="#2070D2"/>
<path d="M2.56196 19.6755L0.259175 21.9782C-0.0863918 22.3239 -0.0863918 22.8843 0.259175 23.2301C0.432056 23.4029 0.658515 23.4894 0.885119 23.4894C1.11158 23.4894 1.33823 23.403 1.51092 23.2301L3.81371 20.9274C4.15937 20.5817 4.15937 20.0213 3.81371 19.6755C3.46814 19.3298 2.90763 19.3298 2.56196 19.6755Z" fill="#2070D2"/>
</svg>
