<svg width="44" height="36" viewBox="0 0 44 36" fill="none" xmlns="http://www.w3.org/2000/svg">
<path d="M9.69226 0H34.3077V5.27647C34.3077 8.985 33.9729 12.7307 32.6606 16.1949C30.5731 21.7054 27.8752 24.4437 22.8359 26.913C22.3094 27.171 21.6905 27.171 21.164 26.913C16.1247 24.4437 13.4268 21.7054 11.3394 16.1949C10.027 12.7307 9.69226 8.985 9.69226 5.27647V0Z" fill="white"/>
<path d="M22.0002 4.96558L23.9498 9.08662L28.4381 9.68336L25.1548 12.827L25.9791 17.3169L22.0002 15.1388L18.0213 17.3169L18.8456 12.827L15.5623 9.68336L20.0506 9.08662L22.0002 4.96558Z" fill="#DEAD06"/>
<path d="M26.875 34.2626C27.5472 34.8789 27.1111 35.9997 26.1992 35.9997H17.8012C16.8893 35.9997 16.4532 34.8789 17.1254 34.2626L20.6485 31.0321C21.4132 30.3309 22.5872 30.3309 23.3519 31.0321L26.875 34.2626Z" fill="white"/>
<path d="M36.7693 3.10376H42.0001V6.03511C42.0001 8.41529 41.8219 10.8935 40.4323 12.8259C39.0858 14.6984 36.8978 16.4487 33.6924 16.4487" stroke="white" stroke-width="3"/>
<path d="M7.23069 3.10376H1.99991V6.03511C1.99991 8.41529 2.17813 10.8935 3.56771 12.8259C4.91421 14.6984 7.10215 16.4487 10.3076 16.4487" stroke="white" stroke-width="3"/>
</svg>
