<svg width="38" height="50" viewBox="0 0 38 50" fill="none" xmlns="http://www.w3.org/2000/svg">
<path d="M26.9509 14.2997L22.3026 18.5255V14.2997H13.2171C11.1887 14.2997 10.5408 13.0319 10.4703 12.3981V3.94647C10.4703 1.74906 12.0198 1.19971 12.7945 1.19971H29.0638C30.7542 1.19971 31.0359 2.32659 30.9655 2.89003V12.3981C30.9655 13.7503 29.5569 14.2292 28.8526 14.2997H26.9509Z" fill="white" stroke="#2070D2" stroke-width="2"/>
<path opacity="0.2" d="M1.1735 41.8763L23.1476 28.9876C24.1037 28.4268 24.8381 28.3537 25.472 28.565C26.1058 28.7763 35.6139 33.636 36.6703 34.6924C37.5155 35.5376 37.1633 36.3123 36.8816 36.594C33.501 38.4956 16.5978 49.0601 15.3301 49.694C14.3159 50.2011 12.5129 49.7644 11.7381 49.4827C8.49831 47.6515 1.84962 43.8624 1.1735 43.3553C0.497368 42.8482 0.891776 42.158 1.1735 41.8763Z" fill="#144325"/>
<path d="M1.1735 34.5836L23.1476 21.6949C24.1037 21.1341 24.8381 21.061 25.472 21.2723C26.1058 21.4836 35.6139 26.3433 36.6703 27.3997C37.5155 28.2449 37.1633 29.0196 36.8816 29.3013C33.501 31.2029 16.5978 41.7674 15.3301 42.4013C14.3159 42.9084 12.5129 42.4717 11.7381 42.19C8.49831 40.3588 1.84962 36.5697 1.1735 36.0626C0.497368 35.5555 0.891776 34.8653 1.1735 34.5836Z" fill="#2070D2"/>
<path d="M6.03349 33.419L22.1962 23.8035C22.951 23.362 23.5307 23.3045 24.0311 23.4708C24.5315 23.6371 31.8664 26.9724 32.7004 27.8041C33.3676 28.4694 33.0896 29.0793 32.8672 29.3011C30.1984 30.7982 17.1761 38.7327 16.1753 39.2317C15.3747 39.631 13.9513 39.2872 13.3397 39.0654C10.7821 37.6238 6.56724 34.9826 6.03349 34.5834C5.49973 34.1842 5.81109 33.6408 6.03349 33.419Z" fill="white"/>
<path d="M19.1332 27.6111C19.3022 27.7801 23.8307 30.1466 23.8307 30.1466" stroke="#2070D2" stroke-width="2" stroke-linecap="round"/>
<path d="M21.4574 25.9204C21.6264 26.0894 27.6339 29.0898 27.6339 29.0898" stroke="#2070D2" stroke-width="2" stroke-linecap="round"/>
<ellipse cx="8.14626" cy="37.5413" rx="1.05645" ry="0.633869" transform="rotate(-10.2475 8.14626 37.5413)" fill="white"/>
<circle cx="26.1058" cy="7.74967" r="1.26774" fill="#2070D2"/>
<circle cx="21.035" cy="7.74967" r="1.26774" fill="#2070D2"/>
<circle cx="15.964" cy="7.74967" r="1.26774" fill="#2070D2"/>
</svg>
