<svg width="119" height="71" viewBox="0 0 119 71" fill="none" xmlns="http://www.w3.org/2000/svg">
<mask id="mask0" mask-type="alpha" maskUnits="userSpaceOnUse" x="0" y="0" width="120" height="71">
<rect x="0.787109" width="118.213" height="71" fill="#C4C4C4"/>
</mask>
<g mask="url(#mask0)">
<g opacity="0.8">
<path d="M184.947 86.1599C171.88 79.5783 174.826 72.221 161.731 65.6254C148.636 59.0298 145.718 66.4011 132.623 59.8055C119.556 53.224 125.066 42.31 111.971 35.7144C98.9043 29.1328 93.3944 40.0468 80.2995 33.4512C67.2325 26.8697 73.3552 16.2644 60.2603 9.66875C47.1932 3.0872 32.6907 18.0276 18.6652 -3.01114" stroke="url(#paint0_linear)" stroke-width="2" stroke-miterlimit="10" stroke-linecap="round"/>
<path d="M84.4359 25.6045L86.1372 25.9967" stroke="white" stroke-width="2" stroke-miterlimit="10" stroke-linecap="round"/>
<path d="M82.1373 28.9812L82.9888 30.4648" stroke="white" stroke-width="2" stroke-miterlimit="10" stroke-linecap="round"/>
<path d="M82.7715 22.0461L83.9 20.0948" stroke="white" stroke-width="2" stroke-miterlimit="10" stroke-linecap="round"/>
<path d="M79.2144 20.7154L78.5856 19.0056" stroke="white" stroke-width="2" stroke-miterlimit="10" stroke-linecap="round"/>
<path d="M76.332 23.1773L74.6383 22.3752" stroke="white" stroke-width="2" stroke-miterlimit="10" stroke-linecap="round"/>
<path d="M82.5955 23.8464C83.1302 25.1544 82.459 26.6821 81.0779 27.2444C80.7176 27.3911 80.3517 27.4384 80.0039 27.4443C79.3384 27.4441 78.7098 27.1915 78.2439 26.737C77.9749 26.5075 77.7842 26.2122 77.6416 25.8634C77.095 24.5264 77.7662 22.9987 79.1173 22.4486C80.4683 21.8985 82.0489 22.5094 82.5955 23.8464Z" stroke="white" stroke-width="2" stroke-miterlimit="10" stroke-linecap="round"/>
<path d="M78.2425 26.737L77.7345 27.8931C77.5168 28.3886 77.7307 28.9118 78.2336 29.1139C78.485 29.2149 78.7308 29.2165 78.971 29.1187C79.2112 29.021 79.3857 28.8482 79.4945 28.6005L79.9844 27.4856C79.367 27.4319 78.7084 27.1915 78.2425 26.737Z" stroke="white" stroke-width="2" stroke-miterlimit="10" stroke-linecap="round"/>
<path d="M77.3544 31.5055L78.2508 29.0724" stroke="white" stroke-width="2" stroke-miterlimit="10" stroke-linecap="round"/>
<path d="M80.7363 26.1799C81.3916 25.9131 81.7089 25.1592 81.4414 24.5048" stroke="white" stroke-width="2" stroke-miterlimit="10" stroke-linecap="round"/>
<path d="M33.1532 20.8835C28.6262 20.5783 25.1923 16.8233 25.4834 12.4965C25.7745 8.16974 29.6804 4.90968 34.2074 5.21495C38.7344 5.52023 42.1683 9.27523 41.8772 13.602C41.586 17.9288 37.6802 21.1888 33.1532 20.8835Z" fill="url(#paint1_radial)"/>
<path d="M31.2499 13.3271C31.3763 11.9037 32.6144 10.8099 33.9853 10.9342C34.3514 10.9589 34.6807 11.0766 34.9751 11.2556C35.5052 11.5778 35.9309 12.0838 36.1345 12.7022C36.2353 13.0272 36.3012 13.4135 36.2473 13.7599C36.1189 15.2149 34.9133 16.2791 33.5119 16.1527C32.139 16.06 31.1215 14.7821 31.2499 13.3271Z" stroke="white" stroke-width="2" stroke-miterlimit="10" stroke-linecap="round"/>
<path d="M36.1347 12.7021L37.0465 11.9045C37.436 11.5807 37.4765 10.9789 37.1664 10.5761C36.9961 10.3737 36.7889 10.2642 36.5448 10.2477C36.3007 10.2313 36.0808 10.3119 35.8871 10.4579L34.9753 11.2555C35.5053 11.5777 35.931 12.0837 36.1347 12.7021Z" stroke="white" stroke-width="2" stroke-miterlimit="10" stroke-linecap="round"/>
<path d="M38.9707 8.82037L37.1668 10.5761" stroke="white" stroke-width="2" stroke-miterlimit="10" stroke-linecap="round"/>
<path d="M35.3602 13.7781C35.41 13.0384 34.9217 12.3976 34.2751 12.354" stroke="white" stroke-width="2" stroke-miterlimit="10" stroke-linecap="round"/>
<path d="M58.0157 21.847L56.4372 21.0073" stroke="white" stroke-width="2" stroke-miterlimit="10" stroke-linecap="round"/>
<path d="M61.0095 19.0965L60.5625 17.3874" stroke="white" stroke-width="2" stroke-miterlimit="10" stroke-linecap="round"/>
<path d="M58.7485 25.7906L57.2063 27.4273" stroke="white" stroke-width="2" stroke-miterlimit="10" stroke-linecap="round"/>
<path d="M61.9183 28.0025L62.1127 29.881" stroke="white" stroke-width="2" stroke-miterlimit="10" stroke-linecap="round"/>
<path d="M65.2852 26.3309L66.7664 27.5491" stroke="white" stroke-width="2" stroke-miterlimit="10" stroke-linecap="round"/>
<path d="M59.3316 22.6409C59.9481 21.3321 61.5571 20.7438 62.878 21.3636C63.2337 21.5211 63.5206 21.7535 63.7518 22.0316C64.168 22.5321 64.417 23.1696 64.4063 23.8327C64.3945 24.1789 64.3269 24.5707 64.1537 24.8807C63.5241 26.2189 61.9578 26.7909 60.6073 26.158C59.2864 25.5382 58.7019 23.979 59.3316 22.6409Z" stroke="white" stroke-width="2" stroke-miterlimit="10" stroke-linecap="round"/>
<path d="M64.4065 23.8338L65.5886 23.408C66.0878 23.2423 66.3356 22.6842 66.1661 22.1874C66.0665 21.9324 65.8981 21.7524 65.661 21.6475C65.4238 21.5425 65.1772 21.5388 64.9341 21.607L63.752 22.0327C64.1978 22.5464 64.4468 23.1838 64.4065 23.8338Z" stroke="white" stroke-width="2" stroke-miterlimit="10" stroke-linecap="round"/>
<path d="M68.5786 21.1478L66.1657 22.1886" stroke="white" stroke-width="2" stroke-miterlimit="10" stroke-linecap="round"/>
<path d="M62.8561 24.3066C63.1428 23.6605 62.848 22.8974 62.2009 22.6109" stroke="white" stroke-width="2" stroke-miterlimit="10" stroke-linecap="round"/>
<path opacity="0.7" d="M57.4596 12.3867C53.7115 10.727 52.2156 5.90604 54.1183 1.61888C56.021 -2.66828 60.6018 -4.79821 64.3498 -3.13845C68.0979 -1.47868 69.5938 3.34225 67.6911 7.62942C65.7884 11.9166 61.2076 14.0465 57.4596 12.3867Z" fill="url(#paint2_radial)"/>
<path d="M61.8192 1.85846C63.0576 2.40662 63.5475 3.98754 62.9319 5.37404C62.7677 5.74378 62.5634 6.05886 62.2919 6.30739C61.8166 6.79747 61.2076 7.08089 60.5866 7.10096C60.249 7.13585 59.9255 7.06639 59.6024 6.92339C58.364 6.37523 57.874 4.79431 58.4897 3.40781C59.0916 2.05213 60.594 1.35303 61.8192 1.85846Z" stroke="white" stroke-width="2" stroke-miterlimit="10" stroke-linecap="round"/>
<path d="M60.5744 7.13171L60.9588 8.29727C61.1177 8.81 61.616 8.99369 62.0896 8.79777C62.3332 8.6844 62.5097 8.50447 62.6192 8.25798C62.7286 8.0115 62.7436 7.76007 62.6642 7.5037L62.2797 6.33814C61.8044 6.82822 61.1954 7.11163 60.5744 7.13171Z" stroke="white" stroke-width="2" stroke-miterlimit="10" stroke-linecap="round"/>
<path d="M62.9941 11.1887L62.0906 8.79798" stroke="white" stroke-width="2" stroke-miterlimit="10" stroke-linecap="round"/>
<path d="M61.8286 4.81224C62.1294 4.13455 61.8907 3.36541 61.2982 3.10303" stroke="white" stroke-width="2" stroke-miterlimit="10" stroke-linecap="round"/>
<path d="M121.465 34.6226L119.791 33.5151" stroke="white" stroke-width="2" stroke-miterlimit="10" stroke-linecap="round"/>
<path d="M116.207 54.8669C116.784 53.6462 118.331 53.1174 119.618 53.7197C119.964 53.873 120.245 54.0957 120.473 54.3605C120.882 54.8371 121.133 55.4399 121.132 56.0629C121.126 56.3881 121.067 56.7554 120.904 57.0441C120.315 58.2922 118.809 58.8064 117.494 58.1914C116.207 57.5891 115.631 56.0876 116.207 54.8669Z" stroke="white" stroke-width="2" stroke-miterlimit="10" stroke-linecap="round"/>
<path d="M121.132 56.0642L122.269 55.6817C122.749 55.5335 122.981 55.0127 122.809 54.5432C122.709 54.3021 122.544 54.1305 122.313 54.0283C122.082 53.9261 121.843 53.9189 121.609 53.9793L120.473 54.3618C120.924 54.8237 121.133 55.4412 121.132 56.0642Z" stroke="white" stroke-width="2" stroke-miterlimit="10" stroke-linecap="round"/>
<path d="M119.724 56.3581C119.992 55.7552 119.691 55.0319 119.056 54.7506" stroke="white" stroke-width="2" stroke-miterlimit="10" stroke-linecap="round"/>
<path d="M108.345 51.218C104.271 50.7566 101.397 46.6049 101.925 41.9448C102.452 37.2848 106.183 33.8811 110.256 34.3425C114.33 34.8039 117.204 38.9556 116.676 43.6157C116.149 48.2757 112.418 51.6794 108.345 51.218Z" fill="url(#paint3_radial)"/>
<path d="M106.852 42.6727C107.052 41.1693 108.305 40.0564 109.618 40.2391C109.969 40.2788 110.28 40.4158 110.554 40.6163C111.046 40.9774 111.428 41.5293 111.591 42.1921C111.67 42.5402 111.712 42.9519 111.641 43.3169C111.437 44.8538 110.218 45.9366 108.875 45.7506C107.591 45.5712 106.649 44.2097 106.852 42.6727Z" stroke="white" stroke-width="2" stroke-miterlimit="10" stroke-linecap="round"/>
<path d="M111.619 42.1953L112.541 41.3841C112.934 41.0556 113.006 40.4194 112.73 39.9811C112.577 39.7603 112.384 39.6367 112.149 39.6102C111.915 39.5836 111.699 39.6609 111.504 39.8084L110.583 40.6196C111.079 40.9472 111.457 41.5326 111.619 42.1953Z" stroke="white" stroke-width="2" stroke-miterlimit="10" stroke-linecap="round"/>
<path d="M114.538 38.151L112.701 39.9777" stroke="white" stroke-width="2" stroke-miterlimit="10" stroke-linecap="round"/>
<path d="M110.617 42.9295C110.701 42.1929 110.242 41.5305 109.598 41.4576" stroke="white" stroke-width="2" stroke-miterlimit="10" stroke-linecap="round"/>
<path opacity="0.7" d="M96.1645 32.3481C92.5541 30.0181 91.5872 25.5958 94.0049 22.4707C96.4227 19.3455 101.309 18.7008 104.92 21.0308C108.53 23.3608 109.497 27.7831 107.079 30.9083C104.662 34.0335 99.7749 34.6781 96.1645 32.3481Z" fill="url(#paint4_radial)"/>
<path d="M102.382 25.7208C103.28 26.6576 103.191 28.0601 102.184 28.8375C101.909 29.0495 101.619 29.1865 101.296 29.2701C100.708 29.4099 100.081 29.3621 99.5215 29.131C99.2173 28.9996 98.9219 28.809 98.7014 28.5694C97.8027 27.6327 97.8749 26.2518 98.8745 25.4369C99.9066 24.6753 101.458 24.7681 102.382 25.7208Z" stroke="white" stroke-width="2" stroke-miterlimit="10" stroke-linecap="round"/>
<path d="M99.539 29.1092L99.4787 30.1409C99.4658 30.5867 99.8418 30.9591 100.32 31.0083C100.56 31.0329 100.8 30.9609 100.942 30.8253C101.108 30.7055 101.217 30.5166 101.236 30.3016L101.297 29.2699C100.733 29.4255 100.106 29.3777 99.539 29.1092Z" stroke="white" stroke-width="2" stroke-miterlimit="10" stroke-linecap="round"/>
<path d="M100.356 33.2046L100.304 31.0302" stroke="white" stroke-width="2" stroke-miterlimit="10" stroke-linecap="round"/>
<path d="M101.602 27.6836C101.97 27.2077 101.828 26.5323 101.286 26.1828" stroke="white" stroke-width="2" stroke-miterlimit="10" stroke-linecap="round"/>
<path d="M22.809 6.28029C20.6212 6.01961 19.0587 4.03732 19.3189 1.85272C19.5792 -0.331886 21.5638 -1.89154 23.7516 -1.63087C25.9393 -1.37019 27.5019 0.612097 27.2416 2.7967C26.9813 4.98131 24.9967 6.54096 22.809 6.28029Z" fill="url(#paint5_radial)"/>
<path d="M22.1626 0.398621L22.8875 0.809513L22.6161 1.20155L22.0918 1.21397L22.1626 0.398621Z" fill="url(#paint6_linear)"/>
<path d="M20.918 3.09125L21.5025 2.4974L21.8109 2.861L21.6872 3.37064L20.918 3.09125Z" fill="url(#paint7_linear)"/>
<path d="M23.0806 4.97003L22.7285 4.21479L23.177 4.05293L23.6113 4.34701L23.0806 4.97003Z" fill="url(#paint8_linear)"/>
<path d="M25.606 3.53931L24.7891 3.70386L24.7373 3.22989L25.1252 2.87698L25.606 3.53931Z" fill="url(#paint9_linear)"/>
<path d="M24.9712 0.758301L24.8285 1.57924L24.3679 1.45578L24.1796 0.966297L24.9712 0.758301Z" fill="url(#paint10_linear)"/>
<path fill-rule="evenodd" clip-rule="evenodd" d="M23.686 -0.214619L22.6816 1.32923L20.832 1.38191L22.0018 2.81647L21.4725 4.57824L23.1938 3.91659L24.7114 4.96415L24.6108 3.12733L26.085 2.00781L24.2995 1.52201L23.686 -0.214619ZM23.5372 1.03465L23.8717 1.98168L24.8494 2.24769L24.0389 2.86321L24.0936 3.86209L23.2682 3.29231L22.332 3.65219L22.6198 2.69412L21.9766 1.9054L22.9894 1.87655L23.5372 1.03465Z" fill="url(#paint11_radial)"/>
<path fill-rule="evenodd" clip-rule="evenodd" d="M23.4464 1.7713L23.1366 2.24263L22.5649 2.25794L22.9271 2.69679L22.7642 3.23491L23.296 3.03346L23.7655 3.35421L23.7336 2.79289L24.1888 2.45143L23.6367 2.30222L23.4464 1.7713ZM23.4009 2.15297L23.5047 2.4425L23.807 2.5242L23.5567 2.71194L23.5741 3.01719L23.3187 2.84273L23.0295 2.9523L23.118 2.65967L22.9189 2.41839L23.2319 2.41L23.4009 2.15297Z" fill="url(#paint12_radial)"/>
</g>
</g>
<defs>
<linearGradient id="paint0_linear" x1="106.461" y1="46.6284" x2="111.961" y2="35.7093" gradientUnits="userSpaceOnUse">
<stop stop-color="white"/>
<stop offset="1" stop-color="#FFCF54"/>
</linearGradient>
<radialGradient id="paint1_radial" cx="0" cy="0" r="1" gradientUnits="userSpaceOnUse" gradientTransform="translate(33.6767 13.0356) rotate(-176.142) scale(8.21462 7.85116)">
<stop stop-color="#FAEC21"/>
<stop offset="1" stop-color="white" stop-opacity="0"/>
</radialGradient>
<radialGradient id="paint2_radial" cx="0" cy="0" r="1" gradientUnits="userSpaceOnUse" gradientTransform="translate(60.8964 4.61521) rotate(-156.114) scale(7.42124 8.49184)">
<stop stop-color="#FAEC21"/>
<stop offset="1" stop-color="white" stop-opacity="0"/>
</radialGradient>
<radialGradient id="paint3_radial" cx="0" cy="0" r="1" gradientUnits="userSpaceOnUse" gradientTransform="translate(109.288 42.7713) rotate(-173.538) scale(7.42215 8.49077)">
<stop stop-color="#FAEC21"/>
<stop offset="1" stop-color="white" stop-opacity="0"/>
</radialGradient>
<radialGradient id="paint4_radial" cx="0" cy="0" r="1" gradientUnits="userSpaceOnUse" gradientTransform="translate(100.53 26.6847) rotate(-147.164) scale(7.77949 7.12751)">
<stop stop-color="#FAEC21"/>
<stop offset="1" stop-color="white" stop-opacity="0"/>
</radialGradient>
<radialGradient id="paint5_radial" cx="0" cy="0" r="1" gradientUnits="userSpaceOnUse" gradientTransform="translate(23.2808 2.32434) rotate(-173.205) scale(3.98891 3.98313)">
<stop stop-color="#FAEC21"/>
<stop offset="1" stop-color="white" stop-opacity="0"/>
</radialGradient>
<linearGradient id="paint6_linear" x1="21.9751" y1="-0.122981" x2="22.639" y2="1.42894" gradientUnits="userSpaceOnUse">
<stop offset="0.0708289" stop-color="white"/>
<stop offset="1" stop-color="white" stop-opacity="0"/>
</linearGradient>
<linearGradient id="paint7_linear" x1="20.3656" y1="3.13734" x2="22.0365" y2="2.89779" gradientUnits="userSpaceOnUse">
<stop offset="0.0708289" stop-color="white"/>
<stop offset="1" stop-color="white" stop-opacity="0"/>
</linearGradient>
<linearGradient id="paint8_linear" x1="22.9306" y1="5.50364" x2="23.2904" y2="3.85448" gradientUnits="userSpaceOnUse">
<stop offset="0.0708289" stop-color="white"/>
<stop offset="1" stop-color="white" stop-opacity="0"/>
</linearGradient>
<linearGradient id="paint9_linear" x1="26.0893" y1="3.81051" x2="24.571" y2="3.07307" gradientUnits="userSpaceOnUse">
<stop offset="0.0708289" stop-color="white"/>
<stop offset="1" stop-color="white" stop-opacity="0"/>
</linearGradient>
<linearGradient id="paint10_linear" x1="25.3992" y1="0.406079" x2="24.1615" y2="1.55387" gradientUnits="userSpaceOnUse">
<stop offset="0.0708289" stop-color="white"/>
<stop offset="1" stop-color="white" stop-opacity="0"/>
</linearGradient>
<radialGradient id="paint11_radial" cx="0" cy="0" r="1" gradientUnits="userSpaceOnUse" gradientTransform="translate(23.3973 2.20862) rotate(96.7948) scale(4.01079 4.22802)">
<stop stop-color="white"/>
<stop offset="1" stop-color="white" stop-opacity="0"/>
</radialGradient>
<radialGradient id="paint12_radial" cx="0" cy="0" r="1" gradientUnits="userSpaceOnUse" gradientTransform="translate(23.3581 2.51165) rotate(96.7948) scale(1.22538 1.30704)">
<stop stop-color="white"/>
<stop offset="1" stop-color="white" stop-opacity="0"/>
</radialGradient>
</defs>
</svg>
