<svg width="16" height="16" viewBox="0 0 16 16" fill="none" xmlns="http://www.w3.org/2000/svg">
<path d="M15.0089 5.73083C14.9981 5.71842 14.989 5.70633 14.9762 5.69425L14.4155 5.15315C14.8806 5.04767 15.3812 4.65809 15.3812 4.25838C15.3812 3.79271 14.7349 3.62747 14.1834 3.62747C13.6067 3.62747 13.5397 4.02261 13.5329 4.30181L12.0862 2.90709C11.7923 2.61612 11.2349 2.38721 10.8182 2.38721H8.00065H8H5.18181C4.76545 2.38721 4.20834 2.61612 3.91412 2.90709L2.46779 4.30181C2.46028 4.02261 2.39334 3.62747 1.81729 3.62747C1.26508 3.62747 0.619153 3.79271 0.619153 4.25838C0.619153 4.65809 1.12009 5.04767 1.58511 5.15315L1.02441 5.69425C1.01167 5.70633 1.00286 5.71842 0.991754 5.73083C0.391869 6.24352 0 7.19446 0 7.88447V9.93492C0 10.4326 0.196261 10.8842 0.513348 11.2209V12.0161C0.513348 12.4811 0.902604 12.8602 1.38134 12.8602H2.43089C2.90962 12.8602 3.29855 12.4817 3.29855 12.0161V11.8126H8H8.00065H12.7018V12.0161C12.7018 12.4817 13.0904 12.8602 13.5698 12.8602H14.619C15.098 12.8602 15.4867 12.4811 15.4867 12.0161V11.2209C15.8041 10.8842 16 10.4326 16 9.93492V7.88447C16.0007 7.19446 15.6088 6.24352 15.0089 5.73083ZM4.44542 3.52689C4.64887 3.35741 5.00449 3.22874 5.18181 3.22874H8H8.00065H10.8188C10.9962 3.22874 11.3518 3.35741 11.5552 3.52689L13.4522 5.36541H8.00065H8H2.54878L4.44542 3.52689ZM0.650829 7.57424C0.650829 7.06938 1.04596 6.65955 1.53384 6.65955C2.02139 6.65955 3.61466 7.59482 3.61466 8.09967C3.61466 8.60453 2.02139 8.48762 1.53384 8.48762C1.04596 8.48762 0.650829 8.07943 0.650829 7.57424ZM3.29888 10.9136H3.1307H2.96253L1.9649 10.9152C1.68797 10.829 1.49269 10.7285 1.35456 10.6204C1.28468 10.5658 1.23112 10.509 1.18932 10.4525C1.1472 10.3954 1.1165 10.3392 1.09658 10.283C0.972488 9.93231 1.22883 9.61 1.22883 9.61H2.9315L4.06662 10.913L3.29888 10.9136ZM10.4485 10.9143H8.00065H8H5.55213C5.04172 10.9143 4.62732 10.4999 4.62732 9.98979H8H8.00065H11.3733C11.3733 10.5005 10.9589 10.9143 10.4485 10.9143ZM10.6634 9.35888H8.00065H8H5.33725C4.7821 9.35888 4.33146 8.67441 4.33146 7.83026H8H8.00065H11.6692C11.6692 8.67474 11.2185 9.35888 10.6634 9.35888ZM14.9044 10.2837C14.8842 10.3399 14.8535 10.396 14.8113 10.4528C14.7699 10.5093 14.7163 10.5662 14.6461 10.6207C14.5083 10.7288 14.3127 10.83 14.0358 10.9156L13.0381 10.9139H12.8699H12.7018H11.9334L13.0691 9.61098H14.7715C14.7715 9.61065 15.0282 9.93231 14.9044 10.2837ZM14.4668 8.48762C13.9796 8.48762 12.3863 8.60388 12.3863 8.09967C12.3863 7.59547 13.9796 6.65955 14.4668 6.65955C14.9547 6.65955 15.3498 7.06938 15.3498 7.57424C15.3498 8.07877 14.9547 8.48762 14.4668 8.48762Z" fill="#7F7F7F"/>
</svg>
