<svg width="9" height="14" viewBox="0 0 9 14" fill="none" xmlns="http://www.w3.org/2000/svg">
<path d="M4.382 0.897999C5.38067 0.897999 6.23467 1.25733 6.944 1.976C7.65333 2.69467 8.01267 3.54867 8.022 4.538C8.03133 5.52733 7.672 6.386 6.944 7.114C6.216 7.842 5.362 8.19667 4.382 8.178C3.402 8.15933 2.54333 7.80467 1.806 7.114C1.06867 6.42333 0.714 5.56467 0.742 4.538C0.77 3.51133 1.12467 2.65733 1.806 1.976C2.48733 1.29467 3.346 0.935333 4.382 0.897999ZM0 11.846C0 11.0713 0.401333 10.39 1.204 9.802C2.00667 9.214 3.066 8.92 4.382 8.92C5.65133 8.92 6.69667 9.214 7.518 9.802C8.33933 10.39 8.75 11.0713 8.75 11.846C8.75 12.2287 8.33467 12.5647 7.504 12.854C6.67333 13.1433 5.63267 13.2927 4.382 13.302C3.07533 13.302 2.016 13.1527 1.204 12.854C0.392 12.5553 -0.00933333 12.2193 0 11.846Z" fill="#7F7F7F"/>
</svg>
