<svg width="9" height="12" viewBox="0 0 9 12" fill="none" xmlns="http://www.w3.org/2000/svg">
<path fill-rule="evenodd" clip-rule="evenodd" d="M4.14815 0C1.85481 0 0 1.85481 0 4.14815C0 7.25926 4.14815 11.8519 4.14815 11.8519C4.14815 11.8519 8.2963 7.25926 8.2963 4.14815C8.2963 1.85481 6.44148 0 4.14815 0ZM1.18525 4.14802C1.18525 2.51247 2.51266 1.18506 4.14821 1.18506C5.78377 1.18506 7.11117 2.51247 7.11117 4.14802C7.11117 5.85469 5.40451 8.40876 4.14821 10.0028C2.91562 8.42061 1.18525 5.83691 1.18525 4.14802ZM2.66675 4.14799C2.66675 3.32979 3.33003 2.6665 4.14823 2.6665C4.67751 2.6665 5.16659 2.94887 5.43123 3.40724C5.69587 3.86562 5.69587 4.43035 5.43123 4.88873C5.16659 5.3471 4.67751 5.62947 4.14823 5.62947C3.33003 5.62947 2.66675 4.96619 2.66675 4.14799Z" fill="#7F7F7F"/>
</svg>
