<svg width="24" height="29" viewBox="0 0 24 29" fill="none" xmlns="http://www.w3.org/2000/svg">
<mask id="path-1-inside-1" fill="white">
<path fill-rule="evenodd" clip-rule="evenodd" d="M15.1257 5.61207H9.0752L12.1005 0.0354004L15.1257 5.61207Z"/>
</mask>
<path d="M15.1257 5.61207V6.61207H16.8059L16.0047 5.13523L15.1257 5.61207ZM9.0752 5.61207L8.1962 5.13523L7.39504 6.61207H9.0752V5.61207ZM12.1005 0.0354004L12.9794 -0.441439L12.1005 -2.06174L11.2215 -0.441439L12.1005 0.0354004ZM15.1257 4.61207H9.0752V6.61207H15.1257V4.61207ZM9.95419 6.0889L12.9794 0.51224L11.2215 -0.441439L8.1962 5.13523L9.95419 6.0889ZM11.2215 0.51224L14.2467 6.0889L16.0047 5.13523L12.9794 -0.441439L11.2215 0.51224Z" fill="#114F98" mask="url(#path-1-inside-1)"/>
<mask id="path-3-inside-2" fill="white">
<path fill-rule="evenodd" clip-rule="evenodd" d="M18.5351 12.4696L16.941 6.64056L23.1246 8.0859L18.5351 12.4696Z"/>
</mask>
<path d="M18.5351 12.4696L17.5703 12.7327L18.013 14.3515L19.2262 13.1927L18.5351 12.4696ZM16.941 6.64056L17.1682 5.667L15.5336 5.28493L15.9763 6.9037L16.941 6.64056ZM23.1246 8.0859L23.8158 8.80899L25.1517 7.53303L23.3518 7.11233L23.1246 8.0859ZM19.4998 12.2065L17.9058 6.37743L15.9763 6.9037L17.5703 12.7327L19.4998 12.2065ZM16.7139 7.61413L22.8975 9.05946L23.3518 7.11233L17.1682 5.667L16.7139 7.61413ZM22.4335 7.36281L17.8439 11.7465L19.2262 13.1927L23.8158 8.80899L22.4335 7.36281Z" fill="#EDB400" mask="url(#path-3-inside-2)"/>
<mask id="path-5-inside-3" fill="white">
<path fill-rule="evenodd" clip-rule="evenodd" d="M13.3104 17.9311L18.3161 14.5359L18.9507 20.8472L13.3104 17.9311Z"/>
</mask>
<path d="M13.3104 17.9311L12.7481 17.1042L11.3581 18.0469L12.8508 18.8187L13.3104 17.9311ZM18.3161 14.5359L19.3117 14.4365L19.1438 12.7663L17.7538 13.709L18.3161 14.5359ZM18.9507 20.8472L18.4911 21.7348L20.1308 22.5825L19.9463 20.7478L18.9507 20.8472ZM13.8727 18.758L18.8785 15.3629L17.7538 13.709L12.7481 17.1042L13.8727 18.758ZM17.3206 14.6354L17.9552 20.9467L19.9463 20.7478L19.3117 14.4365L17.3206 14.6354ZM19.4104 19.9597L13.77 17.0436L12.8508 18.8187L18.4911 21.7348L19.4104 19.9597Z" fill="#187D00" mask="url(#path-5-inside-3)"/>
<mask id="path-7-inside-4" fill="white">
<path fill-rule="evenodd" clip-rule="evenodd" d="M6.14839 14.5366L10.9268 18.2439L5.11176 20.7945L6.14839 14.5366Z"/>
</mask>
<path d="M6.14839 14.5366L6.76238 13.7473L5.43551 12.7179L5.1612 14.3738L6.14839 14.5366ZM10.9268 18.2439L11.3289 19.1589L12.8677 18.484L11.5408 17.4545L10.9268 18.2439ZM5.11176 20.7945L4.12457 20.6316L3.82318 22.451L5.51386 21.7095L5.11176 20.7945ZM5.53441 15.326L10.3128 19.0332L11.5408 17.4545L6.76238 13.7473L5.53441 15.326ZM10.5247 17.3289L4.70966 19.8794L5.51386 21.7095L11.3289 19.1589L10.5247 17.3289ZM6.09895 20.9573L7.13559 14.6995L5.1612 14.3738L4.12457 20.6316L6.09895 20.9573Z" fill="#EC3838" mask="url(#path-7-inside-4)"/>
<mask id="path-9-inside-5" fill="white">
<path fill-rule="evenodd" clip-rule="evenodd" d="M7.09841 6.78682L5.34467 12.5705L0.876867 8.06227L7.09841 6.78682Z"/>
</mask>
<path d="M7.09841 6.78682L8.05559 7.0763L8.54258 5.47028L6.89803 5.80742L7.09841 6.78682ZM5.34467 12.5705L4.6339 13.2743L5.81487 14.466L6.30186 12.86L5.34467 12.5705ZM0.876867 8.06227L0.676489 7.08286L-1.1342 7.45406L0.166089 8.76612L0.876867 8.06227ZM6.14123 6.49734L4.38749 12.281L6.30186 12.86L8.05559 7.0763L6.14123 6.49734ZM6.05545 11.8666L1.58765 7.35842L0.166089 8.76612L4.6339 13.2743L6.05545 11.8666ZM1.07725 9.04168L7.29879 7.76623L6.89803 5.80742L0.676489 7.08286L1.07725 9.04168Z" fill="#EDB400" mask="url(#path-9-inside-5)"/>
<path d="M7.27539 12.6535L9.27881 7.49365H15.2891L17.0254 13.2827L12.0836 16.4289L7.27539 12.6535Z" fill="#CB0000"/>
<path d="M4.27186 28.5354C4.27186 28.5354 4.20553 22.3076 4.86893 21.38C4.39128 23.2881 6.06304 27.2766 7.05814 28.5354H4.27186Z" fill="url(#paint0_linear)"/>
<path d="M6.73923 26.3318C6.73923 26.3318 4.74241 22.9268 5.01405 21.3803C5.36117 22.903 7.5934 24.9678 8.22658 25.2507L6.73923 26.3318Z" fill="#114F98"/>
<path d="M1.62164 26.5413C1.62164 26.5413 3.4526 22.0813 4.9125 21.2632C3.80269 22.6985 3.23698 26.4494 3.33398 27.2987L1.62164 26.5413Z" fill="#EDB400"/>
<path d="M20.4946 27.1903C20.4946 27.1903 18.6421 22.4257 18.8834 21.5218C19.0684 23.1253 21.5063 25.7066 22.6348 26.3864L20.4946 27.1903Z" fill="url(#paint1_linear)"/>
<path d="M21.7524 24.784C21.7524 24.784 19.2336 22.7453 18.9951 21.4793C19.7021 22.5485 22.0141 23.4899 22.5824 23.5244L21.7524 24.784Z" fill="#114F98"/>
<path d="M17.8822 26.4231C17.8822 26.4231 17.999 22.4687 18.8838 21.4188C18.4463 22.8416 19.0963 25.8862 19.4164 26.5106L17.8822 26.4231Z" fill="#EDB400"/>
<defs>
<linearGradient id="paint0_linear" x1="5.66408" y1="21.38" x2="5.66408" y2="32.9667" gradientUnits="userSpaceOnUse">
<stop stop-color="#C11414"/>
<stop offset="1" stop-color="#DE3D3D"/>
</linearGradient>
<linearGradient id="paint1_linear" x1="19.4942" y1="21.2924" x2="22.8382" y2="30.1953" gradientUnits="userSpaceOnUse">
<stop stop-color="#C11414"/>
<stop offset="1" stop-color="#DE3D3D"/>
</linearGradient>
</defs>
</svg>
