<svg width="79" height="16" viewBox="0 0 79 16" fill="none" xmlns="http://www.w3.org/2000/svg">
<rect y="1.75659" width="2.26332" height="10.5367" fill="white"/>
<rect x="7.92188" y="1.75659" width="2.26332" height="10.5367" fill="white"/>
<rect x="32.4409" y="1.75659" width="2.26332" height="10.5367" fill="white"/>
<rect x="38.4766" y="1.75659" width="2.26332" height="10.5367" fill="white"/>
<path d="M29.6118 0.000366211H26.2168L24.1421 8.97607H26.8215L25.0851 16.0005H25.651L30.6048 6.16352H27.5814L29.6118 0.000366211Z" fill="white"/>
<rect x="6.03564" y="6.82983" width="1.95124" height="3.7722" transform="rotate(90 6.03564 6.82983)" fill="white"/>
<rect x="13.5801" y="10.342" width="1.95124" height="4.14942" transform="rotate(90 13.5801 10.342)" fill="white"/>
<rect x="38.4766" y="6.82983" width="1.95124" height="3.7722" transform="rotate(90 38.4766 6.82983)" fill="white"/>
<path d="M17.1358 1.75793H19.4878L17.1358 12.2946H14.7837L17.1358 1.75793Z" fill="white"/>
<path d="M20.5584 1.75708H18.2064L20.747 12.2938H23.0991L20.5584 1.75708Z" fill="white"/>
<rect x="21.124" y="8.00171" width="1.95124" height="4.14942" transform="rotate(90 21.124 8.00171)" fill="white"/>
<rect x="6.03564" y="1.75659" width="1.95124" height="3.7722" transform="rotate(90 6.03564 1.75659)" fill="white"/>
<path d="M54.2385 9.4665C54.2385 10.3856 53.9177 11.1098 53.276 11.639C52.6388 12.1682 51.7504 12.4328 50.6107 12.4328C49.5607 12.4328 48.6319 12.2285 47.8242 11.82V9.81465C48.4883 10.121 49.0492 10.3369 49.5069 10.4622C49.969 10.5875 50.3908 10.6502 50.7722 10.6502C51.2299 10.6502 51.5799 10.5597 51.8222 10.3787C52.069 10.1976 52.1924 9.92838 52.1924 9.57094C52.1924 9.37133 52.1385 9.19494 52.0308 9.04175C51.9232 8.88392 51.7639 8.73305 51.553 8.58915C51.3466 8.44525 50.9225 8.21547 50.2809 7.89981C49.6796 7.60736 49.2287 7.32652 48.928 7.05728C48.6274 6.78804 48.3873 6.4747 48.2079 6.11727C48.0284 5.75983 47.9386 5.34205 47.9386 4.86392C47.9386 3.96336 48.2325 3.25545 48.8203 2.74018C49.4126 2.22492 50.2293 1.96729 51.2703 1.96729C51.7818 1.96729 52.2687 2.02995 52.7308 2.15529C53.1975 2.28062 53.6843 2.45702 54.1914 2.68448L53.5183 4.36258C52.9933 4.13976 52.5581 3.98425 52.2126 3.89605C51.8715 3.80785 51.535 3.76375 51.203 3.76375C50.8081 3.76375 50.5052 3.85892 50.2943 4.04924C50.0835 4.23956 49.978 4.48791 49.978 4.79429C49.978 4.98461 50.0206 5.15172 50.1059 5.29563C50.1911 5.43489 50.3258 5.57183 50.5097 5.70645C50.6982 5.83642 51.1402 6.07317 51.8357 6.41668C52.7555 6.8716 53.3859 7.32884 53.727 7.7884C54.068 8.24332 54.2385 8.80268 54.2385 9.4665Z" fill="white"/>
<path d="M62.046 12.2935L61.3325 9.87035H57.7451L57.0317 12.2935H54.7837L58.2566 2.07173H60.8075L64.294 12.2935H62.046ZM60.8345 8.05996C60.1749 5.86428 59.8024 4.62253 59.7172 4.33472C59.6364 4.04692 59.5781 3.81946 59.5422 3.65234C59.3941 4.24653 58.9701 5.71573 58.2701 8.05996H60.8345Z" fill="white"/>
<path d="M65.5391 12.2935V2.11351H67.6256V10.511H71.6169V12.2935H65.5391Z" fill="white"/>
<path d="M79.0003 12.2935H73.3332V2.11351H79.0003V3.88213H75.4197V6.11727H78.7513V7.88588H75.4197V10.511H79.0003V12.2935Z" fill="white"/>
</svg>
