<svg width="17" height="14" viewBox="0 0 17 14" fill="none" xmlns="http://www.w3.org/2000/svg">
<path d="M16.3039 0.0399995C16.4719 -0.00800061 16.6039 0.00999951 16.6999 0.0939999C16.7959 0.177999 16.8199 0.291999 16.7719 0.436C16.7479 0.508 16.3159 2.368 15.4759 6.016C14.6359 9.664 14.1919 11.56 14.1439 11.704C14.1199 11.872 14.0359 11.986 13.8919 12.046C13.7479 12.106 13.6039 12.1 13.4599 12.028L8.45591 9.328L8.85191 8.86C13.5079 3.82 15.8719 1.264 15.9439 1.192C15.9919 1.144 15.9859 1.09 15.9259 1.03C15.8659 0.97 15.8119 0.964 15.7639 1.012L5.86391 8.248L3.84791 7.456L0.427914 6.088C0.283914 6.04 0.211914 5.968 0.211914 5.872C0.211914 5.776 0.283914 5.704 0.427914 5.656C0.523914 5.608 3.16991 4.666 8.36591 2.83C13.5619 0.993999 16.2079 0.0639992 16.3039 0.0399995ZM5.82791 13.144V9.472L8.70791 10.948C7.14791 12.34 6.29591 13.108 6.15191 13.252C5.93591 13.42 5.82791 13.384 5.82791 13.144Z" fill="white"/>
</svg>
