<svg width="24" height="29" viewBox="0 0 24 29" fill="none" xmlns="http://www.w3.org/2000/svg">
<path fill-rule="evenodd" clip-rule="evenodd" d="M14.2488 14.5437C14.5848 13.9662 15.1544 13.1154 16.0563 12.1125C16.7715 11.3313 17.493 11.0046 18.2283 10.6716C19.2394 10.2137 20.2767 9.74397 21.3606 8.06434C21.6217 7.65968 21.8707 7.28719 22.104 6.93806C23.5438 4.7841 24.3889 3.5197 23.8221 1.0812C23.6909 0.516734 23.5762 0.19053 23.4774 0.0354004H23.2182C23.0229 0.422391 22.9632 1.69428 23.0247 2.09325C23.0972 2.44618 22.5342 1.95911 21.9211 1.42875C21.3622 0.945222 20.7616 0.425711 20.5632 0.473976C20.3965 0.514517 20.764 0.95564 21.2465 1.53496C21.9685 2.40185 22.9483 3.57818 22.782 4.18482C22.512 5.17002 21.9792 5.83553 21.7272 6.15023L21.7073 6.17518C21.5862 6.293 21.3792 5.70997 21.1267 4.99874C20.8008 4.08087 20.3992 2.94946 20.0085 2.83542C19.7216 2.75168 19.9273 3.2742 20.2155 4.00645C20.6239 5.04417 21.1981 6.50311 20.7712 7.2547C20.0432 8.53663 18.5871 10.0547 18.3444 9.21132C18.2386 8.8585 18.4028 8.1149 18.5873 7.27923C18.8262 6.19723 19.0992 4.96088 18.8644 4.21855C18.4484 2.90289 16.611 1.58723 15.9869 1.85711C15.7096 1.97703 15.9731 2.24348 16.3698 2.64464C16.8658 3.14628 17.5701 3.85855 17.6857 4.75831C17.8937 6.37759 16.1256 4.79205 14.9469 3.20651C13.7681 1.62096 13.6988 4.85952 16.2296 5.63542C18.7604 6.41132 16.1603 6.91735 15.1202 6.41132C14.0801 5.9053 14.7042 7.11976 15.7789 7.49084C16.8536 7.86193 17.1657 9.85229 16.2643 10.7969C15.3629 11.7077 14.6348 11.7077 14.6002 10.2234C14.5655 8.73903 13.7334 8.06433 13.4561 8.36795C13.3458 8.48865 13.4328 9.0999 13.545 9.88795C13.715 11.0821 13.9427 12.6823 13.6294 13.5969L13.1882 14.8849C12.4335 14.808 11.199 14.7557 10.6517 15.2271L10.3706 14.4065C10.0573 13.492 10.285 11.8918 10.455 10.6976C10.5672 9.90954 10.6542 9.29829 10.5439 9.17759C10.2666 8.87397 9.43451 9.54867 9.39984 11.033C9.36518 12.5173 8.63712 12.5173 7.73573 11.6065C6.83434 10.6619 7.14636 8.67157 8.2211 8.30048C9.29583 7.9294 9.91988 6.71494 8.87981 7.22096C7.83975 7.72699 5.23958 7.22096 7.7704 6.44506C10.3012 5.66916 10.2319 2.4306 9.05316 4.01614C7.87441 5.60169 6.1063 7.18723 6.31431 5.56795C6.42989 4.66819 7.1342 3.95592 7.63024 3.45427C8.0269 3.05312 8.29038 2.78667 8.01309 2.66675C7.38905 2.39687 5.5516 3.71253 5.13557 5.02819C4.90084 5.77052 5.1738 7.00687 5.41268 8.08887C5.59718 8.92454 5.76136 9.66814 5.6556 10.021C5.41292 10.8643 3.95683 9.34626 3.22878 8.06434C2.80194 7.31275 3.37612 5.85381 3.78453 4.81609C4.07271 4.08384 4.27836 3.56132 3.9915 3.64506C3.60084 3.7591 3.19917 4.89051 2.8733 5.80839C2.6208 6.51961 2.41382 7.10264 2.29273 6.98482L2.27276 6.95986C2.0208 6.64515 1.48798 5.97964 1.21799 4.99446C1.05175 4.38781 2.0315 3.21148 2.75353 2.3446C3.23604 1.76528 3.60345 1.32415 3.4368 1.28361C3.23839 1.23535 2.63785 1.75486 2.0789 2.23839C1.46581 2.76875 0.902768 3.25582 0.975309 2.90289C1.07931 2.22819 0.836637 -0.942892 0.177929 1.89084C-0.388902 4.32933 0.456232 5.59373 1.89595 7.74768L1.89599 7.74773C2.12934 8.09685 2.37831 8.46933 2.63942 8.87397C3.72327 10.5536 4.76064 11.0234 5.77171 11.4812C6.50705 11.8142 7.22847 12.1409 7.94375 12.9222C8.86446 13.9461 9.43892 14.8114 9.77199 15.3893C8.98362 15.2576 7.69603 15.1043 7.07702 15.4186C7.00768 15.4523 6.97302 15.5535 6.97302 15.6547C7.11169 16.127 7.66639 17.5439 9.15715 18.1173C9.22649 18.1511 9.22649 18.1848 9.19182 18.2523C8.74113 18.8932 6.07162 22.874 6.17563 27.5294C6.17911 27.7 6.18586 27.8687 6.19566 28.0354H19.3488C15.8292 27.7958 13.823 27.0812 13.3521 25.7752C12.624 23.8523 13.4561 21.8282 14.4962 21.8282C14.6764 21.8335 14.9238 21.8472 15.2128 21.8632L15.213 21.8632C16.7584 21.9487 19.4939 22.1001 19.5231 21.3896C19.5231 21.3896 20.1125 20.2426 18.2057 18.7583C16.2989 17.274 15.5709 16.7005 15.9522 15.7559C16.1528 15.254 16.4008 14.729 16.5787 14.3525L16.5788 14.3523L16.5788 14.3523C16.6161 14.2733 16.6503 14.2009 16.6803 14.1366C16.7496 14.0017 16.6456 13.833 16.4723 13.8667C15.9498 13.895 14.9171 14.0415 14.2488 14.5437Z" fill="#F2F2F2"/>
</svg>
