<svg width="33" height="41" viewBox="0 0 33 41" fill="none" xmlns="http://www.w3.org/2000/svg">
<mask id="mask0" mask-type="alpha" maskUnits="userSpaceOnUse" x="0" y="0" width="33" height="41">
<rect y="0.0354004" width="33" height="40" rx="5" fill="url(#paint0_linear)"/>
</mask>
<g mask="url(#mask0)">
<path d="M4.81299 -3.25012V10.8484" stroke="#F2F2F2" stroke-width="0.902604" stroke-miterlimit="10" stroke-linecap="round" stroke-linejoin="round"/>
<path d="M1.75439 -2.05652L4.8128 0.106748L7.94581 -2.05652" stroke="#F2F2F2" stroke-width="0.902604" stroke-miterlimit="10" stroke-linecap="round" stroke-linejoin="round"/>
<path d="M7.05092 8.46124L4.81306 6.29797L2.5752 8.46124" stroke="#F2F2F2" stroke-width="0.902604" stroke-miterlimit="10" stroke-linecap="round" stroke-linejoin="round"/>
<path d="M14.8088 0.852295L4.81299 10.8481" stroke="#F2F2F2" stroke-width="0.902604" stroke-miterlimit="10" stroke-linecap="round" stroke-linejoin="round"/>
<path d="M11.8247 -0.490234L12.4215 3.23954L16.2258 3.91089" stroke="#F2F2F2" stroke-width="0.902604" stroke-miterlimit="10" stroke-linecap="round" stroke-linejoin="round"/>
<path d="M10.4077 0.852295L11.0791 4.65666L14.8088 5.25342" stroke="#F2F2F2" stroke-width="0.902604" stroke-miterlimit="10" stroke-linecap="round" stroke-linejoin="round"/>
<path d="M10.8552 9.20727L10.2585 5.4775L6.4541 4.88074" stroke="#F2F2F2" stroke-width="0.902604" stroke-miterlimit="10" stroke-linecap="round" stroke-linejoin="round"/>
<path d="M14.8088 20.8441L4.81299 10.8483" stroke="#F2F2F2" stroke-width="0.902604" stroke-miterlimit="10" stroke-linecap="round" stroke-linejoin="round"/>
<path d="M16.2258 17.8601L12.4215 18.4569L11.8247 22.2612" stroke="#F2F2F2" stroke-width="0.902604" stroke-miterlimit="10" stroke-linecap="round" stroke-linejoin="round"/>
<path d="M14.8088 16.4427L11.0791 17.1141L10.4077 20.8439" stroke="#F2F2F2" stroke-width="0.902604" stroke-miterlimit="10" stroke-linecap="round" stroke-linejoin="round"/>
<path d="M6.4541 16.8905L10.1839 16.2937L10.8552 12.4894" stroke="#F2F2F2" stroke-width="0.902604" stroke-miterlimit="10" stroke-linecap="round" stroke-linejoin="round"/>
<path d="M-5.18311 20.8439L4.81268 10.8481" stroke="#F2F2F2" stroke-width="0.902604" stroke-miterlimit="10" stroke-linecap="round" stroke-linejoin="round"/>
<path d="M-1.22949 12.4894L-0.558133 16.2191L3.17164 16.8905" stroke="#F2F2F2" stroke-width="0.902604" stroke-miterlimit="10" stroke-linecap="round" stroke-linejoin="round"/>
<path d="M-5.18311 0.852295L4.81268 10.8481" stroke="#F2F2F2" stroke-width="0.902604" stroke-miterlimit="10" stroke-linecap="round" stroke-linejoin="round"/>
<path d="M3.17175 4.80615L-0.558022 5.47751L-1.15479 9.20728" stroke="#F2F2F2" stroke-width="0.902604" stroke-miterlimit="10" stroke-linecap="round" stroke-linejoin="round"/>
<path d="M18.9115 10.8483H4.81299" stroke="#F2F2F2" stroke-width="0.902604" stroke-miterlimit="10" stroke-linecap="round" stroke-linejoin="round"/>
<path d="M17.7925 7.78979L15.5547 10.8482L17.7925 13.9812" stroke="#F2F2F2" stroke-width="0.902604" stroke-miterlimit="10" stroke-linecap="round" stroke-linejoin="round"/>
<path d="M7.2002 13.0862L9.43806 10.8483L7.2002 8.61047" stroke="#F2F2F2" stroke-width="0.902604" stroke-miterlimit="10" stroke-linecap="round" stroke-linejoin="round"/>
<path d="M4.81299 24.9467V10.8481" stroke="#F2F2F2" stroke-width="0.902604" stroke-miterlimit="10" stroke-linecap="round" stroke-linejoin="round"/>
<path d="M7.94581 23.8277L4.8128 21.5898L1.75439 23.8277" stroke="#F2F2F2" stroke-width="0.902604" stroke-miterlimit="10" stroke-linecap="round" stroke-linejoin="round"/>
<path d="M2.5752 13.2354L4.81306 15.4732L7.05092 13.2354" stroke="#F2F2F2" stroke-width="0.902604" stroke-miterlimit="10" stroke-linecap="round" stroke-linejoin="round"/>
<path d="M-9.28564 10.8483H4.81288" stroke="#F2F2F2" stroke-width="0.902604" stroke-miterlimit="10" stroke-linecap="round" stroke-linejoin="round"/>
<path d="M2.42596 8.61047L0.262695 10.8483L2.42596 13.0862" stroke="#F2F2F2" stroke-width="0.902604" stroke-miterlimit="10" stroke-linecap="round" stroke-linejoin="round"/>
<path d="M20.1794 11.6688C20.6326 11.6688 21 11.3014 21 10.8483C21 10.3951 20.6326 10.0277 20.1794 10.0277C19.7263 10.0277 19.3589 10.3951 19.3589 10.8483C19.3589 11.3014 19.7263 11.6688 20.1794 11.6688Z" stroke="#F2F2F2" stroke-width="0.902604" stroke-miterlimit="10" stroke-linecap="round" stroke-linejoin="round"/>
<path d="M4.81274 27.0355C5.26591 27.0355 5.63329 26.6681 5.63329 26.215C5.63329 25.7618 5.26591 25.3944 4.81274 25.3944C4.35956 25.3944 3.99219 25.7618 3.99219 26.215C3.99219 26.6681 4.35956 27.0355 4.81274 27.0355Z" stroke="#F2F2F2" stroke-width="0.902604" stroke-miterlimit="10" stroke-linecap="round" stroke-linejoin="round"/>
</g>
<defs>
<linearGradient id="paint0_linear" x1="-0.00241354" y1="19.8092" x2="32.9947" y2="19.8092" gradientUnits="userSpaceOnUse">
<stop stop-color="#2070D2"/>
<stop offset="1" stop-color="#1AA7E5"/>
</linearGradient>
</defs>
</svg>
