<svg width="14" height="13" viewBox="0 0 14 13" fill="none" xmlns="http://www.w3.org/2000/svg">
<path d="M13.006 5.154C13.006 5.266 12.936 5.392 12.796 5.532L9.968 8.29L10.64 12.196V12.364C10.64 12.4667 10.612 12.5553 10.556 12.63C10.5 12.7047 10.4207 12.742 10.318 12.742C10.2247 12.7513 10.122 12.7233 10.01 12.658L6.496 10.81L2.996 12.658C2.884 12.7233 2.77667 12.756 2.674 12.756C2.57133 12.756 2.492 12.714 2.436 12.63C2.38 12.546 2.352 12.4573 2.352 12.364C2.352 12.3267 2.35667 12.2707 2.366 12.196L3.038 8.29L0.196 5.532C0.0653333 5.392 0 5.266 0 5.154C0 4.958 0.144667 4.83667 0.434 4.79L4.354 4.23L6.118 0.674C6.22067 0.459333 6.34667 0.352 6.496 0.352C6.64533 0.352 6.776 0.459333 6.888 0.674L8.638 4.23L12.558 4.79C12.8567 4.83667 13.006 4.958 13.006 5.154Z" fill="white"/>
</svg>
