<svg width="8" height="13" viewBox="0 0 8 13" fill="none" xmlns="http://www.w3.org/2000/svg">
<path d="M6.006 4.098C6.006 3.54733 5.81 3.076 5.418 2.684C5.026 2.292 4.55467 2.096 4.004 2.096C3.45333 2.096 2.982 2.292 2.59 2.684C2.198 3.076 2.002 3.54733 2.002 4.098C2.002 4.64867 2.198 5.12 2.59 5.512C2.982 5.904 3.45333 6.1 4.004 6.1C4.55467 6.1 5.026 5.904 5.418 5.512C5.81 5.12 6.006 4.64867 6.006 4.098ZM7.994 4.098C7.994 4.66733 7.91 5.134 7.742 5.498L4.9 11.546C4.816 11.714 4.69 11.8493 4.522 11.952C4.354 12.0547 4.18133 12.106 4.004 12.106C3.82667 12.106 3.64933 12.0547 3.472 11.952C3.29467 11.8493 3.17333 11.714 3.108 11.546L0.252 5.498C0.084 5.134 0 4.66733 0 4.098C0 2.99667 0.392 2.054 1.176 1.27C1.96 0.485999 2.90267 0.0939994 4.004 0.0939994C5.10533 0.0939994 6.048 0.485999 6.832 1.27C7.616 2.054 8.00333 2.99667 7.994 4.098Z" fill="#7F7F7F"/>
</svg>
