<svg width="196" height="70" viewBox="0 0 196 70" fill="none" xmlns="http://www.w3.org/2000/svg">
<path d="M144.125 66.4353C144.125 66.2733 144.125 66.1923 144.207 66.1113C144.288 66.0303 144.37 65.9492 144.533 65.9492H147.469C147.632 65.9492 147.714 66.0303 147.795 66.1113C147.877 66.1923 147.959 66.3543 147.959 66.4353V69.109C147.959 69.271 147.877 69.352 147.795 69.4331C147.714 69.5141 147.551 69.5951 147.388 69.5951H144.451C144.125 69.5951 143.962 69.433 143.962 69.109V66.4353H144.125Z" fill="white"/>
<path d="M2.44694 51.9331H10.4403C14.8448 51.9331 16.1497 54.6877 15.8235 57.6044C15.4156 60.4401 13.3765 63.2757 8.89047 63.2757H4.81224L3.91515 69.5951H0L2.44694 51.9331ZM5.22006 60.197H8.23811C10.0325 60.197 11.7454 59.7918 12.0716 57.5233C12.3163 55.2548 10.7665 54.8498 8.97212 54.8498H5.95426L5.22006 60.197Z" fill="white"/>
<path d="M29.2817 61.9789H21.0438L19.9834 69.5137H16.1499L18.6783 51.8516H22.512L21.6147 58.2521H29.8528L30.7499 51.9327H34.5834L32.055 69.5947H28.2215L29.2817 61.9789Z" fill="white"/>
<path d="M37.6827 51.9326H41.5978L39.0692 69.5947H35.1543L37.6827 51.9326Z" fill="white"/>
<path d="M41.9243 69.4327L44.3713 51.8516H48.205L46.1658 66.1919H55.301L54.8932 69.4327H41.9243Z" fill="white"/>
<path d="M73.3266 69.5137H67.9435L64.0283 64.5716L61.2552 67.7313L61.0105 69.5137H57.0137L59.5423 51.8516H63.5388L62.1523 61.8169L70.4718 51.8516H75.2843L67.2093 61.8169L73.3266 69.5137Z" fill="white"/>
<path d="M83.522 69.7571C78.465 69.7571 74.9578 65.7061 75.6103 60.6829C76.3444 55.6597 80.9936 51.5278 86.0506 51.5278C91.1076 51.5278 94.6964 55.5787 93.9624 60.6829C93.3098 65.7061 88.579 69.7571 83.522 69.7571ZM79.3624 60.6829C78.873 63.5996 81.0752 66.0301 84.0115 66.0301C87.0294 66.0301 89.721 63.5996 90.1289 60.6829C90.5367 57.7662 88.4975 55.2547 85.5612 55.2547C82.6248 55.2547 79.7702 57.6852 79.3624 60.6829Z" fill="white"/>
<path d="M101.548 55.1734H95.9199L96.4092 51.9326H111.58L111.091 55.1734H105.463L103.424 69.5137H99.5087L101.548 55.1734Z" fill="white"/>
<path d="M114.68 64.3287C114.762 66.6783 116.801 67.0024 118.269 67.0024C119.655 67.0024 121.776 66.5973 122.021 64.8148C122.51 61.088 111.662 63.4376 112.559 56.8751C113.049 53.2292 116.719 51.5278 119.982 51.5278C123.652 51.5278 126.915 53.1482 126.262 57.1991L122.592 56.632C122.429 54.6065 120.634 54.5255 119.411 54.5255C118.187 54.5255 116.637 55.0116 116.474 56.551C116.311 57.8473 117.127 58.1714 121.368 59.2246C122.673 59.5487 126.507 60.3588 125.936 64.3287C125.446 67.5695 122.592 70.0001 117.779 70.0001C113.864 70.0001 110.438 68.0556 111.091 63.7617L114.68 64.3287Z" fill="white"/>
<path d="M131.156 66.2729H141.188L140.699 69.5137H126.915L129.443 51.8516H142.412L141.922 55.0923H132.787L132.216 59.0623H140.291L139.802 62.4651H131.727L131.156 66.2729Z" fill="white"/>
<path d="M156.604 69.676C152.77 69.676 150.079 66.5973 150.65 62.7894C151.139 58.9815 154.728 55.9028 158.561 55.9028C161.171 55.9028 163.129 57.3612 164.108 59.4677C162.803 60.1158 162.721 60.1158 161.335 60.764C160.845 59.6297 159.622 58.8196 158.154 58.8196C155.87 58.8196 153.831 60.683 153.504 62.8705C153.178 65.1391 154.728 66.9215 157.012 66.9215C158.561 66.9215 159.948 66.1112 160.927 64.8149C162.15 65.463 162.15 65.5441 163.292 66.1113C161.742 68.1367 159.296 69.676 156.604 69.676Z" fill="white"/>
<path d="M170.633 69.7574C166.718 69.7574 164.027 66.5977 164.516 62.7088C165.087 58.8198 168.676 55.6602 172.591 55.6602C176.506 55.6602 179.279 58.8198 178.708 62.7088C178.219 66.5977 174.548 69.7574 170.633 69.7574ZM167.452 62.7088C167.126 64.9773 168.757 66.8407 171.041 66.8407C173.325 66.8407 175.446 64.9773 175.772 62.7088C176.098 60.4402 174.467 58.4958 172.183 58.4958C169.981 58.5768 167.779 60.4402 167.452 62.7088Z" fill="white"/>
<path d="M181.807 55.9839H185.723L188.006 61.9792L192.003 55.9839H196L194.042 69.595H191.187L192.574 59.9537L188.659 66.1112H186.375L184.173 60.0348L182.786 69.595H179.932L181.807 55.9839Z" fill="white"/>
<path d="M35.6436 26.818C48.5308 25.4407 60.8471 25.7647 65.4147 26.0078L55.6269 20.4175C44.1263 20.9846 34.9912 22.3619 27.8135 24.2253L35.6436 26.818Z" fill="white"/>
<path d="M136.213 14.665C144.533 15.8803 152.689 17.2575 160.193 18.5538L160.275 2.26907C159.704 2.18805 134.745 0.243616 131.401 0.162598L136.213 14.665Z" fill="white"/>
<path d="M85.8061 5.50879C76.5077 9.96482 63.9469 16.8514 61.6631 18.7959L70.8797 24.0621C76.3446 21.1454 87.0296 16.8514 93.7995 14.5019L85.8061 5.50879Z" fill="white"/>
<path d="M99.0193 13.5302C107.339 12.3149 117.453 12.3149 130.83 13.9353L125.365 0C111.743 0.162038 99.835 0.972265 90.5366 3.88894L99.0193 13.5302Z" fill="white"/>
<path d="M164.924 2.75488L165.005 19.4447C182.052 22.4424 194.45 25.035 194.45 25.035V3.88917C194.45 3.88917 184.499 4.37526 164.924 2.75488Z" fill="white"/>
<path d="M20.6358 26.3311C5.22002 31.7593 2.12061 38.727 2.12061 38.727C6.93292 33.2177 16.1497 30.058 26.1005 28.1945L20.6358 26.3311Z" fill="white"/>
<path d="M106.605 39.3758C54.5666 37.2693 29.2816 40.9962 19.8201 42.7786C15.334 43.8318 13.7842 44.723 13.7842 44.723H194.45V36.8642C194.45 36.7831 177.974 42.2925 106.605 39.3758Z" fill="white"/>
<path d="M105.871 40.1852C177.24 43.1019 194.45 36.8634 194.45 36.8634C178.137 32.7314 143.391 25.5208 128.22 23.9814C107.665 37.8357 69.5748 38.6458 69.5748 38.6458C41.5165 38.8889 26.9164 41.1574 19.8203 42.8588C29.2818 40.9953 53.8328 37.9977 105.871 40.1852Z" fill="white"/>
</svg>
